<?xml version="1.0" encoding="UTF-8"?>
<svg id="Layer_1" data-name="Layer 1" xmlns="http://www.w3.org/2000/svg" width="212.8mm" height="25.88mm" viewBox="0 0 603.21 73.35">
  <polygon points="165.79 21.32 165.79 21.32 165.79 21.33 173 21.33 172.99 20.49 172.99 20.46 172.99 20.46 172.99 20.46 166.09 20.46 165.79 20.46 165.79 20.46 165.79 20.46 165.79 21.27 165.79 21.32"/>
  <polygon points="172.99 72.46 172.99 72.46 172.99 72.46 166.09 72.46 165.79 72.46 165.79 72.46 165.79 72.46 165.79 73.27 165.79 73.32 165.79 73.32 165.79 73.33 173 73.33 172.99 72.49 172.99 72.46"/>
  <polygon points="165.79 39.62 165.79 39.62 165.79 39.63 173 39.63 172.99 26.59 172.99 26.03 172.99 26.03 172.99 26.03 166.09 26.03 165.79 26.03 165.79 26.03 165.79 26.03 165.79 38.78 165.79 39.62"/>
  <polygon points="165.79 19.45 165.79 19.45 165.79 19.45 173 19.45 172.99 18.62 172.99 18.59 172.99 18.59 172.99 18.58 166.09 18.59 165.79 18.59 165.79 18.59 165.79 18.59 165.79 19.4 165.79 19.45"/>
  <polygon points="165.79 45.45 165.79 45.45 165.79 45.45 173 45.45 172.99 44.62 172.99 44.59 172.99 44.59 172.99 44.58 166.09 44.59 165.79 44.59 165.79 44.59 165.79 44.59 165.79 45.4 165.79 45.45"/>
  <polygon points="165.79 71.45 165.79 71.45 165.79 71.45 173 71.45 172.99 70.62 172.99 70.59 172.99 70.59 172.99 70.58 166.09 70.59 165.79 70.59 165.79 70.59 165.79 70.59 165.79 71.4 165.79 71.45"/>
  <polygon points="165.79 65.62 165.79 65.62 165.79 65.63 173 65.63 172.99 52.59 172.99 52.03 172.99 52.03 172.99 52.03 166.09 52.03 165.79 52.03 165.79 52.03 165.79 52.03 165.79 64.78 165.79 65.62"/>
  <polygon points="165.79 47.32 165.79 47.32 165.79 47.33 173 47.33 172.99 46.49 172.99 46.46 172.99 46.46 172.99 46.46 166.09 46.46 165.79 46.46 165.79 46.46 165.79 46.46 165.79 47.27 165.79 47.32"/>
  <polygon points="165.79 12.78 165.79 13.62 165.79 13.62 165.79 13.63 173 13.63 172.99 .59 172.99 .03 172.99 .03 172.99 .03 166.24 .03 165.79 .03 165.79 .03 165.79 .03 165.79 12.78"/>
  <polygon points="173 21.33 180.2 21.33 180.2 20.48 180.2 20.46 180.2 20.46 180.2 20.46 173.3 20.46 173 20.46 173 20.46 173 20.46 173 21.33"/>
  <polygon points="173 39.63 180.2 39.63 180.2 26.31 180.2 26.03 180.2 26.03 180.2 26.03 173.3 26.03 173 26.03 173 26.03 173 26.03 173 39.63"/>
  <polygon points="180.2 72.46 180.2 72.46 180.2 72.46 173.3 72.46 173 72.46 173 72.46 173 72.46 173 73.33 180.2 73.33 180.2 72.48 180.2 72.46"/>
  <polygon points="173 45.45 180.2 45.45 180.2 44.6 180.2 44.59 180.2 44.59 180.2 44.58 173.3 44.59 173 44.59 173 44.59 173 44.59 173 45.45"/>
  <polygon points="180.2 18.59 180.2 18.58 173.3 18.59 173 18.59 173 18.59 173 18.59 173 19.45 180.2 19.45 180.2 18.6 180.2 18.59 180.2 18.59"/>
  <polygon points="180.2 70.59 180.2 70.58 173.3 70.59 173 70.59 173 70.59 173 70.59 173 71.45 180.2 71.45 180.2 70.6 180.2 70.59 180.2 70.59"/>
  <polygon points="173 47.33 180.2 47.33 180.2 46.48 180.2 46.46 180.2 46.46 180.2 46.46 173.3 46.46 173 46.46 173 46.46 173 46.46 173 47.33"/>
  <polygon points="180.2 52.31 180.2 52.03 180.2 52.03 180.2 52.03 173.3 52.03 173 52.03 173 52.03 173 52.03 173 65.63 180.2 65.63 180.2 52.31"/>
  <polygon points="129.76 71.45 129.75 70.58 122.85 70.59 122.55 70.59 122.55 70.59 122.55 70.59 122.55 71.45 129.76 71.45"/>
  <polygon points="141.93 18.59 141.93 18.59 141.93 18.58 137.17 18.59 136.97 18.59 136.97 18.59 136.96 18.59 136.97 19.43 136.97 19.45 136.97 19.45 136.97 19.45 141.07 19.45 141.07 33.46 137.13 33.46 136.97 33.46 136.97 33.46 136.96 33.46 136.97 34.31 136.97 34.32 136.97 34.32 136.97 34.33 141.94 34.33 141.93 19.24 141.93 18.59"/>
  <polygon points="165.79 .03 165.79 .03 165.79 .03 159.03 .03 158.59 .03 158.59 .03 158.58 .03 158.59 12.78 158.59 13.62 158.59 13.62 158.59 13.63 165.79 13.63 165.79 .59 165.79 .03"/>
  <polygon points="136.96 57.59 136.96 57.59 136.96 57.58 132.19 57.59 131.99 57.59 131.99 57.59 131.99 57.59 131.99 70.58 129.85 70.59 129.76 70.59 129.76 70.59 129.76 70.59 129.76 71.43 129.76 71.45 129.76 71.45 129.76 71.45 132.85 71.45 132.85 59.26 132.85 58.45 136.96 58.45 136.96 57.66 136.96 57.59"/>
  <polygon points="141.93 44.59 141.93 44.59 141.93 44.58 137.17 44.59 136.97 44.59 136.97 44.59 136.96 44.59 136.97 45.43 136.97 45.45 136.97 45.45 136.97 45.45 141.07 45.45 141.07 59.46 137.13 59.46 136.97 59.46 136.97 59.46 136.96 59.46 136.97 60.31 136.97 60.32 136.97 60.32 136.97 60.33 141.94 60.33 141.93 45.24 141.93 44.59"/>
  <polygon points="136.96 13.03 136.96 13.03 136.96 13.03 134.82 13.03 134.73 13.03 134.73 6.05 134.73 5.59 134.73 5.59 134.73 5.58 130.07 5.59 129.76 5.59 129.76 5.59 129.76 5.59 129.76 6.43 129.76 6.45 129.76 6.45 129.76 6.45 133.86 6.45 133.87 13.03 132.9 13.03 132.85 13.03 132.85 7.81 132.85 7.46 132.85 7.46 132.85 7.46 129.95 7.46 129.76 7.46 129.76 7.46 129.76 7.46 129.76 8.31 129.76 8.32 129.76 8.32 129.76 8.33 131.99 8.32 131.99 13.03 129.85 13.03 129.76 13.03 129.76 13.03 129.76 13.03 129.76 26.34 129.76 26.62 129.76 26.62 129.76 26.63 136.96 26.63 136.96 14.16 136.96 13.03"/>
  <polygon points="136.96 60.32 136.96 59.53 136.96 59.46 136.96 59.46 136.96 59.46 133.99 59.46 133.87 59.46 133.87 59.46 133.86 59.46 133.87 72.46 129.93 72.46 129.76 72.46 129.76 72.46 129.76 72.46 129.76 73.31 129.76 73.32 129.76 73.32 129.76 73.33 134.73 73.33 134.73 61.14 134.73 60.33 136.96 60.32"/>
  <polygon points="122.85 72.46 122.55 72.46 122.55 72.46 122.55 72.46 122.55 73.33 129.76 73.33 129.75 72.46 122.85 72.46"/>
  <polygon points="122.55 65.63 129.76 65.63 129.75 .03 123 .03 122.55 .03 122.55 .03 122.55 .03 122.55 65.63"/>
  <polygon points="132.85 39.03 132.85 32.86 132.85 32.45 136.96 32.45 136.96 31.66 136.96 31.59 136.96 31.59 136.96 31.58 132.19 31.59 131.99 31.59 131.99 31.59 131.99 31.59 131.99 39.03 129.85 39.03 129.76 39.03 129.76 39.03 129.76 39.03 129.76 52.34 129.76 52.62 129.76 52.62 129.76 52.63 136.96 52.63 136.96 40.16 136.96 39.03 136.96 39.03 136.96 39.03 134.82 39.03 134.73 39.03 134.73 34.62 134.73 34.33 136.96 34.32 136.96 33.53 136.96 33.46 136.96 33.46 136.96 33.46 133.99 33.46 133.87 33.46 133.87 33.46 133.86 33.46 133.87 39.03 132.9 39.03 132.85 39.03"/>
  <polygon points="165.79 72.46 165.79 72.46 165.79 72.46 158.88 72.46 158.59 72.46 158.59 72.46 158.58 72.46 158.59 73.27 158.59 73.32 158.59 73.32 158.59 73.33 165.79 73.33 165.79 72.49 165.79 72.46"/>
  <polygon points="165.79 70.59 165.79 70.59 165.79 70.58 158.88 70.59 158.59 70.59 158.59 70.59 158.58 70.59 158.59 71.4 158.59 71.45 158.59 71.45 158.59 71.45 165.79 71.45 165.79 70.62 165.79 70.59"/>
  <polygon points="149.14 65.83 149.14 65.63 151.38 65.62 151.37 4.13 151.37 .03 151.37 .03 151.37 .03 144.62 .03 144.17 .03 144.17 .03 144.17 .03 144.17 62.89 144.17 65.62 144.17 65.62 144.17 65.63 146.4 65.62 146.4 73.16 146.4 73.32 146.4 73.32 146.4 73.33 151.38 73.33 151.37 72.51 151.37 72.46 151.37 72.46 151.37 72.46 147.44 72.46 147.27 72.46 147.27 65.91 147.27 65.63 148.28 65.62 148.28 71.33 148.28 71.45 148.28 71.45 148.28 71.45 151.38 71.45 151.37 70.64 151.37 70.59 151.37 70.59 151.37 70.58 149.24 70.59 149.14 70.59 149.14 65.83"/>
  <polygon points="161.72 52.03 161.68 52.03 161.68 45.59 161.68 45.45 165.79 45.45 165.79 44.62 165.79 44.59 165.79 44.59 165.79 44.58 161.02 44.59 160.82 44.59 160.82 44.59 160.82 44.59 160.82 51.72 160.82 52.03 158.68 52.03 158.59 52.03 158.59 52.03 158.58 52.03 158.59 64.78 158.59 65.62 158.59 65.62 158.59 65.63 165.79 65.63 165.79 52.59 165.79 52.03 165.79 52.03 165.79 52.03 163.65 52.03 163.56 52.03 163.55 47.42 163.55 47.33 165.79 47.32 165.79 46.49 165.79 46.46 165.79 46.46 165.79 46.46 162.82 46.46 162.69 46.46 162.69 46.46 162.69 46.46 162.69 51.8 162.69 52.03 161.72 52.03"/>
  <polygon points="158.58 72.46 158.58 72.46 158.58 72.46 151.68 72.46 151.38 72.46 151.38 72.46 151.38 72.46 151.38 73.29 151.38 73.32 151.38 73.32 151.38 73.33 158.58 73.33 158.58 72.51 158.58 72.46"/>
  <polygon points="158.58 .03 158.58 .03 158.58 .03 151.83 .03 151.38 .03 151.38 .03 151.38 .03 151.38 62.89 151.38 65.62 151.38 65.62 151.38 65.63 158.58 65.63 158.58 4.13 158.58 .03"/>
  <polygon points="158.58 70.59 158.58 70.59 158.58 70.58 151.68 70.59 151.38 70.59 151.38 70.59 151.38 70.59 151.38 71.41 151.38 71.45 151.38 71.45 151.38 71.45 158.58 71.45 158.58 70.64 158.58 70.59"/>
  <polygon points="173 13.63 180.2 13.63 180.2 .31 180.2 .03 180.2 .03 180.2 .03 173.45 .03 173 .03 173 .03 173 .03 173 13.63"/>
  <polygon points="209.04 39.63 216.24 39.63 216.24 26.03 209.33 26.03 209.04 26.03 209.04 26.03 209.03 26.03 209.04 39.63"/>
  <polygon points="216.54 46.46 216.24 46.46 216.24 46.46 216.24 46.46 216.24 47.33 223.45 47.33 223.44 46.46 216.54 46.46"/>
  <polygon points="209.04 44.59 209.04 44.59 209.03 44.59 209.04 45.45 216.24 45.45 216.24 44.58 209.33 44.59 209.04 44.59"/>
  <polygon points="216.24 44.59 216.24 44.59 216.24 44.59 216.24 45.45 223.45 45.45 223.44 44.58 216.54 44.59 216.24 44.59"/>
  <polygon points="201.83 39.63 209.03 39.63 209.03 26.03 202.13 26.03 201.83 26.03 201.83 26.03 201.83 26.03 201.83 39.63"/>
  <polygon points="201.83 44.59 201.83 44.59 201.83 44.59 201.83 45.45 209.03 45.45 209.03 44.58 202.13 44.59 201.83 44.59"/>
  <polygon points="216.24 39.63 223.45 39.63 223.44 26.03 216.54 26.03 216.24 26.03 216.24 26.03 216.24 26.03 216.24 39.63"/>
  <polygon points="209.33 46.46 209.04 46.46 209.04 46.46 209.03 46.46 209.04 47.33 216.24 47.33 216.24 46.46 209.33 46.46"/>
  <polygon points="233.92 72.46 233.75 72.46 233.75 66.2 233.75 65.63 234.76 65.62 234.76 71.45 237.86 71.45 237.86 70.58 235.72 70.59 235.63 70.59 235.63 66.04 235.63 65.63 237.86 65.62 237.86 .03 231.1 .03 230.66 .03 230.66 .03 230.65 .03 230.66 65.63 232.89 65.62 232.89 73.33 237.86 73.33 237.86 72.46 233.92 72.46"/>
  <polygon points="252.27 45.45 252.27 44.58 247.51 44.59 247.3 44.59 247.3 44.59 247.3 44.59 247.3 70.58 245.16 70.59 245.07 70.59 245.07 70.59 245.07 70.59 245.07 71.43 245.07 71.45 245.07 71.45 245.07 71.45 248.17 71.45 248.16 47.08 248.16 45.45 252.27 45.45"/>
  <polygon points="252.27 47.32 252.27 46.46 249.3 46.46 249.18 46.46 249.18 46.46 249.17 46.46 249.18 72.46 245.24 72.46 245.07 72.46 245.07 72.46 245.07 72.46 245.07 73.31 245.07 73.32 245.07 73.32 245.07 73.33 250.04 73.33 250.04 48.95 250.04 47.33 252.27 47.32"/>
  <polygon points="245.07 26.03 245.07 26.03 245.07 26.03 245.07 39.34 245.07 39.62 245.07 39.62 245.07 39.63 252.27 39.63 252.27 26.03 250.13 26.03 250.04 26.03 250.04 6.86 250.04 5.59 250.04 5.59 250.04 5.58 245.38 5.59 245.07 5.59 245.07 5.59 245.07 5.59 245.07 6.43 245.07 6.45 245.07 6.45 245.07 6.45 249.17 6.45 249.18 26.03 248.21 26.03 248.17 26.03 248.16 8.62 248.16 7.46 248.16 7.46 248.16 7.46 245.26 7.46 245.07 7.46 245.07 7.46 245.07 7.46 245.07 8.31 245.07 8.32 245.07 8.32 245.07 8.33 247.3 8.32 247.3 26.03 245.16 26.03 245.07 26.03"/>
  <polygon points="223.65 31.59 223.45 31.59 223.45 31.59 223.45 31.59 223.45 32.45 227.55 32.45 227.56 46.46 223.62 46.46 223.45 46.46 223.45 46.46 223.45 46.46 223.45 47.33 228.42 47.33 228.42 31.58 223.65 31.59"/>
  <polygon points="237.86 65.63 245.07 65.63 245.06 .03 238.31 .03 237.86 .03 237.86 .03 237.86 .03 237.86 65.63"/>
  <polygon points="202.13 46.46 201.83 46.46 201.83 46.46 201.83 46.46 201.83 47.33 209.03 47.33 209.03 46.46 202.13 46.46"/>
  <polygon points="238.16 72.46 237.86 72.46 237.86 72.46 237.86 72.46 237.86 73.33 245.07 73.33 245.06 72.46 238.16 72.46"/>
  <polygon points="237.86 70.59 237.86 70.59 237.86 70.59 237.86 71.45 245.07 71.45 245.06 70.58 238.16 70.59 237.86 70.59"/>
  <polygon points="180.21 13.63 187.41 13.63 187.41 .31 187.41 .03 187.41 .03 187.41 .03 180.65 .03 180.21 .03 180.21 .03 180.2 .03 180.21 13.63"/>
  <polygon points="187.71 72.46 187.41 72.46 187.41 72.46 187.41 72.46 187.41 73.33 194.62 73.33 194.62 72.46 187.71 72.46"/>
  <polygon points="187.41 72.46 187.41 72.46 187.41 72.46 180.5 72.46 180.21 72.46 180.21 72.46 180.2 72.46 180.21 73.33 187.41 73.33 187.41 72.48 187.41 72.46"/>
  <polygon points="194.62 71.45 194.62 70.58 187.71 70.59 187.41 70.59 187.41 70.59 187.41 70.59 187.41 71.45 194.62 71.45"/>
  <polygon points="187.41 18.59 187.41 18.58 180.5 18.59 180.21 18.59 180.21 18.59 180.2 18.59 180.21 19.45 187.41 19.45 187.41 18.6 187.41 18.59 187.41 18.59"/>
  <polygon points="187.41 52.31 187.41 52.03 187.41 52.03 187.41 52.03 180.5 52.03 180.21 52.03 180.21 52.03 180.2 52.03 180.21 65.63 187.41 65.63 187.41 52.31"/>
  <polygon points="180.21 21.33 187.41 21.33 187.41 20.48 187.41 20.46 187.41 20.46 187.41 20.46 180.5 20.46 180.21 20.46 180.21 20.46 180.2 20.46 180.21 21.33"/>
  <polygon points="187.41 71.45 187.41 70.6 187.41 70.59 187.41 70.59 187.41 70.58 180.5 70.59 180.21 70.59 180.21 70.59 180.2 70.59 180.21 71.45 187.41 71.45"/>
  <polygon points="194.62 52.03 187.71 52.03 187.41 52.03 187.41 52.03 187.41 52.03 187.41 65.63 194.62 65.63 194.62 52.03"/>
  <polygon points="187.41 21.33 194.62 21.33 194.62 20.46 187.71 20.46 187.41 20.46 187.41 20.46 187.41 20.46 187.41 21.33"/>
  <polygon points="194.92 46.46 194.62 46.46 194.62 46.46 194.62 46.46 194.62 47.33 201.83 47.33 201.82 46.46 194.92 46.46"/>
  <polygon points="201.83 45.45 201.82 44.58 194.92 44.59 194.62 44.59 194.62 44.59 194.62 44.59 194.62 45.45 201.83 45.45"/>
  <polygon points="194.83 57.59 194.62 57.59 194.62 57.59 194.62 57.59 194.62 58.45 198.73 58.45 198.73 71.29 198.73 72.46 194.79 72.46 194.62 72.46 194.62 72.46 194.62 72.46 194.62 73.33 199.59 73.33 199.59 57.58 194.83 57.59"/>
  <polygon points="187.41 13.63 194.62 13.63 194.62 .03 187.86 .03 187.41 .03 187.41 .03 187.41 .03 187.41 13.63"/>
  <polygon points="194.62 26.03 194.62 26.03 194.62 26.03 194.62 39.63 201.83 39.63 201.82 26.03 194.92 26.03 194.62 26.03"/>
  <polygon points="192.38 39.63 194.62 39.62 194.62 26.03 187.71 26.03 187.41 26.03 187.41 26.03 187.41 26.03 187.41 39.63 189.64 39.62 189.65 46.68 189.65 47.32 189.65 47.32 189.65 47.33 194.62 47.33 194.62 46.46 190.68 46.46 190.51 46.46 190.51 39.63 191.52 39.62 191.52 44.96 191.52 45.45 191.52 45.45 191.52 45.45 194.62 45.45 194.62 44.58 192.48 44.59 192.39 44.59 192.38 39.63"/>
  <polygon points="194.62 18.58 187.71 18.59 187.41 18.59 187.41 18.59 187.41 18.59 187.41 19.45 194.62 19.45 194.62 18.58"/>
  <polygon points="338.76 71.45 338.76 71.45 341.86 71.45 341.86 20.46 338.89 20.46 338.76 20.46 338.76 20.46 338.76 20.46 338.76 21.2 338.76 21.32 338.76 21.32 338.76 21.33 340.99 21.32 340.99 70.58 338.85 70.59 338.76 70.59 338.76 70.59 338.76 70.59 338.76 71.32 338.76 71.45 338.76 71.45"/>
  <polygon points="17.71 72.46 17.54 72.46 17.54 65.63 18.55 65.62 18.55 71.45 21.65 71.45 21.65 70.58 19.51 70.59 19.42 70.59 19.41 65.63 21.65 65.62 21.65 39.03 19.51 39.03 19.42 39.03 19.41 5.58 14.75 5.59 14.45 5.59 14.45 5.59 14.44 5.59 14.45 6.45 18.55 6.45 18.55 39.03 17.58 39.03 17.54 39.03 17.54 7.46 14.64 7.46 14.45 7.46 14.45 7.46 14.44 7.46 14.45 8.33 16.67 8.32 16.68 39.03 14.54 39.03 14.45 39.03 14.45 39.03 14.44 39.03 14.45 65.63 16.67 65.62 16.68 73.33 21.65 73.33 21.65 72.46 17.71 72.46"/>
  <polygon points="79.31 71.45 79.31 71.45 82.41 71.45 82.4 7.46 79.5 7.46 79.31 7.46 79.31 7.46 79.31 7.46 79.31 8.31 79.31 8.32 79.31 8.32 79.31 8.33 81.54 8.32 81.54 70.58 79.4 70.59 79.31 70.59 79.31 70.59 79.31 70.59 79.31 71.43 79.31 71.45 79.31 71.45"/>
  <polygon points="28.85 70.59 28.85 70.58 21.95 70.59 21.65 70.59 21.65 70.59 21.65 70.59 21.65 71.45 28.86 71.45 28.85 70.6 28.85 70.59 28.85 70.59"/>
  <polygon points="21.65 52.03 21.65 52.03 21.65 52.03 21.65 65.63 28.86 65.63 28.85 52.31 28.85 52.03 28.85 52.03 28.85 52.03 26.72 52.03 26.62 52.03 26.62 44.58 21.86 44.59 21.65 44.59 21.65 44.59 21.65 44.59 21.65 45.45 25.76 45.45 25.76 52.03 24.79 52.03 24.75 52.03 24.75 46.46 21.78 46.46 21.65 46.46 21.65 46.46 21.65 46.46 21.65 47.33 23.88 47.32 23.88 52.03 21.74 52.03 21.65 52.03"/>
  <polygon points="57.68 47.32 57.68 46.46 54.71 46.46 54.59 46.46 54.59 46.46 54.58 46.46 54.59 59.19 54.59 59.46 50.65 59.46 50.48 59.46 50.48 59.46 50.48 59.46 50.48 60.33 55.45 60.33 55.45 47.6 55.45 47.33 57.68 47.32"/>
  <polygon points="29.16 72.46 28.86 72.46 28.86 72.46 28.86 72.46 28.86 73.33 36.06 73.33 36.06 72.46 29.16 72.46"/>
  <polygon points="5 39.63 7.24 39.62 7.23 .03 .48 .03 .03 .03 .03 .03 .03 .03 .03 39.63 2.26 39.62 2.26 47.33 7.24 47.33 7.23 46.46 3.3 46.46 3.13 46.46 3.12 39.63 4.14 39.62 4.14 45.45 7.24 45.45 7.23 44.58 5.1 44.59 5 44.59 5 39.63"/>
  <polygon points="12.21 52.63 14.44 52.62 14.44 .03 7.69 .03 7.24 .03 7.24 .03 7.24 .03 7.24 52.63 9.47 52.62 9.47 60.33 14.44 60.33 14.44 59.46 10.51 59.46 10.33 59.46 10.33 52.63 11.34 52.62 11.35 58.45 14.44 58.45 14.44 57.58 12.3 57.59 12.21 57.59 12.21 52.63"/>
  <polygon points="28.85 72.46 28.85 72.46 28.85 72.46 21.95 72.46 21.65 72.46 21.65 72.46 21.65 72.46 21.65 73.33 28.86 73.33 28.85 72.48 28.85 72.46"/>
  <polygon points="28.86 70.59 28.86 70.59 28.86 70.59 28.86 71.45 36.06 71.45 36.06 70.58 29.16 70.59 28.86 70.59"/>
  <polygon points="50.47 57.6 50.47 57.59 50.47 57.59 50.47 57.58 45.71 57.59 45.51 57.59 45.51 57.59 45.5 57.59 45.51 70.58 43.36 70.59 43.27 70.59 43.27 70.59 43.27 70.59 43.27 71.45 46.37 71.45 46.37 58.45 50.48 58.45 50.47 57.6"/>
  <polygon points="36.07 65.63 43.27 65.63 43.27 39.03 36.36 39.03 36.07 39.03 36.07 39.03 36.06 39.03 36.07 65.63"/>
  <polygon points="43.27 52.63 50.48 52.63 50.47 1.12 50.47 .03 50.47 .03 50.47 .03 43.72 .03 43.27 .03 43.27 .03 43.27 .03 43.27 52.63"/>
  <polygon points="50.47 59.48 50.47 59.46 50.47 59.46 50.47 59.46 47.51 59.46 47.38 59.46 47.38 59.46 47.38 59.46 47.38 72.46 43.44 72.46 43.27 72.46 43.27 72.46 43.27 72.46 43.27 73.33 48.25 73.33 48.24 60.33 50.48 60.32 50.47 59.48"/>
  <polygon points="28.86 65.63 36.06 65.63 36.06 52.03 29.16 52.03 28.86 52.03 28.86 52.03 28.86 52.03 28.86 65.63"/>
  <polygon points="36.36 72.46 36.07 72.46 36.07 72.46 36.06 72.46 36.07 73.33 43.27 73.33 43.27 72.46 36.36 72.46"/>
  <polygon points="36.07 70.59 36.07 70.59 36.06 70.59 36.07 71.45 43.27 71.45 43.27 70.58 36.36 70.59 36.07 70.59"/>
  <polygon points="57.69 45.45 57.69 45.45 60.78 45.45 60.78 7.46 57.88 7.46 57.69 7.46 57.69 7.46 57.68 7.46 57.69 8.31 57.69 8.32 57.69 8.32 57.69 8.33 59.92 8.32 59.92 44.58 57.78 44.59 57.69 44.59 57.69 44.59 57.68 44.59 57.69 45.43 57.69 45.45 57.69 45.45"/>
  <polygon points="471.58 46.46 471.58 46.46 468.61 46.46 468.49 46.46 468.49 46.46 468.49 46.46 468.49 47.33 470.72 47.32 470.72 56.09 470.72 57.58 468.58 57.59 468.49 57.59 468.49 57.59 468.49 57.59 468.49 58.45 471.58 58.45 471.58 47.46 471.58 46.46 471.58 46.46"/>
  <polygon points="252.57 46.46 252.28 46.46 252.28 46.46 252.27 46.46 252.28 47.31 252.28 47.32 252.28 47.32 252.28 47.33 259.48 47.33 259.48 46.46 252.57 46.46"/>
  <polygon points="413.93 13.03 413.93 7.46 413.93 7.46 413.93 7.46 411.02 7.46 410.83 7.46 410.83 7.46 410.83 7.46 410.83 8.33 413.06 8.32 413.06 66.69 413.06 70.58 410.92 70.59 410.83 70.59 410.83 70.59 410.83 70.59 410.83 71.45 413.93 71.45 413.93 18.12 413.93 13.62 413.93 13.03"/>
  <polygon points="136.97 57.59 136.97 57.59 136.96 57.59 136.97 58.43 136.97 58.45 136.97 58.45 136.97 58.45 140.06 58.45 140.06 46.96 140.06 46.46 140.06 46.46 140.06 46.46 137.09 46.46 136.97 46.46 136.97 46.46 136.96 46.46 136.97 47.31 136.97 47.32 136.97 47.32 136.97 47.33 139.19 47.32 139.2 57.58 137.06 57.59 136.97 57.59"/>
  <polygon points="281.2 18.59 281.11 18.59 281.11 18.59 281.1 18.59 281.11 19.4 281.11 19.45 281.11 19.45 281.11 19.45 284.2 19.45 284.2 7.71 284.2 7.46 284.2 7.46 284.2 7.46 281.3 7.46 281.11 7.46 281.11 7.46 281.1 7.46 281.11 8.27 281.11 8.32 281.11 8.32 281.11 8.33 283.34 8.32 283.34 18.16 283.34 18.58 281.2 18.59"/>
  <polygon points="598.22 70.59 598.22 70.59 598.21 70.59 598.21 71.45 601.31 71.45 601.31 7.46 598.41 7.46 598.22 7.46 598.22 7.46 598.21 7.46 598.21 8.33 600.44 8.32 600.45 70.58 598.31 70.59 598.22 70.59"/>
  <polygon points="526.14 71.45 526.14 71.45 529.24 71.45 529.24 20.46 526.27 20.46 526.14 20.46 526.14 20.46 526.14 20.46 526.14 21.24 526.14 21.32 526.14 21.32 526.14 21.33 528.37 21.32 528.38 70.58 526.23 70.59 526.14 70.59 526.14 70.59 526.14 70.59 526.14 71.36 526.14 71.45 526.14 71.45"/>
  <polygon points="471.58 20.46 471.58 20.46 468.61 20.46 468.49 20.46 468.49 20.46 468.49 20.46 468.49 21.33 470.72 21.32 470.72 30.09 470.72 31.58 468.58 31.59 468.49 31.59 468.49 31.59 468.49 31.59 468.49 32.45 471.58 32.45 471.58 21.46 471.58 20.46 471.58 20.46"/>
  <polygon points="281.2 70.59 281.11 70.59 281.11 70.59 281.1 70.59 281.11 71.4 281.11 71.45 281.11 71.45 281.11 71.45 284.2 71.45 284.2 59.71 284.2 59.46 284.2 59.46 284.2 59.46 281.23 59.46 281.11 59.46 281.11 59.46 281.1 59.46 281.11 60.27 281.11 60.32 281.11 60.32 281.11 60.33 283.34 60.32 283.34 70.16 283.34 70.58 281.2 70.59"/>
  <polygon points="180.21 47.33 185.18 47.33 185.18 31.58 180.41 31.59 180.21 31.59 180.21 31.59 180.2 31.59 180.21 32.45 184.31 32.45 184.31 45.58 184.31 46.46 180.38 46.46 180.21 46.46 180.21 46.46 180.2 46.46 180.21 47.33"/>
  <polygon points="180.3 44.59 180.21 44.59 180.21 44.59 180.2 44.59 180.21 45.45 183.3 45.45 183.3 33.46 180.33 33.46 180.21 33.46 180.21 33.46 180.2 33.46 180.21 34.33 182.44 34.32 182.44 43.94 182.44 44.58 180.3 44.59"/>
  <polygon points="136.97 31.59 136.97 31.59 136.96 31.59 136.97 32.43 136.97 32.45 136.97 32.45 136.97 32.45 140.06 32.45 140.06 20.96 140.06 20.46 140.06 20.46 140.06 20.46 137.09 20.46 136.97 20.46 136.97 20.46 136.96 20.46 136.97 21.31 136.97 21.32 136.97 21.32 136.97 21.33 139.19 21.32 139.2 31.58 137.06 31.59 136.97 31.59"/>
  <polygon points="194.62 6.45 198.73 6.45 198.73 19.29 198.73 20.46 194.79 20.46 194.62 20.46 194.62 20.46 194.62 20.46 194.62 21.33 199.59 21.33 199.59 5.58 194.93 5.59 194.62 5.59 194.62 5.59 194.62 5.59 194.62 6.45"/>
  <polygon points="196.85 8.32 196.85 17.73 196.85 18.58 194.71 18.59 194.62 18.59 194.62 18.59 194.62 18.59 194.62 19.45 197.72 19.45 197.72 7.46 194.81 7.46 194.62 7.46 194.62 7.46 194.62 7.46 194.62 8.33 196.85 8.32"/>
  <polygon points="197.72 71.45 197.72 59.46 194.75 59.46 194.62 59.46 194.62 59.46 194.62 59.46 194.62 60.33 196.85 60.32 196.85 69.73 196.85 70.58 194.71 70.59 194.62 70.59 194.62 70.59 194.62 70.59 194.62 71.45 197.72 71.45"/>
  <polygon points="223.45 44.59 223.45 44.59 223.45 44.59 223.45 45.45 226.55 45.45 226.54 33.46 223.58 33.46 223.45 33.46 223.45 33.46 223.45 33.46 223.45 34.33 225.68 34.32 225.68 44.58 223.54 44.59 223.45 44.59"/>
  <polygon points="108.13 44.59 108.14 45.45 115.34 45.45 115.34 44.58 108.43 44.59 108.14 44.59 108.14 44.59 108.13 44.59"/>
  <polygon points="108.43 72.46 108.14 72.46 108.14 72.46 108.13 72.46 108.14 73.33 115.34 73.33 115.34 72.46 108.43 72.46"/>
  <polygon points="108.13 26.03 108.14 39.63 115.34 39.63 115.34 26.03 108.43 26.03 108.14 26.03 108.14 26.03 108.13 26.03"/>
  <polygon points="115.34 13.63 122.55 13.63 122.55 .03 115.79 .03 115.34 .03 115.34 .03 115.34 .03 115.34 13.63"/>
  <polygon points="108.43 18.59 108.14 18.59 108.14 18.59 108.13 18.59 108.14 19.45 115.34 19.45 115.34 18.58 108.43 18.59"/>
  <polygon points="108.13 20.46 108.14 21.33 115.34 21.33 115.34 20.46 108.43 20.46 108.14 20.46 108.14 20.46 108.13 20.46"/>
  <polygon points="115.34 71.45 115.34 70.58 108.43 70.59 108.14 70.59 108.14 70.59 108.13 70.59 108.14 71.45 115.34 71.45"/>
  <polygon points="108.13 52.03 108.14 65.63 115.34 65.63 115.34 52.03 108.43 52.03 108.14 52.03 108.14 52.03 108.13 52.03"/>
  <polygon points="108.13 46.46 108.14 47.33 115.34 47.33 115.34 46.46 108.43 46.46 108.14 46.46 108.14 46.46 108.13 46.46"/>
  <polygon points="108.14 13.63 115.34 13.63 115.34 .03 108.58 .03 108.14 .03 108.14 .03 108.13 .03 108.14 13.63"/>
  <polygon points="122.55 44.58 115.64 44.59 115.34 44.59 115.34 44.59 115.34 44.59 115.34 45.45 122.55 45.45 122.55 44.58"/>
  <polygon points="122.55 26.03 115.64 26.03 115.34 26.03 115.34 26.03 115.34 26.03 115.34 39.63 122.55 39.63 122.55 26.03"/>
  <polygon points="122.55 20.46 115.64 20.46 115.34 20.46 115.34 20.46 115.34 20.46 115.34 21.33 122.55 21.33 122.55 20.46"/>
  <polygon points="122.55 18.58 115.64 18.59 115.34 18.59 115.34 18.59 115.34 18.59 115.34 19.45 122.55 19.45 122.55 18.58"/>
  <polygon points="115.64 72.46 115.34 72.46 115.34 72.46 115.34 72.46 115.34 73.33 122.55 73.33 122.55 72.46 115.64 72.46"/>
  <polygon points="122.55 71.45 122.55 70.58 115.64 70.59 115.34 70.59 115.34 70.59 115.34 70.59 115.34 71.45 122.55 71.45"/>
  <polygon points="122.55 52.03 115.64 52.03 115.34 52.03 115.34 52.03 115.34 52.03 115.34 65.63 122.55 65.63 122.55 52.03"/>
  <polygon points="115.34 46.46 115.34 46.46 115.34 46.46 115.34 47.33 122.55 47.33 122.55 46.46 115.64 46.46 115.34 46.46"/>
  <polygon points="108.13 71.45 108.13 70.58 101.23 70.59 100.93 70.59 100.93 70.59 100.93 70.59 100.93 71.45 108.13 71.45"/>
  <polygon points="72.1 65.63 79.31 65.63 79.3 .03 72.55 .03 72.1 .03 72.1 .03 72.1 .03 72.1 65.63"/>
  <polygon points="72.1 70.59 72.1 70.59 72.1 70.59 72.1 71.45 79.31 71.45 79.3 70.58 72.4 70.59 72.1 70.59"/>
  <polygon points="100.93 13.63 108.13 13.63 108.13 .03 101.38 .03 100.93 .03 100.93 .03 100.93 .03 100.93 13.63"/>
  <polygon points="72.4 72.46 72.1 72.46 72.1 72.46 72.1 72.46 72.1 73.33 79.31 73.33 79.3 72.46 72.4 72.46"/>
  <polygon points="79.62 5.59 79.31 5.59 79.31 5.59 79.31 5.59 79.31 6.43 79.31 6.45 79.31 6.45 79.31 6.45 83.41 6.45 83.42 72.46 79.48 72.46 79.31 72.46 79.31 72.46 79.31 72.46 79.31 73.31 79.31 73.32 79.31 73.32 79.31 73.33 84.28 73.33 84.28 5.58 79.62 5.59"/>
  <polygon points="50.48 39.63 57.68 39.63 57.68 .03 50.93 .03 50.48 .03 50.48 .03 50.48 .03 50.48 39.63"/>
  <polygon points="72.1 72.46 72.1 72.46 72.1 72.46 68.16 72.46 67.99 72.46 67.99 65.63 69 65.62 69 71.45 72.1 71.45 72.1 70.6 72.1 70.59 72.1 70.59 72.1 70.58 69.96 70.59 69.87 70.59 69.86 65.63 72.1 65.62 72.1 1.39 72.1 .03 72.1 .03 72.1 .03 65.34 .03 64.89 .03 64.89 .03 64.89 .03 64.89 65.63 67.12 65.62 67.13 73.33 72.1 73.33 72.1 72.48 72.1 72.46"/>
  <polygon points="58 5.59 57.69 5.59 57.69 5.59 57.68 5.59 57.69 6.43 57.69 6.45 57.69 6.45 57.69 6.45 61.79 6.45 61.79 46.46 57.86 46.46 57.69 46.46 57.69 46.46 57.68 46.46 57.69 47.31 57.69 47.32 57.69 47.32 57.69 47.33 62.66 47.33 62.66 5.58 58 5.59"/>
  <polygon points="89.78 72.46 89.61 72.46 89.61 65.63 90.62 65.62 90.62 71.45 93.72 71.45 93.72 70.58 91.58 70.59 91.49 70.59 91.48 65.63 93.72 65.62 93.72 .03 86.96 .03 86.52 .03 86.52 .03 86.51 .03 86.52 65.63 88.75 65.62 88.75 73.33 93.72 73.33 93.72 72.46 89.78 72.46"/>
  <polygon points="57.68 45.45 57.68 44.58 52.92 44.59 52.71 44.59 52.71 44.59 52.71 44.59 52.71 57.31 52.71 57.58 50.57 57.59 50.48 57.59 50.48 57.59 50.48 57.59 50.48 58.45 53.58 58.45 53.57 45.72 53.57 45.45 57.68 45.45"/>
  <polygon points="108.13 39.63 108.13 26.03 105.99 26.03 105.9 26.03 105.9 21.33 108.13 21.32 108.13 20.46 105.16 20.46 105.04 20.46 105.04 20.46 105.03 20.46 105.04 26.03 104.07 26.03 104.03 26.03 104.02 19.45 108.13 19.45 108.13 18.58 103.37 18.59 103.16 18.59 103.16 18.59 103.16 18.59 103.16 26.03 101.02 26.03 100.93 26.03 100.93 26.03 100.93 26.03 100.93 39.63 108.13 39.63"/>
  <polygon points="94.02 70.59 93.72 70.59 93.72 70.59 93.72 70.59 93.72 71.45 100.93 71.45 100.92 70.58 94.02 70.59"/>
  <polygon points="94.02 72.46 93.72 72.46 93.72 72.46 93.72 72.46 93.72 73.33 100.93 73.33 100.92 72.46 94.02 72.46"/>
  <polygon points="101.23 72.46 100.93 72.46 100.93 72.46 100.93 72.46 100.93 73.33 108.13 73.33 108.13 72.46 101.23 72.46"/>
  <polygon points="93.72 65.63 100.93 65.63 100.93 54.19 100.93 65.63 108.13 65.63 108.13 52.03 105.99 52.03 105.9 52.03 105.9 47.33 108.13 47.32 108.13 46.46 105.16 46.46 105.04 46.46 105.04 46.46 105.03 46.46 105.04 52.03 104.07 52.03 104.03 52.03 104.02 45.45 108.13 45.45 108.13 44.58 103.37 44.59 103.16 44.59 103.16 44.59 103.16 44.59 103.16 52.03 101.02 52.03 100.93 52.03 100.93 52.03 100.93 52.03 100.92 .03 94.17 .03 93.72 .03 93.72 .03 93.72 .03 93.72 65.63"/>
  <polygon points="161.72 26.03 161.68 26.03 161.68 19.59 161.68 19.45 165.79 19.45 165.79 18.62 165.79 18.59 165.79 18.59 165.79 18.58 161.02 18.59 160.82 18.59 160.82 18.59 160.82 18.59 160.82 25.72 160.82 26.03 158.68 26.03 158.59 26.03 158.59 26.03 158.58 26.03 158.59 38.78 158.59 39.62 158.59 39.62 158.59 39.63 165.79 39.63 165.79 26.59 165.79 26.03 165.79 26.03 165.79 26.03 163.65 26.03 163.56 26.03 163.55 21.42 163.55 21.33 165.79 21.32 165.79 20.49 165.79 20.46 165.79 20.46 165.79 20.46 162.82 20.46 162.69 20.46 162.69 20.46 162.69 20.46 162.69 25.8 162.69 26.03 161.72 26.03"/>
  <polygon points="473.46 18.59 473.46 18.59 473.46 18.58 468.69 18.59 468.49 18.59 468.49 18.59 468.49 18.59 468.49 19.45 472.59 19.45 472.6 31.41 472.6 33.46 468.66 33.46 468.49 33.46 468.49 33.46 468.49 33.46 468.49 34.33 473.46 34.33 473.46 19.89 473.46 18.59"/>
  <polygon points="439.66 47.33 446.86 47.33 446.86 46.46 439.96 46.46 439.66 46.46 439.66 46.46 439.66 46.46 439.66 47.33"/>
  <polygon points="473.46 44.59 473.46 44.59 473.46 44.58 468.69 44.59 468.49 44.59 468.49 44.59 468.49 44.59 468.49 45.45 472.59 45.45 472.6 57.41 472.6 59.46 468.66 59.46 468.49 59.46 468.49 59.46 468.49 59.46 468.49 60.33 473.46 60.33 473.46 45.89 473.46 44.59"/>
  <polygon points="478.96 72.46 478.79 72.46 478.79 66.05 478.79 65.63 479.8 65.62 479.8 70.48 479.8 71.45 479.8 71.45 479.8 71.45 482.9 71.45 482.9 70.58 480.76 70.59 480.67 70.59 480.66 65.94 480.66 65.63 482.9 65.62 482.9 13.03 475.99 13.03 475.7 13.03 475.7 13.03 475.69 13.03 475.7 64.53 475.7 65.62 475.7 65.62 475.7 65.63 477.92 65.62 477.93 72.04 477.93 73.32 477.93 73.32 477.93 73.33 482.9 73.33 482.9 72.46 478.96 72.46"/>
  <polygon points="252.57 44.59 252.28 44.59 252.28 44.59 252.27 44.59 252.28 45.43 252.28 45.45 252.28 45.45 252.28 45.45 259.48 45.45 259.48 44.58 252.57 44.59"/>
  <polygon points="468.49 60.32 468.48 59.46 465.51 59.46 465.39 59.46 465.39 59.46 465.39 59.46 465.39 70.56 465.39 72.46 461.45 72.46 461.28 72.46 461.28 72.46 461.28 72.46 461.28 73.33 466.25 73.33 466.25 61.41 466.25 60.33 468.49 60.32"/>
  <polygon points="468.49 58.45 468.48 57.58 463.72 57.59 463.51 57.59 463.51 57.59 463.51 57.59 463.51 68.69 463.51 70.58 461.37 70.59 461.28 70.59 461.28 70.59 461.28 70.59 461.28 71.45 464.38 71.45 464.38 59.53 464.38 58.45 468.49 58.45"/>
  <polygon points="468.49 52.63 468.48 39.03 466.35 39.03 466.25 39.03 466.25 34.72 466.25 34.33 468.49 34.32 468.48 33.46 465.51 33.46 465.39 33.46 465.39 33.46 465.39 33.46 465.39 38.22 465.39 39.03 464.42 39.03 464.38 39.03 464.38 33 464.38 32.45 468.49 32.45 468.48 31.58 463.72 31.59 463.51 31.59 463.51 31.59 463.51 31.59 463.51 37.94 463.51 39.03 461.37 39.03 461.28 39.03 461.28 39.03 461.28 39.03 461.28 52.63 468.49 52.63"/>
  <polygon points="482.9 64.26 482.9 65.62 482.9 65.62 482.9 65.63 490.11 65.63 490.1 .03 483.35 .03 482.9 .03 482.9 .03 482.9 .03 482.9 64.26"/>
  <polygon points="490.11 13.06 490.11 13.62 490.11 13.62 490.11 13.63 497.31 13.63 497.31 .03 490.56 .03 490.11 .03 490.11 .03 490.11 .03 490.11 13.06"/>
  <polygon points="497.61 46.46 497.32 46.46 497.32 46.46 497.31 46.46 497.32 47.29 497.32 47.32 497.32 47.32 497.32 47.33 504.52 47.33 504.52 46.46 497.61 46.46"/>
  <polygon points="497.32 45.45 497.32 45.45 504.52 45.45 504.52 44.58 497.61 44.59 497.32 44.59 497.32 44.59 497.31 44.59 497.32 45.41 497.32 45.45 497.32 45.45"/>
  <polygon points="490.11 39.62 490.11 39.62 490.11 39.63 497.31 39.63 497.31 26.03 495.17 26.03 495.08 26.03 495.08 21.52 495.08 21.33 497.31 21.32 497.31 20.46 494.34 20.46 494.22 20.46 494.22 20.46 494.21 20.46 494.22 26.03 493.25 26.03 493.21 26.03 493.2 19.72 493.2 19.45 497.31 19.45 497.31 18.58 492.55 18.59 492.34 18.59 492.34 18.59 492.34 18.59 492.34 26.03 490.2 26.03 490.11 26.03 490.11 26.03 490.11 26.03 490.11 39.06 490.11 39.62"/>
  <polygon points="504.52 26.03 497.61 26.03 497.32 26.03 497.32 26.03 497.31 26.03 497.32 39.06 497.32 39.62 497.32 39.62 497.32 39.63 504.52 39.63 504.52 26.03"/>
  <polygon points="482.9 71.45 482.9 71.45 490.11 71.45 490.1 70.58 483.2 70.59 482.9 70.59 482.9 70.59 482.9 70.59 482.9 71.43 482.9 71.45 482.9 71.45"/>
  <polygon points="497.31 45.45 497.31 44.58 492.55 44.59 492.34 44.59 492.34 44.59 492.34 44.59 492.34 70.58 490.2 70.59 490.11 70.59 490.11 70.59 490.11 70.59 490.11 71.41 490.11 71.45 490.11 71.45 490.11 71.45 493.21 71.45 493.2 46.53 493.2 45.45 497.31 45.45"/>
  <polygon points="497.31 47.32 497.31 46.46 494.34 46.46 494.22 46.46 494.22 46.46 494.21 46.46 494.22 72.46 490.28 72.46 490.11 72.46 490.11 72.46 490.11 72.46 490.11 73.29 490.11 73.32 490.11 73.32 490.11 73.33 495.08 73.33 495.08 48.41 495.08 47.33 497.31 47.32"/>
  <polygon points="454.07 65.63 461.28 65.63 461.28 .03 454.52 .03 454.07 .03 454.07 .03 454.07 .03 454.07 65.63"/>
  <polygon points="439.96 18.59 439.66 18.59 439.66 18.59 439.66 18.59 439.66 19.45 446.86 19.45 446.86 18.58 439.96 18.59"/>
  <polygon points="447.16 72.46 446.87 72.46 446.87 72.46 446.86 72.46 446.87 73.33 454.07 73.33 454.07 72.46 447.16 72.46"/>
  <polygon points="454.07 52.03 447.16 52.03 446.87 52.03 446.87 52.03 446.86 52.03 446.87 65.63 454.07 65.63 454.07 52.03"/>
  <polygon points="454.07 71.45 454.07 70.58 447.16 70.59 446.87 70.59 446.87 70.59 446.86 70.59 446.87 71.45 454.07 71.45"/>
  <polygon points="439.66 13.63 446.86 13.63 446.86 .03 440.11 .03 439.66 .03 439.66 .03 439.66 .03 439.66 13.63"/>
  <polygon points="439.66 45.45 446.86 45.45 446.86 44.58 439.96 44.59 439.66 44.59 439.66 44.59 439.66 44.59 439.66 45.45"/>
  <polygon points="439.66 21.33 446.86 21.33 446.86 20.46 439.96 20.46 439.66 20.46 439.66 20.46 439.66 20.46 439.66 21.33"/>
  <polygon points="439.66 39.63 446.86 39.63 446.86 26.03 439.96 26.03 439.66 26.03 439.66 26.03 439.66 26.03 439.66 39.63"/>
  <polygon points="446.87 46.46 446.87 46.46 446.86 46.46 446.87 47.33 454.07 47.33 454.07 46.46 447.16 46.46 446.87 46.46"/>
  <polygon points="446.87 13.63 454.07 13.63 454.07 .03 447.31 .03 446.87 .03 446.87 .03 446.86 .03 446.87 13.63"/>
  <polygon points="461.28 71.45 461.28 70.58 454.37 70.59 454.07 70.59 454.07 70.59 454.07 70.59 454.07 71.45 461.28 71.45"/>
  <polygon points="454.07 18.58 447.16 18.59 446.87 18.59 446.87 18.59 446.86 18.59 446.87 19.45 454.07 19.45 454.07 18.58"/>
  <polygon points="454.37 72.46 454.07 72.46 454.07 72.46 454.07 72.46 454.07 73.33 461.28 73.33 461.28 72.46 454.37 72.46"/>
  <polygon points="446.87 21.33 454.07 21.33 454.07 20.46 447.16 20.46 446.87 20.46 446.87 20.46 446.86 20.46 446.87 21.33"/>
  <polygon points="454.07 44.58 447.16 44.59 446.87 44.59 446.87 44.59 446.86 44.59 446.87 45.45 454.07 45.45 454.07 44.58"/>
  <polygon points="454.07 26.03 447.16 26.03 446.87 26.03 446.87 26.03 446.86 26.03 446.87 39.63 454.07 39.63 454.07 26.03"/>
  <polygon points="483.2 72.46 482.9 72.46 482.9 72.46 482.9 72.46 482.9 73.31 482.9 73.32 482.9 73.32 482.9 73.33 490.11 73.33 490.1 72.46 483.2 72.46"/>
  <polygon points="576.59 71.45 576.59 71.45 583.8 71.45 583.8 70.67 583.8 70.59 583.79 70.59 583.79 70.58 576.89 70.59 576.59 70.59 576.59 70.59 576.59 70.59 576.59 71.31 576.59 71.45 576.59 71.45"/>
  <polygon points="559.94 39.63 562.18 39.62 562.17 16.91 562.17 13.03 562.17 13.03 562.17 13.03 560.04 13.03 559.94 13.03 559.94 5.58 555.28 5.59 554.97 5.59 554.97 5.59 554.97 5.59 554.97 6.32 554.97 6.45 554.97 6.45 554.97 6.45 559.08 6.45 559.08 13.03 558.11 13.03 558.07 13.03 558.07 7.46 555.16 7.46 554.97 7.46 554.97 7.46 554.97 7.46 554.97 8.2 554.97 8.32 554.97 8.32 554.97 8.33 557.2 8.32 557.21 13.03 555.06 13.03 554.97 13.03 554.97 13.03 554.97 13.03 554.97 35.75 554.97 39.62 554.97 39.62 554.97 39.63 557.2 39.62 557.21 47.33 562.18 47.33 562.17 46.58 562.17 46.46 562.17 46.46 562.17 46.46 558.24 46.46 558.07 46.46 558.07 39.63 559.08 39.62 559.08 45.45 562.18 45.45 562.17 44.71 562.17 44.59 562.17 44.59 562.17 44.58 560.04 44.59 559.94 44.59 559.94 39.63"/>
  <polygon points="540.56 57.43 540.56 65.62 540.56 65.62 540.56 65.63 547.76 65.63 547.76 10.96 547.76 .03 547.76 .03 547.76 .03 541.01 .03 540.56 .03 540.56 .03 540.56 .03 540.56 57.43"/>
  <polygon points="583.8 72.46 583.79 72.46 583.79 72.46 576.89 72.46 576.59 72.46 576.59 72.46 576.59 72.46 576.59 73.18 576.59 73.32 576.59 73.32 576.59 73.33 583.8 73.33 583.8 72.55 583.8 72.46"/>
  <polygon points="567.15 52.63 569.38 52.62 569.38 29.35 569.38 26.03 569.38 26.03 569.38 26.03 567.24 26.03 567.15 26.03 567.15 18.58 562.38 18.59 562.18 18.59 562.18 18.59 562.18 18.59 562.18 19.32 562.18 19.45 562.18 19.45 562.18 19.45 566.28 19.45 566.29 26.03 565.32 26.03 565.28 26.03 565.27 20.46 562.31 20.46 562.18 20.46 562.18 20.46 562.18 20.46 562.18 21.2 562.18 21.32 562.18 21.32 562.18 21.33 564.41 21.32 564.41 26.03 562.27 26.03 562.18 26.03 562.18 26.03 562.18 26.03 562.18 48.75 562.18 52.62 562.18 52.62 562.18 52.63 564.41 52.62 564.41 60.33 569.38 60.33 569.38 59.57 569.38 59.46 569.38 59.46 569.38 59.46 565.45 59.46 565.28 59.46 565.27 52.63 566.28 52.62 566.29 58.45 569.38 58.45 569.38 57.69 569.38 57.59 569.38 57.59 569.38 57.58 567.24 57.59 567.15 57.59 567.15 52.63"/>
  <polygon points="554.97 .03 554.97 .03 554.97 .03 548.21 .03 547.77 .03 547.77 .03 547.76 .03 547.77 23.3 547.77 26.62 547.77 26.62 547.77 26.63 554.97 26.63 554.97 3.91 554.97 .03"/>
  <polygon points="554.97 33.58 554.97 33.46 554.97 33.46 554.97 33.46 552 33.46 551.87 33.46 551.87 33.46 551.87 33.46 551.87 72.46 547.93 72.46 547.77 72.46 547.77 72.46 547.76 72.46 547.77 73.22 547.77 73.32 547.77 73.32 547.77 73.33 552.74 73.33 552.73 34.33 554.97 34.32 554.97 33.58"/>
  <polygon points="554.97 31.59 554.97 31.59 554.97 31.58 550.2 31.59 550 31.59 550 31.59 550 31.59 550 70.58 547.86 70.59 547.77 70.59 547.77 70.59 547.76 70.59 547.77 71.34 547.77 71.45 547.77 71.45 547.77 71.45 550.86 71.45 550.86 32.45 554.97 32.45 554.97 31.71 554.97 31.59"/>
  <polygon points="576.59 72.46 576.59 72.46 576.59 72.46 572.65 72.46 572.48 72.46 572.48 65.63 573.49 65.62 573.49 71.45 576.59 71.45 576.59 70.69 576.59 70.59 576.59 70.59 576.59 70.58 574.45 70.59 574.36 70.59 574.36 65.63 576.59 65.62 576.59 42.35 576.59 39.03 576.59 39.03 576.59 39.03 574.45 39.03 574.36 39.03 574.36 31.58 569.59 31.59 569.39 31.59 569.39 31.59 569.38 31.59 569.39 32.31 569.39 32.45 569.39 32.45 569.39 32.45 573.49 32.45 573.49 39.03 572.53 39.03 572.48 39.03 572.48 33.46 569.51 33.46 569.39 33.46 569.39 33.46 569.38 33.46 569.39 34.18 569.39 34.32 569.39 34.32 569.39 34.33 571.62 34.32 571.62 39.03 569.48 39.03 569.39 39.03 569.39 39.03 569.38 39.03 569.39 61.2 569.39 65.62 569.39 65.62 569.39 65.63 571.62 65.62 571.62 73.33 576.59 73.33 576.59 72.57 576.59 72.46"/>
  <polygon points="591.01 65.63 598.21 65.63 598.21 5.49 598.21 .03 598.21 .03 598.21 .03 591.46 .03 591.01 .03 591.01 .03 591 .03 591.01 65.63"/>
  <polygon points="598.21 72.46 598.21 72.46 598.21 72.46 591.31 72.46 591.01 72.46 591.01 72.46 591 72.46 591.01 73.33 598.21 73.33 598.21 72.53 598.21 72.46"/>
  <polygon points="598.21 70.59 598.21 70.58 591.31 70.59 591.01 70.59 591.01 70.59 591 70.59 591.01 71.45 598.21 71.45 598.21 70.66 598.21 70.59 598.21 70.59"/>
  <polygon points="603.18 5.58 598.52 5.59 598.22 5.59 598.22 5.59 598.21 5.59 598.21 6.45 602.32 6.45 602.32 72.46 598.38 72.46 598.22 72.46 598.22 72.46 598.21 72.46 598.21 73.33 603.19 73.33 603.18 5.58"/>
  <polygon points="591 72.46 591 72.46 591 72.46 584.1 72.46 583.8 72.46 583.8 72.46 583.8 72.46 583.8 73.33 591 73.33 591 72.55 591 72.46"/>
  <polygon points="583.8 65.63 591 65.63 591 6.86 591 .03 591 .03 591 .03 584.25 .03 583.8 .03 583.8 .03 583.8 .03 583.8 65.63"/>
  <polygon points="504.52 20.46 497.61 20.46 497.32 20.46 497.32 20.46 497.31 20.46 497.32 21.29 497.32 21.32 497.32 21.32 497.32 21.33 504.52 21.33 504.52 20.46"/>
  <polygon points="591 70.59 591 70.58 584.1 70.59 583.8 70.59 583.8 70.59 583.8 70.59 583.8 71.45 591 71.45 591 70.67 591 70.59 591 70.59"/>
  <polygon points="576.59 52.03 576.59 52.03 576.59 52.03 576.59 63.36 576.59 65.62 576.59 65.62 576.59 65.63 583.8 65.63 583.8 53.44 583.8 52.03 583.79 52.03 583.79 52.03 581.66 52.03 581.57 52.03 581.56 44.58 576.8 44.59 576.59 44.59 576.59 44.59 576.59 44.59 576.59 45.31 576.59 45.45 576.59 45.45 576.59 45.45 580.7 45.45 580.7 52.03 579.73 52.03 579.69 52.03 579.69 46.46 576.72 46.46 576.59 46.46 576.59 46.46 576.59 46.46 576.59 47.18 576.59 47.32 576.59 47.32 576.59 47.33 578.82 47.32 578.83 52.03 576.68 52.03 576.59 52.03"/>
  <polygon points="540.56 71.45 540.56 71.45 547.76 71.45 547.76 70.73 547.76 70.59 547.76 70.59 547.76 70.58 540.86 70.59 540.56 70.59 540.56 70.59 540.56 70.59 540.56 71.34 540.56 71.45 540.56 71.45"/>
  <polygon points="504.82 26.03 504.52 26.03 504.52 26.03 504.52 26.03 504.52 38.78 504.52 39.62 504.52 39.62 504.52 39.63 511.73 39.63 511.72 26.03 504.82 26.03"/>
  <polygon points="504.82 18.59 504.52 18.59 504.52 18.59 504.52 18.59 504.52 19.4 504.52 19.45 504.52 19.45 504.52 19.45 511.73 19.45 511.72 18.58 504.82 18.59"/>
  <polygon points="504.82 44.59 504.52 44.59 504.52 44.59 504.52 44.59 504.52 45.4 504.52 45.45 504.52 45.45 504.52 45.45 511.73 45.45 511.72 44.58 504.82 44.59"/>
  <polygon points="497.32 13.06 497.32 13.62 497.32 13.62 497.32 13.63 504.52 13.63 504.52 .03 497.76 .03 497.32 .03 497.32 .03 497.31 .03 497.32 13.06"/>
  <polygon points="504.52 18.58 497.61 18.59 497.32 18.59 497.32 18.59 497.31 18.59 497.32 19.41 497.32 19.45 497.32 19.45 497.32 19.45 504.52 19.45 504.52 18.58"/>
  <polygon points="504.82 46.46 504.52 46.46 504.52 46.46 504.52 46.46 504.52 47.27 504.52 47.32 504.52 47.32 504.52 47.33 511.73 47.33 511.72 46.46 504.82 46.46"/>
  <polygon points="504.97 .03 504.52 .03 504.52 .03 504.52 .03 504.52 12.78 504.52 13.62 504.52 13.62 504.52 13.63 511.73 13.63 511.72 .03 504.97 .03"/>
  <polygon points="504.82 20.46 504.52 20.46 504.52 20.46 504.52 20.46 504.52 21.27 504.52 21.32 504.52 21.32 504.52 21.33 511.73 21.33 511.72 20.46 504.82 20.46"/>
  <polygon points="536.62 72.46 536.45 72.46 536.45 65.63 537.46 65.62 537.46 71.45 540.56 71.45 540.55 70.58 538.42 70.59 538.32 70.59 538.32 65.63 540.56 65.62 540.55 .03 533.8 .03 533.35 .03 533.35 .03 533.35 .03 533.35 58.79 533.35 65.62 533.35 65.62 533.35 65.63 535.58 65.62 535.58 73.33 540.56 73.33 540.55 72.46 536.62 72.46"/>
  <polygon points="547.76 72.46 547.76 72.46 547.76 72.46 540.86 72.46 540.56 72.46 540.56 72.46 540.56 72.46 540.56 73.22 540.56 73.32 540.56 73.32 540.56 73.33 547.76 73.33 547.76 72.6 547.76 72.46"/>
  <polygon points="526.35 18.59 526.14 18.59 526.14 18.59 526.14 18.59 526.14 19.36 526.14 19.45 526.14 19.45 526.14 19.45 530.25 19.45 530.25 72.46 526.31 72.46 526.14 72.46 526.14 72.46 526.14 72.46 526.14 73.24 526.14 73.32 526.14 73.32 526.14 73.33 531.12 73.33 531.11 18.58 526.35 18.59"/>
  <polygon points="518.94 71.45 518.94 71.45 526.14 71.45 526.14 70.58 519.23 70.59 518.94 70.59 518.94 70.59 518.93 70.59 518.94 71.38 518.94 71.45 518.94 71.45"/>
  <polygon points="519.23 72.46 518.94 72.46 518.94 72.46 518.93 72.46 518.94 73.25 518.94 73.32 518.94 73.32 518.94 73.33 526.14 73.33 526.14 72.46 519.23 72.46"/>
  <polygon points="518.94 13.03 518.94 13.03 518.93 13.03 518.94 61.24 518.94 65.62 518.94 65.62 518.94 65.63 526.14 65.63 526.14 13.03 524 13.03 523.91 13.03 523.91 5.58 519.25 5.59 518.94 5.59 518.94 5.59 518.93 5.59 518.94 6.38 518.94 6.45 518.94 6.45 518.94 6.45 523.04 6.45 523.04 13.03 522.08 13.03 522.03 13.03 522.03 7.46 519.13 7.46 518.94 7.46 518.94 7.46 518.93 7.46 518.94 8.25 518.94 8.32 518.94 8.32 518.94 8.33 521.17 8.32 521.17 13.03 519.03 13.03 518.94 13.03"/>
  <polygon points="515 72.46 514.83 72.46 514.82 65.77 514.82 65.63 515.83 65.62 515.84 71.45 518.93 71.45 518.93 70.58 516.8 70.59 516.7 70.59 516.7 65.73 516.7 65.63 518.93 65.62 518.93 .03 512.18 .03 511.73 .03 511.73 .03 511.73 .03 511.73 61.53 511.73 65.62 511.73 65.62 511.73 65.63 513.96 65.62 513.96 73.33 518.93 73.33 518.93 72.46 515 72.46"/>
  <polygon points="461.37 13.03 461.28 13.03 461.28 13.03 461.28 13.03 461.28 26.63 468.49 26.63 468.48 13.03 466.35 13.03 466.25 13.03 466.25 6.2 466.25 5.59 466.25 5.59 466.25 5.58 461.59 5.59 461.28 5.59 461.28 5.59 461.28 5.59 461.28 6.45 465.39 6.45 465.39 12.07 465.39 13.03 464.42 13.03 464.38 13.03 464.38 7.92 464.38 7.46 464.38 7.46 464.38 7.46 461.47 7.46 461.28 7.46 461.28 7.46 461.28 7.46 461.28 8.33 463.51 8.32 463.51 12.34 463.51 13.03 461.37 13.03"/>
  <polygon points="309.93 45.45 309.93 45.45 317.14 45.45 317.14 44.73 317.14 44.59 317.13 44.59 317.13 44.58 310.23 44.59 309.93 44.59 309.93 44.59 309.93 44.59 309.93 45.36 309.93 45.45 309.93 45.45"/>
  <polygon points="317.14 28.29 317.14 26.03 317.13 26.03 317.13 26.03 310.23 26.03 309.93 26.03 309.93 26.03 309.93 26.03 309.93 38.21 309.93 39.62 309.93 39.62 309.93 39.63 317.14 39.63 317.14 28.29"/>
  <polygon points="317.14 46.46 317.13 46.46 317.13 46.46 310.23 46.46 309.93 46.46 309.93 46.46 309.93 46.46 309.93 47.24 309.93 47.32 309.93 47.32 309.93 47.33 317.14 47.33 317.14 46.6 317.14 46.46"/>
  <polygon points="317.14 18.73 317.14 18.59 317.13 18.59 317.13 18.58 310.23 18.59 309.93 18.59 309.93 18.59 309.93 18.59 309.93 19.36 309.93 19.45 309.93 19.45 309.93 19.45 317.14 19.45 317.14 18.73"/>
  <polygon points="317.14 20.6 317.14 20.46 317.13 20.46 317.13 20.46 310.23 20.46 309.93 20.46 309.93 20.46 309.93 20.46 309.93 21.24 309.93 21.32 309.93 21.32 309.93 21.33 317.14 21.33 317.14 20.6"/>
  <polygon points="309.93 44.58 305.16 44.59 304.96 44.59 304.96 44.59 304.96 44.59 304.96 70.58 302.82 70.59 302.73 70.59 302.73 70.59 302.72 70.59 302.73 71.45 305.82 71.45 305.82 45.45 309.93 45.45 309.93 44.58"/>
  <polygon points="309.93 46.46 306.96 46.46 306.83 46.46 306.83 46.46 306.83 46.46 306.83 72.46 302.89 72.46 302.73 72.46 302.73 72.46 302.72 72.46 302.73 73.33 307.7 73.33 307.7 47.33 309.93 47.32 309.93 46.46"/>
  <polygon points="309.93 39.63 309.93 26.03 307.79 26.03 307.7 26.03 307.7 21.33 309.93 21.32 309.93 20.46 306.96 20.46 306.83 20.46 306.83 20.46 306.83 20.46 306.83 26.03 305.87 26.03 305.82 26.03 305.82 19.45 309.93 19.45 309.93 18.58 305.16 18.59 304.96 18.59 304.96 18.59 304.96 18.59 304.96 26.03 302.82 26.03 302.73 26.03 302.73 26.03 302.72 26.03 302.73 39.63 309.93 39.63"/>
  <polygon points="302.73 13.63 309.93 13.63 309.93 .03 303.17 .03 302.73 .03 302.73 .03 302.72 .03 302.73 13.63"/>
  <polygon points="324.34 18.59 324.34 18.59 324.34 18.58 317.44 18.59 317.14 18.59 317.14 18.59 317.14 18.59 317.14 19.34 317.14 19.45 317.14 19.45 317.14 19.45 324.34 19.45 324.34 18.73 324.34 18.59"/>
  <polygon points="324.34 .03 324.34 .03 324.34 .03 317.59 .03 317.14 .03 317.14 .03 317.14 .03 317.14 11.93 317.14 13.62 317.14 13.62 317.14 13.63 324.34 13.63 324.34 2.29 324.34 .03"/>
  <polygon points="324.34 20.46 324.34 20.46 324.34 20.46 317.44 20.46 317.14 20.46 317.14 20.46 317.14 20.46 317.14 21.22 317.14 21.32 317.14 21.32 317.14 21.33 324.34 21.33 324.34 20.6 324.34 20.46"/>
  <polygon points="331.55 72.46 331.55 72.46 331.55 72.46 327.62 72.46 327.44 72.46 327.44 65.63 328.45 65.62 328.46 71.45 331.55 71.45 331.55 70.71 331.55 70.59 331.55 70.59 331.55 70.58 329.41 70.59 329.32 70.59 329.32 65.63 331.55 65.62 331.55 9.59 331.55 .03 331.55 .03 331.55 .03 324.79 .03 324.35 .03 324.35 .03 324.34 .03 324.35 57.43 324.35 65.62 324.35 65.62 324.35 65.63 326.58 65.62 326.58 73.33 331.55 73.33 331.55 72.58 331.55 72.46"/>
  <polygon points="324.34 44.59 324.34 44.59 324.34 44.58 317.44 44.59 317.14 44.59 317.14 44.59 317.14 44.59 317.14 45.34 317.14 45.45 317.14 45.45 317.14 45.45 324.34 45.45 324.34 44.73 324.34 44.59"/>
  <polygon points="446.86 52.03 439.96 52.03 439.66 52.03 439.66 52.03 439.66 52.03 439.66 65.63 446.86 65.63 446.86 52.03"/>
  <polygon points="324.34 46.46 324.34 46.46 324.34 46.46 317.44 46.46 317.14 46.46 317.14 46.46 317.14 46.46 317.14 47.22 317.14 47.32 317.14 47.32 317.14 47.33 324.34 47.33 324.34 46.6 324.34 46.46"/>
  <polygon points="309.93 12.21 309.93 13.62 309.93 13.62 309.93 13.63 317.14 13.63 317.14 2.29 317.14 .03 317.13 .03 317.13 .03 310.38 .03 309.93 .03 309.93 .03 309.93 .03 309.93 12.21"/>
  <polygon points="281.1 72.46 281.1 72.46 281.1 72.46 274.2 72.46 273.9 72.46 273.9 72.46 273.9 72.46 273.9 73.27 273.9 73.32 273.9 73.32 273.9 73.33 281.1 73.33 281.1 72.49 281.1 72.46"/>
  <polygon points="281.1 70.59 281.1 70.59 281.1 70.58 274.2 70.59 273.9 70.59 273.9 70.59 273.9 70.59 273.9 71.4 273.9 71.45 273.9 71.45 273.9 71.45 281.1 71.45 281.1 70.62 281.1 70.59"/>
  <polygon points="338.76 72.46 338.76 72.46 338.76 72.46 331.85 72.46 331.55 72.46 331.55 72.46 331.55 72.46 331.55 73.2 331.55 73.32 331.55 73.32 331.55 73.33 338.76 73.33 338.76 72.58 338.76 72.46"/>
  <polygon points="281.1 52.03 281.1 52.03 281.1 52.03 278.96 52.03 278.87 52.03 278.87 44.74 278.87 44.59 278.87 44.59 278.87 44.58 274.1 44.59 273.9 44.59 273.9 44.59 273.9 44.59 273.9 45.4 273.9 45.45 273.9 45.45 273.9 45.45 278 45.45 278.01 51.89 278.01 52.03 277.04 52.03 277 52.03 276.99 46.57 276.99 46.46 276.99 46.46 276.99 46.46 274.02 46.46 273.9 46.46 273.9 46.46 273.9 46.46 273.9 47.27 273.9 47.32 273.9 47.32 273.9 47.33 276.13 47.32 276.13 51.93 276.13 52.03 273.99 52.03 273.9 52.03 273.9 52.03 273.9 52.03 273.9 64.78 273.9 65.62 273.9 65.62 273.9 65.63 281.1 65.63 281.1 52.59 281.1 52.03"/>
  <polygon points="281.1 20.46 281.1 20.46 281.1 20.46 278.13 20.46 278.01 20.46 278.01 20.46 278 20.46 278.01 33.19 278.01 33.46 274.07 33.46 273.9 33.46 273.9 33.46 273.9 33.46 273.9 34.27 273.9 34.32 273.9 34.32 273.9 34.33 278.87 34.33 278.87 21.6 278.87 21.33 281.1 21.32 281.1 20.49 281.1 20.46"/>
  <polygon points="273.89 .03 273.89 .03 273.89 .03 267.14 .03 266.69 .03 266.69 .03 266.69 .03 266.69 25.52 266.69 26.62 266.69 26.62 266.69 26.63 273.9 26.63 273.89 1.69 273.89 .03"/>
  <polygon points="252.57 26.03 252.28 26.03 252.28 26.03 252.27 26.03 252.28 39.34 252.28 39.62 252.28 39.62 252.28 39.63 259.48 39.63 259.48 26.03 252.57 26.03"/>
  <polygon points="295.52 60.16 295.52 65.62 295.52 65.62 295.52 65.63 302.72 65.63 302.72 1.39 302.72 .03 302.72 .03 302.72 .03 295.97 .03 295.52 .03 295.52 .03 295.52 .03 295.52 60.16"/>
  <polygon points="266.69 13.03 266.69 13.03 266.69 13.03 259.78 13.03 259.48 13.03 259.48 13.03 259.48 13.03 259.48 50.98 259.48 52.62 259.48 52.62 259.48 52.63 266.69 52.63 266.69 15.5 266.69 13.03"/>
  <polygon points="269.83 39.03 269.79 39.03 269.79 32.72 269.79 32.45 273.9 32.45 273.89 31.64 273.89 31.59 273.89 31.59 273.89 31.58 269.13 31.59 268.92 31.59 268.92 31.59 268.92 31.59 268.92 38.87 268.92 39.03 266.78 39.03 266.69 39.03 266.69 39.03 266.69 39.03 266.69 64.52 266.69 65.62 266.69 65.62 266.69 65.63 268.92 65.62 268.92 73.16 268.92 73.32 268.92 73.32 268.92 73.33 273.9 73.33 273.89 72.51 273.89 72.46 273.89 72.46 273.89 72.46 269.96 72.46 269.79 72.46 269.79 65.91 269.79 65.63 270.8 65.62 270.8 71.33 270.8 71.45 270.8 71.45 270.8 71.45 273.9 71.45 273.89 70.64 273.89 70.59 273.89 70.59 273.89 70.58 271.76 70.59 271.66 70.59 271.66 65.83 271.66 65.63 273.9 65.62 273.89 40.69 273.89 39.03 273.89 39.03 273.89 39.03 271.76 39.03 271.66 39.03 271.66 34.52 271.66 34.33 273.9 34.32 273.89 33.51 273.89 33.46 273.89 33.46 273.89 33.46 270.93 33.46 270.8 33.46 270.8 33.46 270.8 33.46 270.8 38.91 270.8 39.03 269.83 39.03"/>
  <polygon points="302.72 72.46 302.72 72.46 302.72 72.46 295.82 72.46 295.52 72.46 295.52 72.46 295.52 72.46 295.52 73.25 295.52 73.32 295.52 73.32 295.52 73.33 302.72 73.33 302.72 72.48 302.72 72.46"/>
  <polygon points="281.1 18.59 281.1 18.59 281.1 18.58 276.34 18.59 276.13 18.59 276.13 18.59 276.13 18.59 276.13 31.31 276.13 31.58 273.99 31.59 273.9 31.59 273.9 31.59 273.9 31.59 273.9 32.4 273.9 32.45 273.9 32.45 273.9 32.45 277 32.45 276.99 19.72 276.99 19.45 281.1 19.45 281.1 18.62 281.1 18.59"/>
  <polygon points="295.52 71.45 295.52 71.45 295.52 71.45 302.72 71.45 302.72 70.6 302.72 70.59 302.72 70.59 302.72 70.58 295.82 70.59 295.52 70.59 295.52 70.59 295.52 70.59 295.52 71.38 295.52 71.45"/>
  <polygon points="293.28 65.63 295.52 65.62 295.51 14.12 295.51 13.03 295.51 13.03 295.51 13.03 288.61 13.03 288.31 13.03 288.31 13.03 288.31 13.03 288.31 61.24 288.31 65.62 288.31 65.62 288.31 65.63 290.54 65.62 290.55 73 290.55 73.32 290.55 73.32 290.55 73.33 295.52 73.33 295.51 72.48 295.51 72.46 295.51 72.46 295.51 72.46 291.58 72.46 291.41 72.46 291.41 65.63 292.42 65.62 292.42 71.21 292.42 71.45 292.42 71.45 292.42 71.45 295.52 71.45 295.51 70.6 295.51 70.59 295.51 70.59 295.51 70.58 293.38 70.59 293.28 70.59 293.28 65.63"/>
  <polygon points="281.1 .03 281.1 .03 281.1 .03 274.35 .03 273.9 .03 273.9 .03 273.9 .03 273.9 12.78 273.9 13.62 273.9 13.62 273.9 13.63 281.1 13.63 281.1 .59 281.1 .03"/>
  <polygon points="286.07 5.59 286.07 5.59 286.07 5.58 281.41 5.59 281.11 5.59 281.11 5.59 281.1 5.59 281.11 6.4 281.11 6.45 281.11 6.45 281.11 6.45 285.21 6.45 285.21 19.87 285.21 20.46 281.27 20.46 281.11 20.46 281.11 20.46 281.1 20.46 281.11 21.27 281.11 21.32 281.11 21.32 281.11 21.33 286.08 21.33 286.07 5.91 286.07 5.59"/>
  <polygon points="286.07 57.59 286.07 57.59 286.07 57.58 281.31 57.59 281.11 57.59 281.11 57.59 281.1 57.59 281.11 58.4 281.11 58.45 281.11 58.45 281.11 58.45 285.21 58.45 285.21 71.87 285.21 72.46 281.27 72.46 281.11 72.46 281.11 72.46 281.1 72.46 281.11 73.27 281.11 73.32 281.11 73.32 281.11 73.33 286.08 73.33 286.07 57.91 286.07 57.59"/>
  <polygon points="324.34 26.03 324.34 26.03 324.34 26.03 317.44 26.03 317.14 26.03 317.14 26.03 317.14 26.03 317.14 37.93 317.14 39.62 317.14 39.62 317.14 39.63 324.34 39.63 324.34 28.29 324.34 26.03"/>
  <polygon points="415.8 13.62 415.8 13.03 415.8 5.59 415.8 5.59 415.8 5.58 411.14 5.59 410.83 5.59 410.83 5.59 410.83 5.59 410.83 6.45 414.94 6.45 414.94 68.33 414.94 72.46 411 72.46 410.83 72.46 410.83 72.46 410.83 72.46 410.83 73.33 415.8 73.33 415.8 16.87 415.8 13.62"/>
  <polygon points="403.62 65.63 410.83 65.63 410.83 2.76 410.83 .03 410.83 .03 410.83 .03 404.07 .03 403.63 .03 403.63 .03 403.62 .03 403.62 65.63"/>
  <polygon points="403.62 70.59 403.62 70.58 396.72 70.59 396.42 70.59 396.42 70.59 396.42 70.59 396.42 71.45 403.62 71.45 403.62 70.62 403.62 70.59 403.62 70.59"/>
  <polygon points="425.25 70.59 425.25 70.59 425.24 70.59 425.25 71.45 432.45 71.45 432.45 70.58 425.54 70.59 425.25 70.59"/>
  <polygon points="425.54 72.46 425.25 72.46 425.25 72.46 425.24 72.46 425.25 73.33 432.45 73.33 432.45 72.46 425.54 72.46"/>
  <polygon points="396.42 65.63 403.62 65.63 403.62 2.76 403.62 .03 403.62 .03 403.62 .03 396.87 .03 396.42 .03 396.42 .03 396.42 .03 396.42 65.63"/>
  <polygon points="410.83 70.59 410.83 70.58 403.92 70.59 403.63 70.59 403.63 70.59 403.62 70.59 403.62 71.45 410.83 71.45 410.83 70.62 410.83 70.59 410.83 70.59"/>
  <polygon points="410.83 72.46 410.83 72.46 410.83 72.46 403.92 72.46 403.63 72.46 403.63 72.46 403.62 72.46 403.62 73.33 410.83 73.33 410.83 72.49 410.83 72.46"/>
  <polygon points="425.24 72.46 425.24 72.46 425.24 72.46 421.31 72.46 421.14 72.46 421.13 66.62 421.13 65.63 422.14 65.62 422.15 70.96 422.15 71.45 422.15 71.45 422.15 71.45 425.24 71.45 425.24 70.6 425.24 70.59 425.24 70.59 425.24 70.58 423.1 70.59 423.01 70.59 423.01 66.35 423.01 65.63 425.24 65.62 425.24 1.39 425.24 .03 425.24 .03 425.24 .03 418.49 .03 418.04 .03 418.04 .03 418.04 .03 418.04 65.63 420.27 65.62 420.27 72.68 420.27 73.32 420.27 73.32 420.27 73.33 425.24 73.33 425.24 72.48 425.24 72.46"/>
  <polygon points="439.66 39.63 439.65 26.03 437.52 26.03 437.42 26.03 437.42 21.91 437.42 21.33 439.66 21.32 439.65 20.46 436.69 20.46 436.56 20.46 436.56 20.46 436.56 20.46 436.56 25.45 436.56 26.03 435.59 26.03 435.55 26.03 435.55 20.27 435.55 19.45 439.66 19.45 439.65 18.58 434.89 18.59 434.69 18.59 434.69 18.59 434.68 18.59 434.69 25.25 434.69 26.03 432.54 26.03 432.45 26.03 432.45 26.03 432.45 26.03 432.45 39.63 439.66 39.63"/>
  <polygon points="432.45 13.63 439.66 13.63 439.65 .03 432.9 .03 432.45 .03 432.45 .03 432.45 .03 432.45 13.63"/>
  <polygon points="439.96 72.46 439.66 72.46 439.66 72.46 439.66 72.46 439.66 73.33 446.86 73.33 446.86 72.46 439.96 72.46"/>
  <polygon points="439.66 70.59 439.66 70.59 439.66 70.59 439.66 71.45 446.86 71.45 446.86 70.58 439.96 70.59 439.66 70.59"/>
  <polygon points="432.75 72.46 432.45 72.46 432.45 72.46 432.45 72.46 432.45 73.33 439.66 73.33 439.65 72.46 432.75 72.46"/>
  <polygon points="425.25 65.63 432.45 65.63 432.45 .03 425.69 .03 425.25 .03 425.25 .03 425.24 .03 425.25 65.63"/>
  <polygon points="331.55 71.45 331.55 71.45 338.76 71.45 338.76 70.71 338.76 70.59 338.76 70.59 338.76 70.58 331.85 70.59 331.55 70.59 331.55 70.59 331.55 70.59 331.55 71.32 331.55 71.45 331.55 71.45"/>
  <polygon points="439.66 65.63 439.65 52.03 437.52 52.03 437.42 52.03 437.42 47.91 437.42 47.33 439.66 47.32 439.65 46.46 436.69 46.46 436.56 46.46 436.56 46.46 436.56 46.46 436.56 51.45 436.56 52.03 435.59 52.03 435.55 52.03 435.55 46.27 435.55 45.45 439.66 45.45 439.65 44.58 434.89 44.59 434.69 44.59 434.69 44.59 434.68 44.59 434.69 51.25 434.69 52.03 432.54 52.03 432.45 52.03 432.45 52.03 432.45 52.03 432.45 65.63 439.66 65.63"/>
  <polygon points="432.45 70.59 432.45 70.59 432.45 70.59 432.45 71.45 439.66 71.45 439.65 70.58 432.75 70.59 432.45 70.59"/>
  <polygon points="353.18 65.63 360.38 65.63 360.38 6.86 360.38 .03 360.38 .03 360.38 .03 353.62 .03 353.18 .03 353.18 .03 353.17 .03 353.18 65.63"/>
  <polygon points="367.58 31.59 367.58 31.59 367.58 31.58 362.82 31.59 362.62 31.59 362.62 31.59 362.61 31.59 362.62 70.58 360.47 70.59 360.38 70.59 360.38 70.59 360.38 70.59 360.38 71.45 363.48 71.45 363.48 32.45 367.59 32.45 367.58 31.67 367.58 31.59"/>
  <polygon points="367.58 33.55 367.58 33.46 367.58 33.46 367.58 33.46 364.62 33.46 364.49 33.46 364.49 33.46 364.49 33.46 364.49 72.46 360.55 72.46 360.38 72.46 360.38 72.46 360.38 72.46 360.38 73.33 365.35 73.33 365.35 34.33 367.59 34.32 367.58 33.55"/>
  <polygon points="360.38 72.46 360.38 72.46 360.38 72.46 353.47 72.46 353.18 72.46 353.18 72.46 353.17 72.46 353.18 73.33 360.38 73.33 360.38 72.55 360.38 72.46"/>
  <polygon points="360.38 70.59 360.38 70.58 353.47 70.59 353.18 70.59 353.18 70.59 353.17 70.59 353.18 71.45 360.38 71.45 360.38 70.67 360.38 70.59 360.38 70.59"/>
  <polygon points="353.17 72.46 353.17 72.46 353.17 72.46 349.24 72.46 349.07 72.46 349.06 65.63 350.07 65.62 350.08 71.45 353.17 71.45 353.17 70.69 353.17 70.59 353.17 70.59 353.17 70.58 351.03 70.59 350.94 70.59 350.94 65.63 353.17 65.62 353.17 8.23 353.17 .03 353.17 .03 353.17 .03 346.42 .03 345.97 .03 345.97 .03 345.97 .03 345.97 65.63 348.2 65.62 348.2 73.33 353.17 73.33 353.17 72.57 353.17 72.46"/>
  <polygon points="331.55 13.03 331.55 13.03 331.55 13.03 331.55 57.96 331.55 65.62 331.55 65.62 331.55 65.63 338.76 65.63 338.76 20.7 338.76 13.03 338.76 13.03 338.76 13.03 336.62 13.03 336.53 13.03 336.52 5.58 331.86 5.59 331.55 5.59 331.55 5.59 331.55 5.59 331.55 6.32 331.55 6.45 331.55 6.45 331.55 6.45 335.66 6.45 335.66 13.03 334.69 13.03 334.65 13.03 334.65 7.46 331.75 7.46 331.55 7.46 331.55 7.46 331.55 7.46 331.55 8.2 331.55 8.32 331.55 8.32 331.55 8.33 333.78 8.32 333.79 13.03 331.64 13.03 331.55 13.03"/>
  <polygon points="338.97 18.59 338.76 18.59 338.76 18.59 338.76 18.59 338.76 19.32 338.76 19.45 338.76 19.45 338.76 19.45 342.87 19.45 342.87 72.46 338.93 72.46 338.76 72.46 338.76 72.46 338.76 72.46 338.76 73.2 338.76 73.32 338.76 73.32 338.76 73.33 343.73 73.33 343.73 18.58 338.97 18.59"/>
  <polygon points="389.21 72.46 389.21 72.46 389.21 72.46 385.27 72.46 385.1 72.46 385.1 65.63 386.11 65.62 386.11 71.33 386.11 71.45 386.11 71.45 386.11 71.45 389.21 71.45 389.21 70.64 389.21 70.59 389.21 70.59 389.21 70.58 387.07 70.59 386.98 70.59 386.97 65.63 389.21 65.62 389.21 40.69 389.21 39.03 389.21 39.03 389.21 39.03 387.07 39.03 386.98 39.03 386.97 31.58 382.21 31.59 382 31.59 382 31.59 382 31.59 382 32.45 386.11 32.45 386.11 38.89 386.11 39.03 385.14 39.03 385.1 39.03 385.1 33.46 382.13 33.46 382 33.46 382 33.46 382 33.46 382 34.33 384.23 34.32 384.24 38.93 384.24 39.03 382.09 39.03 382 39.03 382 39.03 382 39.03 382 65.63 384.23 65.62 384.24 73.16 384.24 73.32 384.24 73.32 384.24 73.33 389.21 73.33 389.21 72.51 389.21 72.46"/>
  <polygon points="396.41 72.46 396.41 72.46 396.41 72.46 389.51 72.46 389.21 72.46 389.21 72.46 389.21 72.46 389.21 73.33 396.42 73.33 396.41 72.51 396.41 72.46"/>
  <polygon points="396.41 70.59 396.41 70.58 389.51 70.59 389.21 70.59 389.21 70.59 389.21 70.59 389.21 71.45 396.42 71.45 396.41 70.64 396.41 70.59 396.41 70.59"/>
  <polygon points="389.3 52.03 389.21 52.03 389.21 52.03 389.21 52.03 389.21 65.63 396.42 65.63 396.41 52.88 396.41 52.03 396.41 52.03 396.41 52.03 394.28 52.03 394.18 52.03 394.18 44.58 389.42 44.59 389.21 44.59 389.21 44.59 389.21 44.59 389.21 45.45 393.32 45.45 393.32 51.75 393.32 52.03 392.35 52.03 392.31 52.03 392.3 46.46 389.34 46.46 389.21 46.46 389.21 46.46 389.21 46.46 389.21 47.33 391.44 47.32 391.44 51.83 391.44 52.03 389.3 52.03"/>
  <polygon points="379.77 52.63 382 52.62 382 28.24 382 26.03 382 26.03 382 26.03 379.86 26.03 379.77 26.03 379.77 18.58 375 18.59 374.8 18.59 374.8 18.59 374.79 18.59 374.8 19.45 378.9 19.45 378.9 25.89 378.9 26.03 377.94 26.03 377.89 26.03 377.89 20.46 374.92 20.46 374.8 20.46 374.8 20.46 374.79 20.46 374.8 21.33 377.03 21.32 377.03 25.93 377.03 26.03 374.89 26.03 374.8 26.03 374.8 26.03 374.79 26.03 374.8 52.63 377.03 52.62 377.03 60.16 377.03 60.32 377.03 60.32 377.03 60.33 382 60.33 382 59.53 382 59.46 382 59.46 382 59.46 378.06 59.46 377.89 59.46 377.89 52.63 378.9 52.62 378.9 58.33 378.9 58.45 378.9 58.45 378.9 58.45 382 58.45 382 57.66 382 57.59 382 57.59 382 57.58 379.86 57.59 379.77 57.59 379.77 52.63"/>
  <polygon points="372.56 39.63 374.79 39.62 374.79 15.24 374.79 13.03 374.79 13.03 374.79 13.03 372.65 13.03 372.56 13.03 372.56 5.58 367.9 5.59 367.59 5.59 367.59 5.59 367.59 5.59 367.59 6.45 371.69 6.45 371.7 13.03 370.73 13.03 370.69 13.03 370.68 7.46 367.78 7.46 367.59 7.46 367.59 7.46 367.59 7.46 367.59 8.33 369.82 8.32 369.82 13.03 367.68 13.03 367.59 13.03 367.59 13.03 367.59 13.03 367.59 39.63 369.82 39.62 369.82 47.33 374.79 47.33 374.79 46.53 374.79 46.46 374.79 46.46 374.79 46.46 370.86 46.46 370.69 46.46 370.68 39.63 371.69 39.62 371.7 45.45 374.79 45.45 374.79 44.66 374.79 44.59 374.79 44.59 374.79 44.58 372.65 44.59 372.56 44.59 372.56 39.63"/>
  <polygon points="367.58 .03 367.58 .03 367.58 .03 360.83 .03 360.38 .03 360.38 .03 360.38 .03 360.38 26.63 367.59 26.63 367.58 2.8 367.58 .03"/>
  <g>
    <path d="M136.97,34.35h5v-15.11s-.03-.68-.03-.68h-4.76s-.18.02-.18.02v-4.42s-.03-1.16-.03-1.16l-2.2.03v-6.98s-.03-.49-.03-.49h-4.66s-.31.03-.31.03V0s-6.76,0-6.76,0l-.45.03v-.03s-6.75,0-6.75,0l-.45.03v-.03s-6.75,0-6.75,0l-.45.03v-.03s-6.75,0-6.75,0l-.45.03v-.03h-6.75s-.45.03-.45.03v-.03h-6.75s-.48.03-.48.03l.03,65.62,2.2-.03.03,7.73h46.01v-12.22s-.03-.78-.03-.78l2.24-.03v.03h5v-15.11s-.03-.68-.03-.68h-4.76s-.18.02-.18.02v-4.42s-.03-1.16-.03-1.16l-2.2.03v-4.41s-.03-.27-.03-.27l2.24-.03v.03ZM136.99,26.66v-5.3s2.18-.03,2.18-.03l.03,10.23h-2.14s-.09.02-.09.02v-.02s-4.77,0-4.77,0l-.24.03.03,7.41h-2.14s-.08.02-.08.02v-12.36s7.22,0,7.22,0ZM129.76,13.02v-4.72s0,.05,0,.05l2.2-.03.03,4.68h-2.14s-.09.02-.09.02ZM129.76,6.48l4.08-.03.03,6.55-.98.03v-5.23s-.03-.38-.03-.38h-2.9s-.19.03-.19.03v-1.06s0,.08,0,.08ZM122.54,52h-6.9s-.3.03-.3.03v-.03s-6.9,0-6.9,0l-.3.03v-.03s-2.2.03-2.2.03l-.03-4.68,2.24-.03v.03h14.41v4.65ZM122.54,46.43h-6.9s-.3.03-.3.03v-.03s-6.91,0-6.91,0l-.3.03v-.03s-2.97,0-2.97,0l-.16.03.03,5.54-.98.03-.03-6.55,4.11-.03v.03h14.41v.95ZM122.54,44.55h-6.9s-.3.03-.3.03v-.03s-6.91,0-6.91,0l-.3.03v-.03s-4.77,0-4.77,0l-.24.03.03,7.41-2.21.03v-12.38s7.18,0,7.18,0h14.4v4.9ZM122.53,26h-6.89s-.3.03-.3.03v-.03s-6.9,0-6.9,0l-.3.03v-.03s-2.2.03-2.2.03l-.03-4.68,2.24-.03v.03h14.4v4.65ZM122.53,20.43h-6.89s-.3.03-.3.03v-.03s-6.91,0-6.91,0l-.3.03v-.03s-2.97,0-2.97,0l-.16.03.03,5.54-.98.03-.03-6.55,4.11-.03v.03h14.39v.95ZM108.14,13.66h14.39v4.9s-6.89,0-6.89,0l-.3.03v-.03s-6.91,0-6.91,0l-.3.03v-.03s-4.77,0-4.77,0l-.24.03.03,7.41h-2.14s-.08.02-.08.02v-12.37s7.2,0,7.2,0ZM141.04,45.45l.03,13.98h-3.94s-.17.03-.17.03v-.03s-2.98,0-2.98,0l-.16.03.03,12.97h-3.94s-.17.03-.17.03v-.03s-6.9,0-6.9,0l-.3.03v-.03s-6.91,0-6.91,0l-.3.03v-.03s-6.91,0-6.91,0l-.3.03v-.03s-6.91,0-6.91,0l-.3.03v-.03s-6.91,0-6.91,0l-.3.03v-.03s-3.93,0-3.93,0l-.14.03-.03-6.8.98-.03.03,5.85,3.1-.03v.03h39.16v-12.22s-.03-.78-.03-.78l4.11-.03v.03h3.13v-11.52s-.03-.53-.03-.53h-2.97s-.1.02-.1.02v-.97s4.05-.03,4.05-.03ZM136.99,52.66v-5.3s2.18-.03,2.18-.03l.03,10.23h-2.14s-.09.02-.09.02v-.02s-4.77,0-4.77,0l-.24.03.03,12.97h-2.14s-.1.03-.1.03v-.03s-6.9,0-6.9,0l-.3.03v-.03s-6.91,0-6.91,0l-.3.03v-.03s-6.91,0-6.91,0l-.3.03v-.03s-6.91,0-6.91,0l-.3.03v-.03s-6.91,0-6.91,0l-.3.03v-.03s-2.2.03-2.2.03l-.03-4.93,2.24-.03v.03l7.21-.03v.03h28.85v-13s7.21,0,7.21,0ZM133.99,33.43l-.16.03.03,5.54-.98.03v-6.17s-.03-.38-.03-.38l4.11-.03v.03h3.13v-11.52s-.03-.53-.03-.53h-2.97s-.1.02-.1.02v-.97s4.05-.03,4.05-.03l.03,13.98h-3.94s-.17.03-.17.03v-.03s-2.98,0-2.98,0Z"/>
    <path d="M223.65,31.56l-.2.02v-5.58s-6.92,0-6.92,0l-.3.03v-.03s-6.9,0-6.9,0l-.3.03v-.03s-6.9,0-6.9,0l-.3.03v-.03s-6.9,0-6.9,0l-.3.03v-.03s-6.9,0-6.9,0l-.33.03.03,13.62,2.2-.03v7.06s.03.67.03.67h38.8l-.03-15.8h-4.77ZM194.62,39.63v.03h28.85v-5.3s2.18-.03,2.18-.03l.03,10.23h-2.14s-.1.03-.1.03v-.03s-6.9,0-6.9,0l-.3.03v-.03s-6.9,0-6.9,0l-.3.03v-.03s-6.9,0-6.9,0l-.3.03v-.03s-6.9,0-6.9,0l-.3.03v-.03s-2.2.03-2.2.03l-.03-4.93,2.24-.03ZM223.62,46.43l-.17.02v-.03s-6.9,0-6.9,0l-.3.03v-.03s-6.9,0-6.9,0l-.3.03v-.03s-6.9,0-6.9,0l-.3.03v-.03s-6.9,0-6.9,0l-.3.03v-.03s-3.93,0-3.93,0l-.14.03-.03-6.8.98-.03v5.34s.03.51.03.51l3.1-.03v.03h31.95l-.03-12.05h-2.97s-.11.02-.11.02v-.97s4.06-.03,4.06-.03l.03,13.98h-3.94Z"/>
    <path d="M194.83,57.56l-.2.02v-5.58s-6.92,0-6.92,0l-.3.03v-.03s-6.91,0-6.91,0l-.3.03v-.03s-6.91,0-6.91,0l-.3.03v-.03s-6.9,0-6.9,0l-.3.03v-.03s-2.2.03-2.2.03l-.03-4.68,2.24-.03v.03h19.42l-.03-15.8h-4.77s-.18.02-.18.02v-5.27s-.03-.31-.03-.31h-6.9s-.3.03-.3.03v-.03s-6.9,0-6.9,0l-.3.03v-.03s-2.2.03-2.2.03l-.03-4.68,2.24-.03v.03h33.83l-.03-15.8h-4.66s-.3.03-.3.03V0s-6.77,0-6.77,0l-.45.03v-.03s-6.76,0-6.76,0l-.45.03v-.03s-6.76,0-6.76,0l-.45.03v-.03s-6.75,0-6.75,0l-.45.03v-.03s-6.75,0-6.75,0l-.45.03v-.03s-6.75,0-6.75,0l-.45.03v-.03s-6.75,0-6.75,0l-.48.03v62.86s.03,2.76.03,2.76l2.2-.03v7.54s.03.19.03.19h53.22l-.03-15.8h-4.77ZM184.28,32.45v13.13s.03.85.03.85h-3.94s-.17.03-.17.03v-.03s-6.9,0-6.9,0l-.3.03v-.03s-6.9,0-6.9,0l-.3.03v-.03s-2.97,0-2.97,0l-.16.03v5.33s.03.2.03.2l-.98.03v-6.44s-.03-.11-.03-.11l4.11-.03v.03h17.54l-.03-12.05h-2.97s-.1.02-.1.02v-.97s4.05-.03,4.05-.03ZM165.79,39.66h14.44v-5.3s2.18-.03,2.18-.03v9.62s.03.61.03.61h-2.14s-.1.03-.1.03v-.03s-6.9,0-6.9,0l-.3.03v-.03s-6.9,0-6.9,0l-.3.03v-.03s-4.77,0-4.77,0l-.24.03v7.13s.03.28.03.28h-2.14s-.07.02-.07.02v-12.36s7.18,0,7.18,0ZM198.7,6.45v12.84s.03,1.14.03,1.14h-3.94s-.17.03-.17.03v-.03s-6.9,0-6.9,0l-.3.03v-.03s-6.9,0-6.9,0l-.3.03v-.03s-6.9,0-6.9,0l-.3.03v-.03s-6.9,0-6.9,0l-.3.03v-.03s-2.97,0-2.97,0l-.16.03v5.34s.03.2.03.2l-.98.03v-6.44s-.03-.11-.03-.11l4.11-.03v.03h31.95l-.03-12.05h-2.9s-.18.03-.18.03v-.98s4.06-.03,4.06-.03ZM165.79,13.66h28.85v-5.3s2.18-.03,2.18-.03v9.41s.03.83.03.83h-2.14s-.1.03-.1.03v-.03s-6.9,0-6.9,0l-.3.03v-.03s-6.9,0-6.9,0l-.3.03v-.03s-6.9,0-6.9,0l-.3.03v-.03s-6.9,0-6.9,0l-.3.03v-.03s-4.77,0-4.77,0l-.24.03v7.13s.03.28.03.28h-2.14s-.07.02-.07.02v-12.36s7.18,0,7.18,0ZM151.38,65.63v.03h43.27v-5.3s2.18-.03,2.18-.03v9.41s.03.83.03.83h-2.14s-.1.03-.1.03v-.03s-6.9,0-6.9,0l-.3.03v-.03s-6.9,0-6.9,0l-.3.03v-.03s-6.9,0-6.9,0l-.3.03v-.03s-6.9,0-6.9,0l-.3.03v-.03s-6.9,0-6.9,0l-.3.03v-.03s-6.9,0-6.9,0l-.3.03v-.03s-2.2.03-2.2.03v-4.75s-.03-.18-.03-.18l2.24-.03ZM194.79,72.43l-.17.02v-.03s-6.9,0-6.9,0l-.3.03v-.03s-6.9,0-6.9,0l-.3.03v-.03s-6.9,0-6.9,0l-.3.03v-.03s-6.9,0-6.9,0l-.3.03v-.03s-6.9,0-6.9,0l-.3.03v-.03s-6.9,0-6.9,0l-.3.03v-.03s-3.94,0-3.94,0l-.14.03v-6.55s-.03-.26-.03-.26l.98-.03v5.7s.03.15.03.15l3.1-.03v.03h46.37l-.03-12.05h-2.97s-.11.02-.11.02v-.97s4.07-.03,4.07-.03v12.84s.03,1.14.03,1.14h-3.94Z"/>
    <path d="M79.62,5.56l-.31.03V0s-6.76,0-6.76,0l-.45.03v-.03s-6.75,0-6.75,0l-.48.03.03,65.62,2.2-.03.03,7.73h17.18l-.03-67.8h-4.66ZM72.1,65.63v.03h7.23l-.03-57.36v.05s2.2-.03,2.2-.03l.03,62.23h-2.14s-.1.03-.1.03v-.03s-6.9,0-6.9,0l-.3.03v-.03s-2.2.03-2.2.03l-.03-4.93,2.24-.03ZM79.48,72.43l-.17.02v-.03s-6.9,0-6.9,0l-.3.03v-.03s-3.93,0-3.93,0l-.14.03-.03-6.8.98-.03.03,5.85,3.1-.03v.03h10.33l-.03-64.05h-2.9s-.19.03-.19.03v-1.06s0,.08,0,.08l4.08-.03.03,65.98h-3.94Z"/>
    <path d="M58,5.56l-.31.03V0s-6.76,0-6.76,0l-.45.03v-.03s-6.75,0-6.75,0l-.48.03.02,38.97h-6.9s-.33.03-.33.03l.02,12.97h-6.89s-.3.03-.3.03v-.03s-2.2.03-2.2.03l-.03-7.48h-4.76s-.2.03-.2.03v-5.58s-2.21.03-2.21.03l-.03-33.48h-4.66s-.31.03-.31.03V0s-6.76,0-6.76,0l-.45.03v-.03H.48s-.48.03-.48.03l.03,39.62,2.2-.03.03,7.73h4.97v5.3s2.2-.03,2.2-.03l.03,7.73h4.97v5.3s2.21-.03,2.21-.03l.03,7.73h31.6l-.03-13,2.24-.03v.03h5v-12.76s-.03-.24-.03-.24l2.24-.03v.03h5l-.03-41.8h-4.66ZM7.23,39.63v4.96s0-.03,0-.03l-2.2.03-.03-4.93,2.23-.03ZM7.23,46.43h-3.93s-.14.03-.14.03l-.03-6.8.98-.03.03,5.85,3.1-.03v1.05s0-.07,0-.07ZM25.73,45.45l.03,6.55-.98.03-.03-5.6h-2.97s-.12.03-.12.03v-.98s4.07-.03,4.07-.03ZM21.66,52.02v-4.67s2.19-.03,2.19-.03l.03,4.68h-2.14s-.08.02-.08.02ZM21.65,65.63v.03h21.65l-.02-13h7.22v-13s7.21,0,7.21,0l-.02-31.3,2.2-.03.03,36.23h-2.14s-.1.03-.1.03v-.03s-4.77,0-4.77,0l-.24.03v12.73s.03.24.03.24h-2.14s-.1.03-.1.03v-.03s-4.77,0-4.77,0l-.24.03.03,12.97h-2.14s-.1.03-.1.03v-.03s-6.9,0-6.9,0l-.3.03v-.03s-6.9,0-6.9,0l-.3.03v-.03s-6.9,0-6.9,0l-.3.03v-.03s-2.2.03-2.2.03l-.03-4.93,2.24-.03ZM14.45,6.48l4.08-.03.03,32.55-.98.03-.03-31.6h-2.9s-.19.03-.19.03v-1.04s0,.06,0,.06ZM14.43,52.63v4.93s-2.19.03-2.19.03l-.03-4.93,2.22-.03ZM10.51,59.43l-.14.03-.03-6.8.98-.03.03,5.85,3.09-.03v.98s-3.93,0-3.93,0ZM14.54,39l-.07.02-.02-30.69v.03s2.2-.03,2.2-.03l.03,30.68h-2.14ZM57.86,46.43l-.17.02v-.03s-2.97,0-2.97,0l-.16.03v12.73s.03.24.03.24h-3.94s-.17.03-.17.03v-.03s-2.97,0-2.97,0l-.16.03.03,12.97h-3.94s-.17.03-.17.03v-.03s-6.9,0-6.9,0l-.3.03v-.03s-6.9,0-6.9,0l-.3.03v-.03s-6.9,0-6.9,0l-.3.03v-.03s-3.93,0-3.93,0l-.14.03-.03-6.8.98-.03.03,5.85,3.1-.03v.03h24.75l-.03-13,4.11-.03v.03h3.13v-12.76s-.03-.24-.03-.24l4.11-.03v.03h3.13l-.03-38.05h-2.9s-.19.03-.19.03v-1s0,.02,0,.02l4.08-.03.03,39.98h-3.94Z"/>
    <path d="M468.49,34.35h5v-14.46s-.03-1.34-.03-1.34h-4.76s-.2.03-.2.03v-5.58s-2.21.03-2.21.03v-6.83s-.03-.65-.03-.65h-4.66s-.31.03-.31.03V0s-6.76,0-6.76,0l-.45.03v-.03s-6.75,0-6.75,0l-.45.03v-.03s-6.75,0-6.75,0l-.45.03v-.03s-6.75,0-6.75,0l-.45.03v-.03h-6.75s-.45.03-.45.03v-.03s-6.75,0-6.75,0l-.48.03.03,65.62,2.2-.03v7.06s.03.67.03.67h46.01v-11.95s-.03-1.05-.03-1.05l2.24-.03v.03h5v-14.46s-.03-1.34-.03-1.34h-4.76s-.2.03-.2.03v-5.58s-2.21.03-2.21.03v-4.31s-.03-.36-.03-.36l2.24-.03v.03ZM468.51,26.66v-5.3s2.18-.03,2.18-.03v8.76s.03,1.47.03,1.47h-2.14s-.09.03-.09.03v-.03s-4.77,0-4.77,0l-.24.03v6.36s.03,1.06.03,1.06h-2.14s-.08.02-.08.02v-12.36s7.22,0,7.22,0ZM461.28,13.02v-4.72s0,.05,0,.05l2.2-.03v4.02s.03.66.03.66h-2.14s-.09.02-.09.02ZM461.28,6.48l4.08-.03v5.62s.03.93.03.93l-.98.03v-5.11s-.03-.49-.03-.49h-2.9s-.19.03-.19.03v-1.06s0,.08,0,.08ZM454.07,52h-6.9s-.3.03-.3.03v-.03s-6.9,0-6.9,0l-.3.03v-.03s-2.2.03-2.2.03v-4.12s-.03-.56-.03-.56l2.24-.03v.03h14.41v4.65ZM454.07,46.43h-6.9s-.3.03-.3.03v-.03s-6.91,0-6.91,0l-.3.03v-.03s-2.97,0-2.97,0l-.16.03v4.99s.03.55.03.55l-.98.03v-5.76s-.03-.79-.03-.79l4.11-.03v.03h14.41v.95ZM454.06,44.55h-6.9s-.3.03-.3.03v-.03s-6.91,0-6.91,0l-.3.03v-.03s-4.77,0-4.77,0l-.24.03v6.67s.03.75.03.75h-2.14s-.07.02-.07.02v-12.36s7.19,0,7.19,0h14.4v4.9ZM454.06,26h-6.89s-.3.03-.3.03v-.03s-6.9,0-6.9,0l-.3.03v-.03s-2.2.03-2.2.03v-4.12s-.03-.56-.03-.56l2.24-.03v.03h14.39v4.65ZM454.05,20.43h-6.89s-.3.03-.3.03v-.03s-6.91,0-6.91,0l-.3.03v-.03s-2.97,0-2.97,0l-.16.03v4.99s.03.55.03.55l-.98.03v-5.76s-.03-.79-.03-.79l4.11-.03v.03h14.39v.95ZM439.66,13.66h14.39v4.9s-6.89,0-6.89,0l-.3.03v-.03s-6.91,0-6.91,0l-.3.03v-.03s-4.77,0-4.77,0l-.24.03v6.67s.03.75.03.75h-2.14s-.08.02-.08.02v-12.37s7.2,0,7.2,0ZM472.56,45.45v11.97s.03,2.01.03,2.01h-3.94s-.17.03-.17.03v-.03s-2.97,0-2.97,0l-.16.03v11.1s.03,1.87.03,1.87h-3.94s-.17.03-.17.03v-.03s-6.91,0-6.91,0l-.3.03v-.03s-6.91,0-6.91,0l-.3.03v-.03s-6.91,0-6.91,0l-.3.03v-.03s-6.91,0-6.91,0l-.3.03v-.03s-6.91,0-6.91,0l-.3.03v-.03s-3.93,0-3.93,0l-.14.03v-5.84s-.03-.97-.03-.97l.98-.03v5.34s.03.51.03.51l3.1-.03v.03h39.16v-11.95s-.03-1.05-.03-1.05l4.11-.03v.03h3.13v-11.02s-.03-1.03-.03-1.03h-2.97s-.11.02-.11.02v-.97s4.07-.03,4.07-.03ZM468.51,52.66v-5.3s2.18-.03,2.18-.03v8.76s.03,1.47.03,1.47h-2.14s-.09.03-.09.03v-.03s-4.77,0-4.77,0l-.24.03v11.1s.03,1.87.03,1.87h-2.14s-.09.03-.09.03v-.03s-6.91,0-6.91,0l-.3.03v-.03s-6.91,0-6.91,0l-.3.03v-.03s-6.91,0-6.91,0l-.3.03v-.03s-6.91,0-6.91,0l-.3.03v-.03s-6.91,0-6.91,0l-.3.03v-.03s-2.2.03-2.2.03v-4.24s-.03-.69-.03-.69l2.24-.03v.03h36.06v-13s7.21,0,7.21,0ZM465.51,33.43l-.16.03v4.76s.03.78.03.78l-.98.03v-6.03s-.03-.52-.03-.52l4.11-.03v.03h3.13v-11.02s-.03-1.03-.03-1.03h-2.97s-.11.02-.11.02v-.97s4.07-.03,4.07-.03v11.97s.03,2.01.03,2.01h-3.94s-.17.03-.17.03v-.03s-2.97,0-2.97,0Z"/>
    <path d="M603.18,5.55h-4.66s-.29.03-.29.03v-.09l-.03-5.5h-6.75s-.45.03-.45.03v-.03s-6.75,0-6.75,0l-.48.03.02,51.97-2.2.03-.03-7.48h-4.76s-.18.02-.18.02v-2.23s-.03-3.35-.03-3.35l-2.2.03-.03-7.48h-4.76s-.18.02-.18.02v-2.23s-.03-3.35-.03-3.35l-2.2.03-.03-7.48h-4.76s-.18.02-.18.02v-1.67s-.03-3.91-.03-3.91l-2.2.03-.03-7.48h-4.66s-.28.03-.28.03v-1.67s-.03-3.91-.03-3.91h-6.75s-.45.03-.45.03v-.03s-6.75,0-6.75,0l-.45.03v-.03h-6.75s-.48.03-.48.03v58.76s.03,6.86.03,6.86l2.2-.03.03,7.73h17.18l-.03-39,2.21-.03v1.43s.03,3.91.03,3.91l2.2-.03.03,7.73h4.95v1.4s.03,3.91.03,3.91l2.2-.03.03,7.73h4.95v.84s.03,4.46.03,4.46l2.2-.03.03,7.73h31.6l-.03-67.8ZM580.67,45.45l.03,6.55-.98.03-.03-5.6h-2.97s-.1.02-.1.02v-.97s4.05-.03,4.05-.03ZM576.62,52.02v-4.67s2.18-.03,2.18-.03l.03,4.68h-2.14s-.07.02-.07.02ZM576.59,65.63v.03h21.65V8.35s2.18-.03,2.18-.03l.03,62.23h-2.14s-.09.02-.09.02v-.02s-6.91,0-6.91,0l-.3.03v-.03s-6.91,0-6.91,0l-.3.03v-.03s-6.91,0-6.91,0l-.3.03v-.03s-2.21.03-2.21.03l-.03-4.93,2.24-.03ZM573.46,32.45l.03,6.55-.98.03-.03-5.6h-2.97s-.1.02-.1.02v-.97s4.05-.03,4.05-.03ZM569.36,52.63v4.93s-2.18.03-2.18.03l-.03-4.93,2.21-.03ZM566.26,19.45l.03,6.55-.98.03-.03-5.6h-2.97s-.1.02-.1.02v-.97s4.05-.03,4.05-.03ZM562.15,39.63v4.93s-2.18.03-2.18.03l-.03-4.93,2.21-.03ZM559.05,6.45l.03,6.55-.98.03-.03-5.6h-2.9s-.17.02-.17.02v-.98s4.05-.03,4.05-.03ZM540.56,65.63v.03h7.23V26.66s7.15,0,7.15,0v4.9s-4.74,0-4.74,0l-.24.03.03,38.97h-2.14s-.09.02-.09.02v-.02s-6.91,0-6.91,0l-.3.03v-.03s-2.2.03-2.2.03l-.03-4.93,2.24-.03ZM552,33.43l-.16.03.03,38.97h-3.94s-.17.03-.17.03v-.03s-6.91,0-6.91,0l-.3.03v-.03s-3.93,0-3.93,0l-.14.03-.03-6.8.98-.03.03,5.85,3.09-.03v.03h10.34l-.03-39,4.08-.03v.98s-2.94,0-2.94,0ZM555.06,13l-.07.02v-4.67s2.18-.03,2.18-.03l.03,4.68h-2.14ZM558.24,46.43l-.14.03-.03-6.8.98-.03.03,5.85,3.07-.03v.98s-3.91,0-3.91,0ZM562.27,26l-.07.02v-4.67s2.18-.03,2.18-.03l.03,4.68h-2.14ZM565.45,59.43l-.14.03-.03-6.8.98-.03.03,5.85,3.07-.03v.98s-3.91,0-3.91,0ZM569.48,39l-.07.02v-4.67s2.18-.03,2.18-.03l.03,4.68h-2.14ZM598.38,72.43l-.17.02v-.03s-6.91,0-6.91,0l-.3.03v-.03s-6.91,0-6.91,0l-.3.03v-.03s-6.91,0-6.91,0l-.3.03v-.03s-3.94,0-3.94,0l-.14.03-.03-6.8.98-.03.03,5.85,3.09-.03v.03h24.75l-.03-64.05h-2.9s-.17.02-.17.02v-.98s4.05-.03,4.05-.03l.03,65.98h-3.94Z"/>
    <path d="M526.35,18.56l-.21.02v-5.58s-2.2.03-2.2.03l-.03-7.48h-4.66s-.31.03-.31.03V0s-6.76,0-6.76,0l-.45.03v-.03s-6.75,0-6.75,0l-.45.03v-.03s-6.75,0-6.75,0l-.45.03v-.03s-6.75,0-6.75,0l-.45.03v-.03h-6.75s-.48.03-.48.03v12.97s-6.88,0-6.88,0l-.33.03v51.5s.03,1.12.03,1.12l2.2-.03v6.42s.03,1.31.03,1.31h17.18v-24.95s-.03-1.05-.03-1.05l2.24-.03v.03h14.39v14.17s.03,4.13.03,4.13l2.2-.03.03,7.73h17.18l-.03-54.8h-4.76ZM497.32,13.66h14.38v4.9s-6.88,0-6.88,0l-.3.03v-.03s-6.91,0-6.91,0l-.3.03v-.03s-4.77,0-4.77,0l-.24.03.03,7.41h-2.14s-.08.02-.08.02v-12.37s7.2,0,7.2,0ZM511.7,26h-6.88s-.3.03-.3.03v-.03s-6.9,0-6.9,0l-.3.03v-.03s-2.2.03-2.2.03v-4.51s-.03-.17-.03-.17l2.24-.03v.03h14.38v4.65ZM511.7,20.43h-6.88s-.3.03-.3.03v-.03s-6.91,0-6.91,0l-.3.03v-.03s-2.97,0-2.97,0l-.16.03.03,5.54-.98.03v-6.31s-.03-.25-.03-.25l4.11-.03v.03h14.38v.95ZM482.9,65.63v.03h7.23v-26s7.18,0,7.18,0h14.38v4.9s-6.88,0-6.88,0l-.3.03v-.03s-6.91,0-6.91,0l-.3.03v-.03s-4.77,0-4.77,0l-.24.03.03,25.97h-2.14s-.09.03-.09.03v-.03s-6.91,0-6.91,0l-.3.03v-.03s-2.2.03-2.2.03v-4.65s-.03-.28-.03-.28l2.24-.03ZM504.82,46.43l-.3.03v-.03s-6.91,0-6.91,0l-.3.03v-.03s-2.97,0-2.97,0l-.16.03.03,25.97h-3.94s-.17.03-.17.03v-.03s-6.91,0-6.91,0l-.3.03v-.03s-3.93,0-3.93,0l-.14.03v-6.41s-.03-.4-.03-.4l.98-.03v4.85s.03,1,.03,1l3.1-.03v.03h10.33v-24.95s-.03-1.05-.03-1.05l4.11-.03v.03h14.39v.95s-6.88,0-6.88,0ZM518.94,6.48l4.08-.03.03,6.55-.98.03-.03-5.6h-2.9s-.19.03-.19.03v-.99s0,0,0,0ZM518.94,13.02v-4.68s0,0,0,0l2.2-.03.03,4.68h-2.14s-.09.02-.09.02ZM518.94,65.63v.03h7.23l-.03-44.31h0s2.2-.03,2.2-.03l.03,49.23h-2.14s-.09.03-.09.03v-.03s-6.91,0-6.91,0l-.3.03v-.03s-2.2.03-2.2.03v-4.85s-.03-.08-.03-.08l2.24-.03ZM526.31,72.43l-.17.02v-.03s-6.91,0-6.91,0l-.3.03v-.03s-3.93,0-3.93,0l-.14.03v-6.69s-.03-.11-.03-.11l.98-.03.03,5.85,3.09-.03v.03h10.34l-.03-51.05h-2.97s-.13.03-.13.03v-.99s0,0,0,0l4.08-.03.03,52.98h-3.94Z"/>
    <path d="M281.11,21.35h5V5.91s-.03-.36-.03-.36h-4.66s-.28.03-.28.03V.59s-.03-.59-.03-.59h-6.75s-.45.03-.45.03v-.03s-6.75,0-6.75,0l-.48.03v12.97s-6.88,0-6.88,0l-.33.03v12.97s-6.88,0-6.88,0l-.3.03v-.03s-2.2.03-2.2.03V6.86s-.03-1.31-.03-1.31h-4.66s-.31.03-.31.03V0s-6.76,0-6.76,0l-.45.03v-.03h-6.75s-.48.03-.48.03l.03,65.62,2.2-.03.03,7.73h17.18v-24.4s-.03-1.6-.03-1.6l2.24-.03v.03h7.18v3.62s.03,1.68.03,1.68h7.18v11.86s.03,1.14.03,1.14l2.2-.03v7.54s.03.19.03.19h17.18v-15.44s-.03-.36-.03-.36h-4.76s-.18.02-.18.02v-4.98s-.03-.59-.03-.59l-2.2.03v-7.29s-.03-.18-.03-.18h-4.76s-.18.02-.18.02v-3.89s-.03-1.69-.03-1.69l-2.2.03v-4.51s-.03-.17-.03-.17l2.24-.03v.03h5v-12.76s-.03-.24-.03-.24l2.24-.03v.03ZM245.07,6.48l4.08-.03.03,19.55-.98.03V8.62s-.03-1.19-.03-1.19h-2.9s-.19.03-.19.03v-1.06s0,.08,0,.08ZM247.3,26h-2.14s-.08.02-.08.02V8.3s0,.05,0,.05l2.2-.03.03,17.68ZM237.86,65.63v.03h7.23v-26s7.18,0,7.18,0h7.18v4.9s-6.88,0-6.88,0l-.3.03v-.03s-4.77,0-4.77,0l-.24.03.03,25.97h-2.14s-.1.03-.1.03v-.03s-6.9,0-6.9,0l-.3.03v-.03s-2.2.03-2.2.03v-4.54s-.03-.38-.03-.38l2.24-.03ZM252.57,46.43l-.3.03v-.03s-2.97,0-2.97,0l-.16.03.03,25.97h-3.94s-.17.03-.17.03v-.03s-6.9,0-6.9,0l-.3.03v-.03s-3.93,0-3.93,0l-.14.03v-6.26s-.03-.54-.03-.54l.98-.03.03,5.85,3.1-.03v.03h10.33v-24.4s-.03-1.6-.03-1.6l4.11-.03v.03h7.18v.95s-6.88,0-6.88,0ZM268.9,38.87l.03.13h-2.14s-.07.02-.07.02v-12.36s7.21,0,7.21,0v-13s7.21,0,7.21,0v-5.3s2.18-.03,2.18-.03v9.83s.03.4.03.4h-2.14s-.1.03-.1.03v-.03s-4.76,0-4.76,0l-.24.03v12.73s.03.24.03.24h-2.14s-.1.03-.1.03v-.03s-4.76,0-4.76,0l-.24.03v7.29ZM285.18,58.45v13.43s.03.56.03.56h-3.94s-.17.03-.17.03v-.03s-6.9,0-6.9,0l-.3.03v-.03s-3.93,0-3.93,0l-.14.03v-6.55s-.03-.26-.03-.26l.98-.03v5.7s.03.15.03.15l3.1-.03v.03h10.33v-11.77s-.03-.28-.03-.28h-2.97s-.1.02-.1.02v-.97s4.05-.03,4.05-.03ZM277.98,45.45v6.44s.03.11.03.11l-.98.03v-5.46s-.03-.14-.03-.14h-2.97s-.1.02-.1.02v-.97s4.05-.03,4.05-.03ZM273.92,52.02v-4.67s2.18-.03,2.18-.03l.03,4.68h-2.14s-.07.02-.07.02ZM273.9,65.63v.03h7.23v-5.3s2.18-.03,2.18-.03v9.83s.03.4.03.4h-2.14s-.1.03-.1.03v-.03s-6.9,0-6.9,0l-.3.03v-.03s-2.2.03-2.2.03v-4.75s-.03-.18-.03-.18l2.24-.03ZM278.13,20.43l-.16.03v12.73s.03.24.03.24h-3.94s-.17.03-.17.03v-.03s-2.97,0-2.97,0l-.16.03v5.45s.03.09.03.09l-.98.03v-6.31s-.03-.25-.03-.25l4.11-.03v.03h3.13v-12.76s-.03-.24-.03-.24l4.11-.03v.03h3.13V7.71s-.03-.28-.03-.28h-2.9s-.17.02-.17.02v-.98s4.05-.03,4.05-.03v13.43s.03.56.03.56h-3.94s-.17.03-.17.03v-.03s-2.97,0-2.97,0Z"/>
    <path d="M415.8,5.55h-4.66s-.29.03-.29.03v-2.82s-.03-2.76-.03-2.76h-6.75s-.45.03-.45.03v-.03s-6.75,0-6.75,0l-.48.03.02,51.97-2.2.03-.03-7.48h-4.76s-.18.02-.18.02v-3.89s-.03-1.69-.03-1.69l-2.2.03-.03-7.48h-4.76s-.18.02-.18.02v-3.33s-.03-2.24-.03-2.24l-2.2.03-.03-7.48h-4.76s-.18.02-.18.02v-3.33s-.03-2.24-.03-2.24l-2.2.03-.03-7.48h-4.66s-.28.03-.28.03v-2.78s-.03-2.8-.03-2.8h-6.75s-.45.03-.45.03v-.03s-6.75,0-6.75,0l-.45.03v-.03s-6.75,0-6.75,0l-.48.03.03,65.62,2.2-.03.03,7.73h17.18l-.03-39,2.23-.03v5.33s2.21-.03,2.21-.03l.03,7.73h4.97v5.3s2.21-.03,2.21-.03v7.54s.03.19.03.19h4.97v5.3s2.21-.03,2.21-.03v7.54s.03.19.03.19h31.6V13.62s-.03-8.07-.03-8.07ZM393.29,45.45v6.31s.03.25.03.25l-.98.03-.03-5.6h-2.97s-.1.02-.1.02v-.97s4.05-.03,4.05-.03ZM389.23,52.02v-4.67s2.18-.03,2.18-.03v4.51s.03.17.03.17h-2.14s-.07.02-.07.02ZM389.21,65.63v.03h21.65V8.35s2.18-.03,2.18-.03v58.37s.03,3.86.03,3.86h-2.14s-.09.03-.09.03v-.03s-6.91,0-6.91,0l-.3.03v-.03s-6.91,0-6.91,0l-.3.03v-.03s-6.91,0-6.91,0l-.3.03v-.03s-2.2.03-2.2.03l-.03-4.93,2.24-.03ZM386.08,32.45v6.44s.03.11.03.11l-.98.03-.03-5.6h-2.97s-.1.02-.1.02v-.97s4.05-.03,4.05-.03ZM381.99,52.63v4.93s-2.19.03-2.19.03l-.03-4.93,2.22-.03ZM378.87,19.45v6.44s.03.11.03.11l-.98.03-.03-5.6h-2.97s-.1.02-.1.02v-.97s4.05-.03,4.05-.03ZM374.78,39.63v4.93s-2.19.03-2.19.03l-.03-4.93,2.22-.03ZM371.67,6.45l.03,6.55-.98.03-.03-5.6h-2.9s-.17.02-.17.02v-.98s4.05-.03,4.05-.03ZM353.18,65.63v.03h7.23V26.66s7.17,0,7.17,0v4.9s-4.76,0-4.76,0l-.24.03.03,38.97h-2.14s-.09.02-.09.02v-.02s-6.91,0-6.91,0l-.3.03v-.03s-2.21.03-2.21.03l-.03-4.93,2.24-.03ZM364.62,33.43l-.16.03.03,38.97h-3.94s-.17.03-.17.03v-.03s-6.91,0-6.91,0l-.3.03v-.03s-3.94,0-3.94,0l-.14.03-.03-6.8.98-.03.03,5.85,3.1-.03v.03h10.33l-.03-39,4.1-.03v.98s-2.97,0-2.97,0ZM367.68,13l-.07.02v-4.67s2.18-.03,2.18-.03l.03,4.68h-2.14ZM370.86,46.43l-.14.03-.03-6.8.98-.03.03,5.85,3.09-.03v.98s-3.93,0-3.93,0ZM374.89,26l-.07.02v-4.67s2.18-.03,2.18-.03l.03,4.68h-2.14ZM378.06,59.43l-.14.03-.03-6.8.98-.03v5.7s.03.15.03.15l3.09-.03v.98s-3.93,0-3.93,0ZM382.09,39l-.07.02v-4.67s2.18-.03,2.18-.03l.03,4.68h-2.14ZM411,72.43l-.17.02v-.03s-6.91,0-6.91,0l-.3.03v-.03s-6.91,0-6.91,0l-.3.03v-.03s-6.91,0-6.91,0l-.3.03v-.03s-3.93,0-3.93,0l-.14.03-.03-6.8.98-.03v5.7s.03.15.03.15l3.1-.03v.03h24.75V13.62s-.03-6.2-.03-6.2h-2.9s-.17.02-.17.02v-.98s4.05-.03,4.05-.03v61.88s.03,4.1.03,4.1h-3.94Z"/>
    <path d="M338.97,18.56l-.19.02-.02-5.58-2.2.03-.03-7.48h-4.66s-.3.03-.3.03l-.02-5.58h-6.75s-.45.03-.45.03v-.03s-6.75,0-6.75,0l-.45.03v-.03s-6.75,0-6.75,0l-.45.03v-.03s-6.75,0-6.75,0l-.45.03v-.03s-6.75,0-6.75,0l-.48.03v12.97s-6.88,0-6.88,0l-.33.03v48.21s.03,4.41.03,4.41l2.2-.03v7.38s.03.35.03.35h17.18l-.03-26,2.23-.03v.03h14.39v10.08s.03,8.23.03,8.23l2.2-.03.03,7.73h17.18l-.03-54.8h-4.76ZM324.32,26h-6.88s-.3.03-.3.03v-.03s-6.9,0-6.9,0l-.3.03v-.03s-2.2.03-2.2.03l-.03-4.68,2.23-.03v.03h14.39v4.65ZM324.32,20.43h-6.88s-.3.03-.3.03v-.03s-6.91,0-6.91,0l-.3.03v-.03s-2.97,0-2.97,0l-.16.03.03,5.54-.98.03-.03-6.55,4.11-.03v.03h14.39v.95ZM309.93,13.66h14.38v4.9s-6.88,0-6.88,0l-.3.03v-.03s-6.91,0-6.91,0l-.3.03v-.03s-4.77,0-4.77,0l-.24.03.03,7.41h-2.14s-.07.02-.07.02v-12.36s7.18,0,7.18,0ZM295.52,65.63v.03h7.23v-26s7.18,0,7.18,0h14.38v4.9s-6.88,0-6.88,0l-.3.03v-.03s-6.91,0-6.91,0l-.3.03v-.03s-4.77,0-4.77,0l-.24.03.03,25.97h-2.14s-.1.03-.1.03v-.03s-6.9,0-6.9,0l-.3.03v-.03s-2.2.03-2.2.03l-.03-4.93,2.24-.03ZM317.44,46.43l-.3.03v-.03s-6.91,0-6.91,0l-.3.03v-.03s-2.97,0-2.97,0l-.16.03.03,25.97h-3.94s-.17.03-.17.03v-.03s-6.9,0-6.9,0l-.3.03v-.03s-3.93,0-3.93,0l-.14.03-.03-6.8.98-.03v5.58s.03.27.03.27l3.09-.03v.03h10.34l-.03-26,4.11-.03v.03h14.39v.95s-6.88,0-6.88,0ZM335.63,6.45l.03,6.55-.98.03-.03-5.6h-2.9s-.17.03-.17.03v-.98s4.06-.03,4.06-.03ZM331.58,13.02v-3.42s0-1.24,0-1.24l2.18-.03.03,4.68h-2.14s-.07.02-.07.02ZM331.55,65.63v.03h7.23V21.35s2.18-.03,2.18-.03l.03,49.23h-2.14s-.09.02-.09.02v-.02s-6.91,0-6.91,0l-.3.03v-.03s-2.21.03-2.21.03l-.03-4.93,2.24-.03ZM338.93,72.43l-.17.02v-.03s-6.91,0-6.91,0l-.3.03v-.03s-3.94,0-3.94,0l-.14.03-.03-6.8.98-.03.03,5.85,3.09-.03v.03h10.34l-.03-51.05h-2.97s-.1.02-.1.02v-.97s4.05-.03,4.05-.03l.03,52.98h-3.94Z"/>
  </g>
  <polygon points="403.62 72.46 403.62 72.46 403.62 72.46 396.72 72.46 396.42 72.46 396.42 72.46 396.42 72.46 396.42 73.33 403.62 73.33 403.62 72.49 403.62 72.46"/>
</svg>