<svg width="588" height="73" viewBox="0 0 588 73" fill="none" xmlns="http://www.w3.org/2000/svg">
<path d="M43.1768 5.14844H48.1396V13H50.3721V18.1484H55.335V33.8838H48.1396V39H50.3721V44.1484H55.335V72.8838H38.209V65.4404H35.9766V46.8838H19.3584V72.8838H2.23242V65.4404H0V0H43.1768V5.14844ZM107.935 5.14844H112.897V20.8838H76.9209V26H93.5439V31.1484H98.5068V46.8838H76.9209V52H107.935V57.1484H112.897V72.8838H59.7949V65.4404H57.5625V0H107.935V5.14844ZM129.521 5.14844H134.483V39H136.716V44.1484H141.679V52H151.102V39H158.297V0H172.692V5.14844H177.655V46.8838H170.46V59.8838H163.265V72.8838H131.748V65.4404H129.516V59.8838H124.553V52.4404H122.32V46.8838H117.357V39.4404H115.125V0H129.521V5.14844ZM194.278 5.14844H199.241V72.8838H182.115V65.4404H179.883V0H194.278V5.14844ZM251.841 5.14844H256.804V20.8838H220.827V26H237.45V31.1484H242.413V46.8838H220.827V52H251.841V57.1484H256.804V72.8838H203.701V65.4404H201.469V0H251.841V5.14844ZM273.427 5.14844H278.39V52H280.617V39H287.812V26H295.013V31.1484H299.976V39H302.208V44.1484H307.171V52H309.398V0H323.794V5.14844H328.757V59.8838H321.562V72.8838H297.24V65.4404H295.008V59.8838H292.78V72.8838H268.459V65.4404H266.227V59.8838H261.264V52.4404H259.031V0H273.427V5.14844ZM345.38 57.1484H350.343V72.8838H333.217V65.4404H330.984V52H345.38V57.1484ZM402.942 5.14844H407.905V20.8838H371.929V26H388.552V31.1484H393.515V46.8838H371.929V72.8838H354.803V65.4404H352.57V0H402.942V5.14844ZM453.31 5.14844H458.272V13H460.505V18.1484H465.468V72.8838H448.342V65.4404H446.109V46.8838H429.491V72.8838H412.365V65.4404H410.133V13H417.328V0H453.31V5.14844ZM518.067 5.14844H523.03V20.8838H487.054V26H518.067V31.1484H523.03V72.8838H469.928V65.4404H467.695V52H503.672V46.8838H469.928V39.4404H467.695V0H518.067V5.14844ZM582.825 5.14844H587.788V20.8838H566.202V72.8838H549.076V65.4404H546.844V20.8838H527.49V13.4404H525.258V0H582.825V5.14844ZM582.825 6.97168H585.964V19.0605H564.378V71.0605H550.899V65.4404H549.987V71.9717H565.29V19.9717H586.876V6.06055H582.825V6.97168ZM17.5342 71.0605H4.05566V65.4404H3.14355V71.9717H18.4463V45.9717H35.9766V45.0605H17.5342V71.0605ZM50.3721 45.9717H53.5107V71.0605H40.0322V65.4404H39.1201V71.9717H54.4229V45.0605H50.3721V45.9717ZM107.935 58.9717H111.073V71.0605H61.6182V65.4404H60.7061V71.9717H111.985V58.0605H107.935V58.9717ZM172.692 6.97168H175.831V45.0605H168.636V58.0605H161.44V71.0605H133.571V65.4404H132.659V71.9717H162.353V58.9717H169.548V45.9717H176.743V6.06055H172.692V6.97168ZM194.278 6.97168H197.417V71.0605H183.938V65.4404H183.026V71.9717H198.329V6.06055H194.278V6.97168ZM251.841 58.9717H254.979V71.0605H205.524V65.4404H204.612V71.9717H255.892V58.0605H251.841V58.9717ZM290.956 71.0605H270.282V65.4404H269.37V71.9717H291.868V58.9717H295.008V58.0605H290.956V71.0605ZM323.794 6.97168H326.933V58.0605H319.737V71.0605H299.063V65.4404H298.151V71.9717H320.649V58.9717H327.845V6.06055H323.794V6.97168ZM345.38 58.9717H348.519V71.0605H335.04V65.4404H334.128V71.9717H349.431V58.0605H345.38V58.9717ZM388.552 32.9717H391.69V45.0605H370.104V71.0605H356.626V65.4404H355.714V71.9717H371.017V45.9717H392.603V32.0605H388.552V32.9717ZM427.667 71.0605H414.188V65.4404H413.276V71.9717H428.579V45.9717H446.109V45.0605H427.667V71.0605ZM460.505 19.9717H463.644V71.0605H450.165V65.4404H449.253V71.9717H464.556V19.0605H460.505V19.9717ZM518.067 32.9717H521.206V71.0605H471.751V65.4404H470.839V71.9717H522.118V32.0605H518.067V32.9717ZM582.825 13.4404H561.239V65.4404H551.812V70.1484H563.467V18.1484H585.053V7.88379H582.825V13.4404ZM14.3955 65.4404H4.96777V70.1484H16.623V44.1484H35.9766V39.4404H14.3955V65.4404ZM50.3721 65.4404H40.9443V70.1484H52.5996V46.8838H50.3721V65.4404ZM107.935 65.4404H62.5303V70.1484H110.162V59.8838H107.935V65.4404ZM172.692 39.4404H165.497V52.4404H158.302V65.4404H134.483V70.1484H160.529V57.1484H167.725V44.1484H174.92V7.88379H172.692V39.4404ZM194.278 65.4404H184.851V70.1484H196.506V7.88379H194.278V65.4404ZM251.841 65.4404H206.437V70.1484H254.068V59.8838H251.841V65.4404ZM287.817 65.4404H271.194V70.1484H290.045V57.1484H295.008V52.4404H287.817V65.4404ZM323.794 52.4404H316.599V65.4404H299.976V70.1484H318.826V57.1484H326.021V7.88379H323.794V52.4404ZM345.38 65.4404H335.952V70.1484H347.607V59.8838H345.38V65.4404ZM388.552 39.4404H366.966V65.4404H357.538V70.1484H369.193V44.1484H390.779V33.8838H388.552V39.4404ZM424.528 65.4404H415.101V70.1484H426.756V44.1484H446.109V39.4404H424.528V65.4404ZM460.505 65.4404H451.077V70.1484H462.732V20.8838H460.505V65.4404ZM518.067 65.4404H472.663V70.1484H520.295V33.8838H518.067V65.4404ZM125.464 58.9717H129.516V58.0605H126.376V52.4404H125.464V58.9717ZM262.175 58.9717H266.227V58.0605H263.087V52.4404H262.175V58.9717ZM127.288 57.1484H129.516V52.4404H127.288V57.1484ZM263.999 57.1484H266.227V52.4404H263.999V57.1484ZM93.5439 39.4404H71.958V52H74.1855V44.1484H95.7715V33.8838H93.5439V39.4404ZM93.5439 32.9717H96.6826V45.0605H75.0967V52H76.0088V45.9717H97.5947V32.0605H93.5439V32.9717ZM136.716 52H138.943V46.8838H136.716V52ZM136.716 45.9717H139.854V52H140.767V45.0605H136.716V45.9717ZM237.45 39.4404H215.864V52H218.092V44.1484H239.678V33.8838H237.45V39.4404ZM237.45 32.9717H240.589V45.0605H219.003V52H219.915V45.9717H241.501V32.0605H237.45V32.9717ZM273.427 52H275.654V7.88379H273.427V52ZM273.427 6.97168H276.565V52H277.478V6.06055H273.427V6.97168ZM302.208 52H304.436V46.8838H302.208V52ZM302.208 45.9717H305.347V52H306.259V45.0605H302.208V45.9717ZM118.269 45.9717H122.32V45.0605H119.181V39.4404H118.269V45.9717ZM470.839 45.9717H503.672V45.0605H471.751V39.4404H470.839V45.9717ZM120.093 44.1484H122.32V39.4404H120.093V44.1484ZM472.663 44.1484H503.672V39.4404H472.663V44.1484ZM50.3721 26.4404H43.1768V39H45.4043V31.1484H52.5996V20.8838H50.3721V26.4404ZM50.3721 19.9717H53.5107V32.0605H46.3154V39H47.2275V32.9717H54.4229V19.0605H50.3721V19.9717ZM129.521 39H131.748V7.88379H129.521V39ZM129.521 6.97168H132.659V39H133.571V6.06055H129.521V6.97168ZM295.013 39H297.24V33.8838H295.013V39ZM295.013 32.9717H298.151V39H299.063V32.0605H295.013V32.9717ZM14.3955 26H16.623V18.1484H35.9766V13.4404H14.3955V26ZM17.5342 26H18.4463V19.9717H35.9766V19.0605H17.5342V26ZM19.3584 26H35.9766V20.8838H19.3584V26ZM107.935 13.4404H71.958V26H74.1855V18.1484H110.162V7.88379H107.935V13.4404ZM107.935 6.97168H111.073V19.0605H75.0967V26H76.0088V19.9717H111.985V6.06055H107.935V6.97168ZM251.841 13.4404H215.864V26H218.092V18.1484H254.068V7.88379H251.841V13.4404ZM251.841 6.97168H254.979V19.0605H219.003V26H219.915V19.9717H255.892V6.06055H251.841V6.97168ZM402.942 13.4404H366.966V26H369.193V18.1484H405.17V7.88379H402.942V13.4404ZM402.942 6.97168H406.081V19.0605H370.104V26H371.017V19.9717H406.993V6.06055H402.942V6.97168ZM424.528 26H426.756V18.1484H446.109V13.4404H424.528V26ZM427.667 26H428.579V19.9717H446.109V19.0605H427.667V26ZM429.491 26H446.109V20.8838H429.491V26ZM518.067 13.4404H482.091V26H484.318V18.1484H520.295V7.88379H518.067V13.4404ZM518.067 6.97168H521.206V19.0605H485.229V26H486.142V19.9717H522.118V6.06055H518.067V6.97168ZM528.401 19.9717H546.844V19.0605H529.313V13.4404H528.401V19.9717ZM530.226 18.1484H546.844V13.4404H530.226V18.1484ZM43.1768 13H45.4043V7.88379H43.1768V13ZM43.1768 6.97168H46.3154V13H47.2275V6.06055H43.1768V6.97168ZM453.31 13H455.537V7.88379H453.31V13ZM453.31 6.97168H456.448V13H457.36V6.06055H453.31V6.97168Z" fill="white"/>
</svg>
