<svg width="150" height="150" viewBox="0 0 150 150" fill="none" xmlns="http://www.w3.org/2000/svg">
<g clip-path="url(#clip0_19_2)">
<mask id="mask0_19_2" style="mask-type:alpha" maskUnits="userSpaceOnUse" x="14" y="39" width="604" height="74">
<path d="M14 52.6035V39.0098H21.2012V52.6035H14ZM21.207 52.6035V39.0098H28.4082V52.6035H21.207ZM32.5215 52.6035V45.4258H28.4141V44.5645H33.3828V52.6035H32.5215ZM30.6465 47.3008H28.4141V46.4395H31.5078V52.6035H30.6465V47.3008ZM57.2422 52.6035V39.0098H64.4434V52.6035H57.2422ZM64.4492 52.6035V39.0098H71.6504V52.6035H64.4492ZM75.7637 52.6035V45.4258H71.6562V44.5645H76.625V52.6035H75.7637ZM73.8887 47.3008H71.6562V46.4395H74.75V52.6035H73.8887V47.3008ZM78.8633 52.6035V39.0098H86.0645V52.6035H78.8633ZM86.0703 52.6035V39.0098H93.2715V52.6035H86.0703ZM97.3848 52.6035V45.4258H93.2773V44.5645H98.2461V52.6035H97.3848ZM95.5098 47.3008H93.2773V46.4395H96.3711V52.6035H95.5098V47.3008ZM100.484 52.6035V39.0098H107.686V52.6035H100.484ZM107.691 52.6035V39.0098H114.893V52.6035H107.691ZM114.898 52.6035V39.0098H122.1V52.6035H114.898ZM122.105 52.6035V39.0098H129.307V52.6035H122.105ZM129.312 52.6035V39.0098H136.514V52.6035H129.312ZM136.52 52.6035V39.0098H143.721V52.6035H136.52ZM147.834 52.6035V45.4258H143.727V44.5645H148.695V52.6035H147.834ZM145.959 47.3008H143.727V46.4395H146.82V52.6035H145.959V47.3008ZM158.141 52.6035V39.0098H165.342V52.6035H158.141ZM165.348 52.6035V39.0098H172.549V52.6035H165.348ZM172.555 52.6035V39.0098H179.756V52.6035H172.555ZM179.762 52.6035V39.0098H186.963V52.6035H179.762ZM186.969 52.6035V39.0098H194.17V52.6035H186.969ZM194.176 52.6035V39.0098H201.377V52.6035H194.176ZM201.383 52.6035V39.0098H208.584V52.6035H201.383ZM212.697 52.6035V45.4258H208.59V44.5645H213.559V52.6035H212.697ZM210.822 47.3008H208.59V46.4395H211.684V52.6035H210.822V47.3008ZM244.625 52.6035V39.0098H251.826V52.6035H244.625ZM251.832 52.6035V39.0098H259.033V52.6035H251.832ZM263.146 52.6035V45.4258H259.039V44.5645H264.008V52.6035H263.146ZM261.271 47.3008H259.039V46.4395H262.133V52.6035H261.271V47.3008ZM280.66 52.6035V39.0098H287.861V52.6035H280.66ZM287.867 52.6035V39.0098H295.068V52.6035H287.867ZM299.182 52.6035V45.4258H295.074V44.5645H300.043V52.6035H299.182ZM297.307 47.3008H295.074V46.4395H298.168V52.6035H297.307V47.3008ZM309.488 52.6035V39.0098H316.689V52.6035H309.488ZM316.695 52.6035V39.0098H323.896V52.6035H316.695ZM323.902 52.6035V39.0098H331.104V52.6035H323.902ZM331.109 52.6035V39.0098H338.311V52.6035H331.109ZM338.316 52.6035V39.0098H345.518V52.6035H338.316ZM349.631 52.6035V45.4258H345.523V44.5645H350.492V52.6035H349.631ZM347.756 47.3008H345.523V46.4395H348.617V52.6035H347.756V47.3008ZM359.938 52.6035V39.0098H367.139V52.6035H359.938ZM367.145 52.6035V39.0098H374.346V52.6035H367.145ZM374.352 52.6035V39.0098H381.553V52.6035H374.352ZM385.666 52.6035V45.4258H381.559V44.5645H386.527V52.6035H385.666ZM383.791 47.3008H381.559V46.4395H384.652V52.6035H383.791V47.3008ZM410.387 52.6035V39.0098H417.588V52.6035H410.387ZM417.594 52.6035V39.0098H424.795V52.6035H417.594ZM428.908 52.6035V45.4258H424.801V44.5645H429.77V52.6035H428.908ZM427.033 47.3008H424.801V46.4395H427.895V52.6035H427.033V47.3008ZM432.008 52.6035V39.0098H439.209V52.6035H432.008ZM439.215 52.6035V39.0098H446.416V52.6035H439.215ZM446.422 52.6035V39.0098H453.623V52.6035H446.422ZM453.629 52.6035V39.0098H460.83V52.6035H453.629ZM460.836 52.6035V39.0098H468.037V52.6035H460.836ZM468.043 52.6035V39.0098H475.244V52.6035H468.043ZM479.357 52.6035V45.4258H475.25V44.5645H480.219V52.6035H479.357ZM477.482 47.3008H475.25V46.4395H478.344V52.6035H477.482V47.3008ZM496.871 52.6035V39.0098H504.072V52.6035H496.871ZM504.078 52.6035V39.0098H511.279V52.6035H504.078ZM511.285 52.6035V39.0098H518.486V52.6035H511.285ZM518.492 52.6035V39.0098H525.693V52.6035H518.492ZM525.699 52.6035V39.0098H532.9V52.6035H525.699ZM537.014 52.6035V45.4258H532.906V44.5645H537.875V52.6035H537.014ZM535.139 47.3008H532.906V46.4395H536V52.6035H535.139V47.3008ZM547.32 52.6035V39.0098H554.521V52.6035H547.32ZM554.527 52.6035V39.0098H561.729V52.6035H554.527ZM561.734 52.6035V39.0098H568.936V52.6035H561.734ZM573.049 52.6035V45.4258H568.941V44.5645H573.91V52.6035H573.049ZM571.174 47.3008H568.941V46.4395H572.035V52.6035H571.174V47.3008ZM597.77 52.6035V39.0098H604.971V52.6035H597.77ZM604.977 52.6035V39.0098H612.178V52.6035H604.977ZM616.291 52.6035V45.4258H612.184V44.5645H617.152V52.6035H616.291ZM614.416 47.3008H612.184V46.4395H615.277V52.6035H614.416V47.3008ZM14 65.6035V52.0098H21.2012V65.6035H14ZM21.207 65.6035V52.0098H28.4082V65.6035H21.207ZM32.5215 65.6035V52.0098H33.3828V65.6035H32.5215ZM30.6465 65.6035V52.0098H31.5078V65.6035H30.6465ZM57.2422 65.6035V52.0098H64.4434V65.6035H57.2422ZM64.4492 65.6035V52.0098H71.6504V65.6035H64.4492ZM75.7637 65.6035V52.0098H76.625V65.6035H75.7637ZM73.8887 65.6035V52.0098H74.75V65.6035H73.8887ZM78.8633 65.6035V52.0098H86.0645V65.6035H78.8633ZM86.0703 65.6035V52.0098H93.2715V65.6035H86.0703ZM97.3848 65.6035V52.0098H98.2461V65.6035H97.3848ZM95.5098 65.6035V52.0098H96.3711V65.6035H95.5098ZM100.484 65.6035V52.0098H107.686V65.6035H100.484ZM107.691 65.6035V52.0098H114.893V65.6035H107.691ZM117.992 65.6035H117.131V57.5645H122.1V58.4258H117.992V65.6035ZM119.867 60.3008V65.6035H119.006V59.4395H122.1V60.3008H119.867ZM129.307 58.4258H122.105V57.5645H129.307V58.4258ZM129.307 60.3008H122.105V59.4395H129.307V60.3008ZM136.514 58.4258H129.312V57.5645H136.514V58.4258ZM136.514 60.3008H129.312V59.4395H136.514V60.3008ZM136.52 65.6035V52.0098H143.721V65.6035H136.52ZM143.727 65.6035V52.0098H150.928V65.6035H143.727ZM155.041 65.6035V58.4258H150.934V57.5645H155.902V65.6035H155.041ZM153.166 60.3008H150.934V59.4395H154.027V65.6035H153.166V60.3008ZM158.141 65.6035V52.0098H165.342V65.6035H158.141ZM165.348 65.6035V52.0098H172.549V65.6035H165.348ZM175.648 65.6035H174.787V57.5645H179.756V58.4258H175.648V65.6035ZM177.523 60.3008V65.6035H176.662V59.4395H179.756V60.3008H177.523ZM186.963 58.4258H179.762V57.5645H186.963V58.4258ZM186.963 60.3008H179.762V59.4395H186.963V60.3008ZM194.17 58.4258H186.969V57.5645H194.17V58.4258ZM194.17 60.3008H186.969V59.4395H194.17V60.3008ZM201.377 58.4258H194.176V57.5645H201.377V58.4258ZM201.377 60.3008H194.176V59.4395H201.377V60.3008ZM208.584 58.4258H201.383V57.5645H208.584V58.4258ZM208.584 60.3008H201.383V59.4395H208.584V60.3008ZM212.697 52.0098H213.559V60.3008H208.59V59.4395H212.697V52.0098ZM210.822 57.5645V52.0098H211.684V58.4258H208.59V57.5645H210.822ZM244.625 65.6035V52.0098H251.826V65.6035H244.625ZM251.832 65.6035V52.0098H259.033V65.6035H251.832ZM263.146 65.6035V52.0098H264.008V65.6035H263.146ZM261.271 65.6035V52.0098H262.133V65.6035H261.271ZM273.453 65.6035V52.0098H280.654V65.6035H273.453ZM280.66 65.6035V52.0098H287.861V65.6035H280.66ZM290.961 65.6035H290.1V57.5645H295.068V58.4258H290.961V65.6035ZM292.836 60.3008V65.6035H291.975V59.4395H295.068V60.3008H292.836ZM299.182 52.0098H300.043V60.3008H295.074V59.4395H299.182V52.0098ZM297.307 57.5645V52.0098H298.168V58.4258H295.074V57.5645H297.307ZM302.281 65.6035V52.0098H309.482V65.6035H302.281ZM309.488 65.6035V52.0098H316.689V65.6035H309.488ZM319.789 65.6035H318.928V57.5645H323.896V58.4258H319.789V65.6035ZM321.664 60.3008V65.6035H320.803V59.4395H323.896V60.3008H321.664ZM331.104 58.4258H323.902V57.5645H331.104V58.4258ZM331.104 60.3008H323.902V59.4395H331.104V60.3008ZM338.311 58.4258H331.109V57.5645H338.311V58.4258ZM338.311 60.3008H331.109V59.4395H338.311V60.3008ZM338.316 65.6035V52.0098H345.518V65.6035H338.316ZM345.523 65.6035V52.0098H352.725V65.6035H345.523ZM356.838 65.6035V58.4258H352.73V57.5645H357.699V65.6035H356.838ZM354.963 60.3008H352.73V59.4395H355.824V65.6035H354.963V60.3008ZM359.938 65.6035V52.0098H367.139V65.6035H359.938ZM367.145 65.6035V52.0098H374.346V65.6035H367.145ZM374.352 65.6035V52.0098H381.553V65.6035H374.352ZM381.559 65.6035V52.0098H388.76V65.6035H381.559ZM392.873 65.6035V58.4258H388.766V57.5645H393.734V65.6035H392.873ZM390.998 60.3008H388.766V59.4395H391.859V65.6035H390.998V60.3008ZM410.387 65.6035V52.0098H417.588V65.6035H410.387ZM417.594 65.6035V52.0098H424.795V65.6035H417.594ZM428.908 65.6035V52.0098H429.77V65.6035H428.908ZM427.033 65.6035V52.0098H427.895V65.6035H427.033ZM432.008 65.6035V52.0098H439.209V65.6035H432.008ZM439.215 65.6035V52.0098H446.416V65.6035H439.215ZM449.516 65.6035H448.654V57.5645H453.623V58.4258H449.516V65.6035ZM451.391 60.3008V65.6035H450.529V59.4395H453.623V60.3008H451.391ZM460.83 58.4258H453.629V57.5645H460.83V58.4258ZM460.83 60.3008H453.629V59.4395H460.83V60.3008ZM468.037 58.4258H460.836V57.5645H468.037V58.4258ZM468.037 60.3008H460.836V59.4395H468.037V60.3008ZM468.043 65.6035V52.0098H475.244V65.6035H468.043ZM475.25 65.6035V52.0098H482.451V65.6035H475.25ZM486.564 65.6035V58.4258H482.457V57.5645H487.426V65.6035H486.564ZM484.689 60.3008H482.457V59.4395H485.551V65.6035H484.689V60.3008ZM489.664 65.6035V52.0098H496.865V65.6035H489.664ZM496.871 65.6035V52.0098H504.072V65.6035H496.871ZM507.172 65.6035H506.311V57.5645H511.279V58.4258H507.172V65.6035ZM509.047 60.3008V65.6035H508.186V59.4395H511.279V60.3008H509.047ZM518.486 58.4258H511.285V57.5645H518.486V58.4258ZM518.486 60.3008H511.285V59.4395H518.486V60.3008ZM525.693 58.4258H518.492V57.5645H525.693V58.4258ZM525.693 60.3008H518.492V59.4395H525.693V60.3008ZM525.699 65.6035V52.0098H532.9V65.6035H525.699ZM532.906 65.6035V52.0098H540.107V65.6035H532.906ZM544.221 65.6035V58.4258H540.113V57.5645H545.082V65.6035H544.221ZM542.346 60.3008H540.113V59.4395H543.207V65.6035H542.346V60.3008ZM547.32 65.6035V52.0098H554.521V65.6035H547.32ZM554.527 65.6035V52.0098H561.729V65.6035H554.527ZM561.734 65.6035V52.0098H568.936V65.6035H561.734ZM568.941 65.6035V52.0098H576.143V65.6035H568.941ZM580.256 65.6035V58.4258H576.148V57.5645H581.117V65.6035H580.256ZM578.381 60.3008H576.148V59.4395H579.242V65.6035H578.381V60.3008ZM597.77 65.6035V52.0098H604.971V65.6035H597.77ZM604.977 65.6035V52.0098H612.178V65.6035H604.977ZM616.291 65.6035V52.0098H617.152V65.6035H616.291ZM614.416 65.6035V52.0098H615.277V65.6035H614.416ZM14 78.6035V65.0098H21.2012V78.6035H14ZM21.207 78.6035V65.0098H28.4082V78.6035H21.207ZM32.5215 78.6035V65.0098H33.3828V78.6035H32.5215ZM30.6465 78.6035V65.0098H31.5078V78.6035H30.6465ZM57.2422 78.6035V65.0098H64.4434V78.6035H57.2422ZM64.4492 78.6035V65.0098H71.6504V78.6035H64.4492ZM75.7637 78.6035V65.0098H76.625V78.6035H75.7637ZM73.8887 78.6035V65.0098H74.75V78.6035H73.8887ZM78.8633 78.6035V65.0098H86.0645V78.6035H78.8633ZM86.0703 78.6035V65.0098H93.2715V78.6035H86.0703ZM97.3848 78.6035V65.0098H98.2461V78.6035H97.3848ZM95.5098 78.6035V65.0098H96.3711V78.6035H95.5098ZM100.484 78.6035V65.0098H107.686V78.6035H100.484ZM107.691 78.6035V65.0098H114.893V78.6035H107.691ZM114.898 78.6035V65.0098H122.1V78.6035H114.898ZM122.105 78.6035V65.0098H129.307V78.6035H122.105ZM129.312 78.6035V65.0098H136.514V78.6035H129.312ZM136.52 78.6035V65.0098H143.721V78.6035H136.52ZM146.82 78.6035H145.959V70.5645H150.928V71.4258H146.82V78.6035ZM148.695 73.3008V78.6035H147.834V72.4395H150.928V73.3008H148.695ZM155.041 65.0098H155.902V73.3008H150.934V72.4395H155.041V65.0098ZM153.166 70.5645V65.0098H154.027V71.4258H150.934V70.5645H153.166ZM158.141 78.6035V65.0098H165.342V78.6035H158.141ZM165.348 78.6035V65.0098H172.549V78.6035H165.348ZM172.555 78.6035V65.0098H179.756V78.6035H172.555ZM179.762 78.6035V65.0098H186.963V78.6035H179.762ZM186.969 78.6035V65.0098H194.17V78.6035H186.969ZM198.283 78.6035V71.4258H194.176V70.5645H199.145V78.6035H198.283ZM196.408 73.3008H194.176V72.4395H197.27V78.6035H196.408V73.3008ZM201.383 78.6035V65.0098H208.584V78.6035H201.383ZM208.59 78.6035V65.0098H215.791V78.6035H208.59ZM215.797 78.6035V65.0098H222.998V78.6035H215.797ZM223.004 78.6035V65.0098H230.205V78.6035H223.004ZM230.211 78.6035V65.0098H237.412V78.6035H230.211ZM241.525 78.6035V71.4258H237.418V70.5645H242.387V78.6035H241.525ZM239.65 73.3008H237.418V72.4395H240.512V78.6035H239.65V73.3008ZM244.625 78.6035V65.0098H251.826V78.6035H244.625ZM251.832 78.6035V65.0098H259.033V78.6035H251.832ZM259.039 78.6035V65.0098H266.24V78.6035H259.039ZM266.246 78.6035V65.0098H273.447V78.6035H266.246ZM273.453 78.6035V65.0098H280.654V78.6035H273.453ZM283.754 78.6035H282.893V70.5645H287.861V71.4258H283.754V78.6035ZM285.629 73.3008V78.6035H284.768V72.4395H287.861V73.3008H285.629ZM291.975 65.0098H292.836V73.3008H287.867V72.4395H291.975V65.0098ZM290.1 70.5645V65.0098H290.961V71.4258H287.867V70.5645H290.1ZM302.281 78.6035V65.0098H309.482V78.6035H302.281ZM309.488 78.6035V65.0098H316.689V78.6035H309.488ZM316.695 78.6035V65.0098H323.896V78.6035H316.695ZM323.902 78.6035V65.0098H331.104V78.6035H323.902ZM331.109 78.6035V65.0098H338.311V78.6035H331.109ZM338.316 78.6035V65.0098H345.518V78.6035H338.316ZM345.523 78.6035V65.0098H352.725V78.6035H345.523ZM356.838 78.6035V65.0098H357.699V78.6035H356.838ZM354.963 78.6035V65.0098H355.824V78.6035H354.963ZM359.938 78.6035V65.0098H367.139V78.6035H359.938ZM367.145 78.6035V65.0098H374.346V78.6035H367.145ZM377.445 78.6035H376.584V70.5645H381.553V71.4258H377.445V78.6035ZM379.32 73.3008V78.6035H378.459V72.4395H381.553V73.3008H379.32ZM381.559 78.6035V65.0098H388.76V78.6035H381.559ZM388.766 78.6035V65.0098H395.967V78.6035H388.766ZM400.08 78.6035V71.4258H395.973V70.5645H400.941V78.6035H400.08ZM398.205 73.3008H395.973V72.4395H399.066V78.6035H398.205V73.3008ZM410.387 78.6035V65.0098H417.588V78.6035H410.387ZM417.594 78.6035V65.0098H424.795V78.6035H417.594ZM428.908 78.6035V65.0098H429.77V78.6035H428.908ZM427.033 78.6035V65.0098H427.895V78.6035H427.033ZM432.008 78.6035V65.0098H439.209V78.6035H432.008ZM439.215 78.6035V65.0098H446.416V78.6035H439.215ZM446.422 78.6035V65.0098H453.623V78.6035H446.422ZM453.629 78.6035V65.0098H460.83V78.6035H453.629ZM460.836 78.6035V65.0098H468.037V78.6035H460.836ZM468.043 78.6035V65.0098H475.244V78.6035H468.043ZM478.344 78.6035H477.482V70.5645H482.451V71.4258H478.344V78.6035ZM480.219 73.3008V78.6035H479.357V72.4395H482.451V73.3008H480.219ZM486.564 65.0098H487.426V73.3008H482.457V72.4395H486.564V65.0098ZM484.689 70.5645V65.0098H485.551V71.4258H482.457V70.5645H484.689ZM489.664 78.6035V65.0098H496.865V78.6035H489.664ZM496.871 78.6035V65.0098H504.072V78.6035H496.871ZM504.078 78.6035V65.0098H511.279V78.6035H504.078ZM511.285 78.6035V65.0098H518.486V78.6035H511.285ZM518.492 78.6035V65.0098H525.693V78.6035H518.492ZM525.699 78.6035V65.0098H532.9V78.6035H525.699ZM532.906 78.6035V65.0098H540.107V78.6035H532.906ZM544.221 78.6035V65.0098H545.082V78.6035H544.221ZM542.346 78.6035V65.0098H543.207V78.6035H542.346ZM547.32 78.6035V65.0098H554.521V78.6035H547.32ZM554.527 78.6035V65.0098H561.729V78.6035H554.527ZM564.828 78.6035H563.967V70.5645H568.936V71.4258H564.828V78.6035ZM566.703 73.3008V78.6035H565.842V72.4395H568.936V73.3008H566.703ZM568.941 78.6035V65.0098H576.143V78.6035H568.941ZM576.148 78.6035V65.0098H583.35V78.6035H576.148ZM587.463 78.6035V71.4258H583.355V70.5645H588.324V78.6035H587.463ZM585.588 73.3008H583.355V72.4395H586.449V78.6035H585.588V73.3008ZM597.77 78.6035V65.0098H604.971V78.6035H597.77ZM604.977 78.6035V65.0098H612.178V78.6035H604.977ZM616.291 78.6035V65.0098H617.152V78.6035H616.291ZM614.416 78.6035V65.0098H615.277V78.6035H614.416ZM17.0938 78.0098V85.4395H21.2012V86.3008H16.2324V78.0098H17.0938ZM18.9688 83.5645H21.2012V84.4258H18.1074V78.0098H18.9688V83.5645ZM21.207 91.6035V78.0098H28.4082V91.6035H21.207ZM28.4141 91.6035V78.0098H35.6152V91.6035H28.4141ZM39.7285 91.6035V84.4258H35.6211V83.5645H40.5898V91.6035H39.7285ZM37.8535 86.3008H35.6211V85.4395H38.7148V91.6035H37.8535V86.3008ZM50.0352 91.6035V78.0098H57.2363V91.6035H50.0352ZM57.2422 91.6035V78.0098H64.4434V91.6035H57.2422ZM67.543 91.6035H66.6816V83.5645H71.6504V84.4258H67.543V91.6035ZM69.418 86.3008V91.6035H68.5566V85.4395H71.6504V86.3008H69.418ZM75.7637 78.0098H76.625V86.3008H71.6562V85.4395H75.7637V78.0098ZM73.8887 83.5645V78.0098H74.75V84.4258H71.6562V83.5645H73.8887ZM78.8633 91.6035V78.0098H86.0645V91.6035H78.8633ZM86.0703 91.6035V78.0098H93.2715V91.6035H86.0703ZM97.3848 91.6035V78.0098H98.2461V91.6035H97.3848ZM95.5098 91.6035V78.0098H96.3711V91.6035H95.5098ZM100.484 91.6035V78.0098H107.686V91.6035H100.484ZM107.691 91.6035V78.0098H114.893V91.6035H107.691ZM117.992 91.6035H117.131V83.5645H122.1V84.4258H117.992V91.6035ZM119.867 86.3008V91.6035H119.006V85.4395H122.1V86.3008H119.867ZM129.307 84.4258H122.105V83.5645H129.307V84.4258ZM129.307 86.3008H122.105V85.4395H129.307V86.3008ZM136.514 84.4258H129.312V83.5645H136.514V84.4258ZM136.514 86.3008H129.312V85.4395H136.514V86.3008ZM136.52 91.6035V78.0098H143.721V91.6035H136.52ZM143.727 91.6035V78.0098H150.928V91.6035H143.727ZM155.041 91.6035V84.4258H150.934V83.5645H155.902V91.6035H155.041ZM153.166 86.3008H150.934V85.4395H154.027V91.6035H153.166V86.3008ZM158.141 91.6035V78.0098H165.342V91.6035H158.141ZM165.348 91.6035V78.0098H172.549V91.6035H165.348ZM175.648 91.6035H174.787V83.5645H179.756V84.4258H175.648V91.6035ZM177.523 86.3008V91.6035H176.662V85.4395H179.756V86.3008H177.523ZM186.963 84.4258H179.762V83.5645H186.963V84.4258ZM186.963 86.3008H179.762V85.4395H186.963V86.3008ZM194.17 84.4258H186.969V83.5645H194.17V84.4258ZM194.17 86.3008H186.969V85.4395H194.17V86.3008ZM198.283 78.0098H199.145V86.3008H194.176V85.4395H198.283V78.0098ZM196.408 83.5645V78.0098H197.27V84.4258H194.176V83.5645H196.408ZM204.477 78.0098V85.4395H208.584V86.3008H203.615V78.0098H204.477ZM206.352 83.5645H208.584V84.4258H205.49V78.0098H206.352V83.5645ZM215.791 84.4258H208.59V83.5645H215.791V84.4258ZM215.791 86.3008H208.59V85.4395H215.791V86.3008ZM222.998 84.4258H215.797V83.5645H222.998V84.4258ZM222.998 86.3008H215.797V85.4395H222.998V86.3008ZM230.205 84.4258H223.004V83.5645H230.205V84.4258ZM230.205 86.3008H223.004V85.4395H230.205V86.3008ZM237.412 84.4258H230.211V83.5645H237.412V84.4258ZM237.412 86.3008H230.211V85.4395H237.412V86.3008ZM241.525 78.0098H242.387V86.3008H237.418V85.4395H241.525V78.0098ZM239.65 83.5645V78.0098H240.512V84.4258H237.418V83.5645H239.65ZM244.625 91.6035V78.0098H251.826V91.6035H244.625ZM251.832 91.6035V78.0098H259.033V91.6035H251.832ZM262.133 91.6035H261.271V83.5645H266.24V84.4258H262.133V91.6035ZM264.008 86.3008V91.6035H263.146V85.4395H266.24V86.3008H264.008ZM273.447 84.4258H266.246V83.5645H273.447V84.4258ZM273.447 86.3008H266.246V85.4395H273.447V86.3008ZM273.453 91.6035V78.0098H280.654V91.6035H273.453ZM280.66 91.6035V78.0098H287.861V91.6035H280.66ZM291.975 91.6035V84.4258H287.867V83.5645H292.836V91.6035H291.975ZM290.1 86.3008H287.867V85.4395H290.961V91.6035H290.1V86.3008ZM302.281 91.6035V78.0098H309.482V91.6035H302.281ZM309.488 91.6035V78.0098H316.689V91.6035H309.488ZM319.789 91.6035H318.928V83.5645H323.896V84.4258H319.789V91.6035ZM321.664 86.3008V91.6035H320.803V85.4395H323.896V86.3008H321.664ZM331.104 84.4258H323.902V83.5645H331.104V84.4258ZM331.104 86.3008H323.902V85.4395H331.104V86.3008ZM338.311 84.4258H331.109V83.5645H338.311V84.4258ZM338.311 86.3008H331.109V85.4395H338.311V86.3008ZM338.316 91.6035V78.0098H345.518V91.6035H338.316ZM345.523 91.6035V78.0098H352.725V91.6035H345.523ZM356.838 91.6035V78.0098H357.699V91.6035H356.838ZM354.963 91.6035V78.0098H355.824V91.6035H354.963ZM359.938 91.6035V78.0098H367.139V91.6035H359.938ZM367.145 91.6035V78.0098H374.346V91.6035H367.145ZM378.459 91.6035V78.0098H379.32V91.6035H378.459ZM376.584 91.6035V78.0098H377.445V91.6035H376.584ZM384.652 78.0098V85.4395H388.76V86.3008H383.791V78.0098H384.652ZM386.527 83.5645H388.76V84.4258H385.666V78.0098H386.527V83.5645ZM388.766 91.6035V78.0098H395.967V91.6035H388.766ZM395.973 91.6035V78.0098H403.174V91.6035H395.973ZM407.287 91.6035V84.4258H403.18V83.5645H408.148V91.6035H407.287ZM405.412 86.3008H403.18V85.4395H406.273V91.6035H405.412V86.3008ZM410.387 91.6035V78.0098H417.588V91.6035H410.387ZM417.594 91.6035V78.0098H424.795V91.6035H417.594ZM428.908 91.6035V78.0098H429.77V91.6035H428.908ZM427.033 91.6035V78.0098H427.895V91.6035H427.033ZM432.008 91.6035V78.0098H439.209V91.6035H432.008ZM439.215 91.6035V78.0098H446.416V91.6035H439.215ZM449.516 91.6035H448.654V83.5645H453.623V84.4258H449.516V91.6035ZM451.391 86.3008V91.6035H450.529V85.4395H453.623V86.3008H451.391ZM460.83 84.4258H453.629V83.5645H460.83V84.4258ZM460.83 86.3008H453.629V85.4395H460.83V86.3008ZM468.037 84.4258H460.836V83.5645H468.037V84.4258ZM468.037 86.3008H460.836V85.4395H468.037V86.3008ZM468.043 91.6035V78.0098H475.244V91.6035H468.043ZM475.25 91.6035V78.0098H482.451V91.6035H475.25ZM486.564 91.6035V84.4258H482.457V83.5645H487.426V91.6035H486.564ZM484.689 86.3008H482.457V85.4395H485.551V91.6035H484.689V86.3008ZM489.664 91.6035V78.0098H496.865V91.6035H489.664ZM496.871 91.6035V78.0098H504.072V91.6035H496.871ZM507.172 91.6035H506.311V83.5645H511.279V84.4258H507.172V91.6035ZM509.047 86.3008V91.6035H508.186V85.4395H511.279V86.3008H509.047ZM518.486 84.4258H511.285V83.5645H518.486V84.4258ZM518.486 86.3008H511.285V85.4395H518.486V86.3008ZM525.693 84.4258H518.492V83.5645H525.693V84.4258ZM525.693 86.3008H518.492V85.4395H525.693V86.3008ZM525.699 91.6035V78.0098H532.9V91.6035H525.699ZM532.906 91.6035V78.0098H540.107V91.6035H532.906ZM544.221 91.6035V78.0098H545.082V91.6035H544.221ZM542.346 91.6035V78.0098H543.207V91.6035H542.346ZM547.32 91.6035V78.0098H554.521V91.6035H547.32ZM554.527 91.6035V78.0098H561.729V91.6035H554.527ZM565.842 91.6035V78.0098H566.703V91.6035H565.842ZM563.967 91.6035V78.0098H564.828V91.6035H563.967ZM572.035 78.0098V85.4395H576.143V86.3008H571.174V78.0098H572.035ZM573.91 83.5645H576.143V84.4258H573.049V78.0098H573.91V83.5645ZM576.148 91.6035V78.0098H583.35V91.6035H576.148ZM583.355 91.6035V78.0098H590.557V91.6035H583.355ZM594.67 91.6035V84.4258H590.562V83.5645H595.531V91.6035H594.67ZM592.795 86.3008H590.562V85.4395H593.656V91.6035H592.795V86.3008ZM597.77 91.6035V78.0098H604.971V91.6035H597.77ZM604.977 91.6035V78.0098H612.178V91.6035H604.977ZM616.291 91.6035V78.0098H617.152V91.6035H616.291ZM614.416 91.6035V78.0098H615.277V91.6035H614.416ZM24.3008 91.0098V98.4395H28.4082V99.3008H23.4395V91.0098H24.3008ZM26.1758 96.5645H28.4082V97.4258H25.3145V91.0098H26.1758V96.5645ZM28.4141 104.604V91.0098H35.6152V104.604H28.4141ZM35.6211 104.604V91.0098H42.8223V104.604H35.6211ZM42.8281 104.604V91.0098H50.0293V104.604H42.8281ZM50.0352 104.604V91.0098H57.2363V104.604H50.0352ZM60.3359 104.604H59.4746V96.5645H64.4434V97.4258H60.3359V104.604ZM62.2109 99.3008V104.604H61.3496V98.4395H64.4434V99.3008H62.2109ZM68.5566 91.0098H69.418V99.3008H64.4492V98.4395H68.5566V91.0098ZM66.6816 96.5645V91.0098H67.543V97.4258H64.4492V96.5645H66.6816ZM78.8633 104.604V91.0098H86.0645V104.604H78.8633ZM86.0703 104.604V91.0098H93.2715V104.604H86.0703ZM97.3848 104.604V91.0098H98.2461V104.604H97.3848ZM95.5098 104.604V91.0098H96.3711V104.604H95.5098ZM100.484 104.604V91.0098H107.686V104.604H100.484ZM107.691 104.604V91.0098H114.893V104.604H107.691ZM114.898 104.604V91.0098H122.1V104.604H114.898ZM122.105 104.604V91.0098H129.307V104.604H122.105ZM129.312 104.604V91.0098H136.514V104.604H129.312ZM136.52 104.604V91.0098H143.721V104.604H136.52ZM146.82 104.604H145.959V96.5645H150.928V97.4258H146.82V104.604ZM148.695 99.3008V104.604H147.834V98.4395H150.928V99.3008H148.695ZM155.041 91.0098H155.902V99.3008H150.934V98.4395H155.041V91.0098ZM153.166 96.5645V91.0098H154.027V97.4258H150.934V96.5645H153.166ZM158.141 104.604V91.0098H165.342V104.604H158.141ZM165.348 104.604V91.0098H172.549V104.604H165.348ZM172.555 104.604V91.0098H179.756V104.604H172.555ZM179.762 104.604V91.0098H186.963V104.604H179.762ZM186.969 104.604V91.0098H194.17V104.604H186.969ZM194.176 104.604V91.0098H201.377V104.604H194.176ZM201.383 104.604V91.0098H208.584V104.604H201.383ZM212.697 104.604V97.4258H208.59V96.5645H213.559V104.604H212.697ZM210.822 99.3008H208.59V98.4395H211.684V104.604H210.822V99.3008ZM244.625 104.604V91.0098H251.826V104.604H244.625ZM251.832 104.604V91.0098H259.033V104.604H251.832ZM263.146 104.604V91.0098H264.008V104.604H263.146ZM261.271 104.604V91.0098H262.133V104.604H261.271ZM280.66 104.604V91.0098H287.861V104.604H280.66ZM287.867 104.604V91.0098H295.068V104.604H287.867ZM299.182 104.604V97.4258H295.074V96.5645H300.043V104.604H299.182ZM297.307 99.3008H295.074V98.4395H298.168V104.604H297.307V99.3008ZM302.281 104.604V91.0098H309.482V104.604H302.281ZM309.488 104.604V91.0098H316.689V104.604H309.488ZM320.803 104.604V91.0098H321.664V104.604H320.803ZM318.928 104.604V91.0098H319.789V104.604H318.928ZM338.316 104.604V91.0098H345.518V104.604H338.316ZM345.523 104.604V91.0098H352.725V104.604H345.523ZM356.838 104.604V91.0098H357.699V104.604H356.838ZM354.963 104.604V91.0098H355.824V104.604H354.963ZM359.938 104.604V91.0098H367.139V104.604H359.938ZM367.145 104.604V91.0098H374.346V104.604H367.145ZM378.459 104.604V91.0098H379.32V104.604H378.459ZM376.584 104.604V91.0098H377.445V104.604H376.584ZM391.859 91.0098V98.4395H395.967V99.3008H390.998V91.0098H391.859ZM393.734 96.5645H395.967V97.4258H392.873V91.0098H393.734V96.5645ZM395.973 104.604V91.0098H403.174V104.604H395.973ZM403.18 104.604V91.0098H410.381V104.604H403.18ZM410.387 104.604V91.0098H417.588V104.604H410.387ZM417.594 104.604V91.0098H424.795V104.604H417.594ZM428.908 104.604V91.0098H429.77V104.604H428.908ZM427.033 104.604V91.0098H427.895V104.604H427.033ZM432.008 104.604V91.0098H439.209V104.604H432.008ZM439.215 104.604V91.0098H446.416V104.604H439.215ZM446.422 104.604V91.0098H453.623V104.604H446.422ZM453.629 104.604V91.0098H460.83V104.604H453.629ZM460.836 104.604V91.0098H468.037V104.604H460.836ZM468.043 104.604V91.0098H475.244V104.604H468.043ZM478.344 104.604H477.482V96.5645H482.451V97.4258H478.344V104.604ZM480.219 99.3008V104.604H479.357V98.4395H482.451V99.3008H480.219ZM486.564 91.0098H487.426V99.3008H482.457V98.4395H486.564V91.0098ZM484.689 96.5645V91.0098H485.551V97.4258H482.457V96.5645H484.689ZM489.664 104.604V91.0098H496.865V104.604H489.664ZM496.871 104.604V91.0098H504.072V104.604H496.871ZM508.186 104.604V91.0098H509.047V104.604H508.186ZM506.311 104.604V91.0098H507.172V104.604H506.311ZM525.699 104.604V91.0098H532.9V104.604H525.699ZM532.906 104.604V91.0098H540.107V104.604H532.906ZM544.221 104.604V91.0098H545.082V104.604H544.221ZM542.346 104.604V91.0098H543.207V104.604H542.346ZM547.32 104.604V91.0098H554.521V104.604H547.32ZM554.527 104.604V91.0098H561.729V104.604H554.527ZM565.842 104.604V91.0098H566.703V104.604H565.842ZM563.967 104.604V91.0098H564.828V104.604H563.967ZM579.242 91.0098V98.4395H583.35V99.3008H578.381V91.0098H579.242ZM581.117 96.5645H583.35V97.4258H580.256V91.0098H581.117V96.5645ZM583.355 104.604V91.0098H590.557V104.604H583.355ZM590.562 104.604V91.0098H597.764V104.604H590.562ZM597.77 104.604V91.0098H604.971V104.604H597.77ZM604.977 104.604V91.0098H612.178V104.604H604.977ZM616.291 104.604V91.0098H617.152V104.604H616.291ZM614.416 104.604V91.0098H615.277V104.604H614.416ZM31.5078 104.01V111.439H35.6152V112.301H30.6465V104.01H31.5078ZM33.3828 109.564H35.6152V110.426H32.5215V104.01H33.3828V109.564ZM42.8223 110.426H35.6211V109.564H42.8223V110.426ZM42.8223 112.301H35.6211V111.439H42.8223V112.301ZM50.0293 110.426H42.8281V109.564H50.0293V110.426ZM50.0293 112.301H42.8281V111.439H50.0293V112.301ZM57.2363 110.426H50.0352V109.564H57.2363V110.426ZM57.2363 112.301H50.0352V111.439H57.2363V112.301ZM61.3496 104.01H62.2109V112.301H57.2422V111.439H61.3496V104.01ZM59.4746 109.564V104.01H60.3359V110.426H57.2422V109.564H59.4746ZM81.957 104.01V111.439H86.0645V112.301H81.0957V104.01H81.957ZM83.832 109.564H86.0645V110.426H82.9707V104.01H83.832V109.564ZM93.2715 110.426H86.0703V109.564H93.2715V110.426ZM93.2715 112.301H86.0703V111.439H93.2715V112.301ZM97.3848 104.01H98.2461V112.301H93.2773V111.439H97.3848V104.01ZM95.5098 109.564V104.01H96.3711V110.426H93.2773V109.564H95.5098ZM103.578 104.01V111.439H107.686V112.301H102.717V104.01H103.578ZM105.453 109.564H107.686V110.426H104.592V104.01H105.453V109.564ZM114.893 110.426H107.691V109.564H114.893V110.426ZM114.893 112.301H107.691V111.439H114.893V112.301ZM122.1 110.426H114.898V109.564H122.1V110.426ZM122.1 112.301H114.898V111.439H122.1V112.301ZM129.307 110.426H122.105V109.564H129.307V110.426ZM129.307 112.301H122.105V111.439H129.307V112.301ZM136.514 110.426H129.312V109.564H136.514V110.426ZM136.514 112.301H129.312V111.439H136.514V112.301ZM143.721 110.426H136.52V109.564H143.721V110.426ZM143.721 112.301H136.52V111.439H143.721V112.301ZM147.834 104.01H148.695V112.301H143.727V111.439H147.834V104.01ZM145.959 109.564V104.01H146.82V110.426H143.727V109.564H145.959ZM161.234 104.01V111.439H165.342V112.301H160.373V104.01H161.234ZM163.109 109.564H165.342V110.426H162.248V104.01H163.109V109.564ZM172.549 110.426H165.348V109.564H172.549V110.426ZM172.549 112.301H165.348V111.439H172.549V112.301ZM179.756 110.426H172.555V109.564H179.756V110.426ZM179.756 112.301H172.555V111.439H179.756V112.301ZM186.963 110.426H179.762V109.564H186.963V110.426ZM186.963 112.301H179.762V111.439H186.963V112.301ZM194.17 110.426H186.969V109.564H194.17V110.426ZM194.17 112.301H186.969V111.439H194.17V112.301ZM201.377 110.426H194.176V109.564H201.377V110.426ZM201.377 112.301H194.176V111.439H201.377V112.301ZM208.584 110.426H201.383V109.564H208.584V110.426ZM208.584 112.301H201.383V111.439H208.584V112.301ZM212.697 104.01H213.559V112.301H208.59V111.439H212.697V104.01ZM210.822 109.564V104.01H211.684V110.426H208.59V109.564H210.822ZM247.719 104.01V111.439H251.826V112.301H246.857V104.01H247.719ZM249.594 109.564H251.826V110.426H248.732V104.01H249.594V109.564ZM259.033 110.426H251.832V109.564H259.033V110.426ZM259.033 112.301H251.832V111.439H259.033V112.301ZM263.146 104.01H264.008V112.301H259.039V111.439H263.146V104.01ZM261.271 109.564V104.01H262.133V110.426H259.039V109.564H261.271ZM283.754 104.01V111.439H287.861V112.301H282.893V104.01H283.754ZM285.629 109.564H287.861V110.426H284.768V104.01H285.629V109.564ZM295.068 110.426H287.867V109.564H295.068V110.426ZM295.068 112.301H287.867V111.439H295.068V112.301ZM299.182 104.01H300.043V112.301H295.074V111.439H299.182V104.01ZM297.307 109.564V104.01H298.168V110.426H295.074V109.564H297.307ZM305.375 104.01V111.439H309.482V112.301H304.514V104.01H305.375ZM307.25 109.564H309.482V110.426H306.389V104.01H307.25V109.564ZM316.689 110.426H309.488V109.564H316.689V110.426ZM316.689 112.301H309.488V111.439H316.689V112.301ZM320.803 104.01H321.664V112.301H316.695V111.439H320.803V104.01ZM318.928 109.564V104.01H319.789V110.426H316.695V109.564H318.928ZM341.41 104.01V111.439H345.518V112.301H340.549V104.01H341.41ZM343.285 109.564H345.518V110.426H342.424V104.01H343.285V109.564ZM352.725 110.426H345.523V109.564H352.725V110.426ZM352.725 112.301H345.523V111.439H352.725V112.301ZM356.838 104.01H357.699V112.301H352.73V111.439H356.838V104.01ZM354.963 109.564V104.01H355.824V110.426H352.73V109.564H354.963ZM363.031 104.01V111.439H367.139V112.301H362.17V104.01H363.031ZM364.906 109.564H367.139V110.426H364.045V104.01H364.906V109.564ZM374.346 110.426H367.145V109.564H374.346V110.426ZM374.346 112.301H367.145V111.439H374.346V112.301ZM378.459 104.01H379.32V112.301H374.352V111.439H378.459V104.01ZM376.584 109.564V104.01H377.445V110.426H374.352V109.564H376.584ZM399.066 104.01V111.439H403.174V112.301H398.205V104.01H399.066ZM400.941 109.564H403.174V110.426H400.08V104.01H400.941V109.564ZM410.381 110.426H403.18V109.564H410.381V110.426ZM410.381 112.301H403.18V111.439H410.381V112.301ZM417.588 110.426H410.387V109.564H417.588V110.426ZM417.588 112.301H410.387V111.439H417.588V112.301ZM424.795 110.426H417.594V109.564H424.795V110.426ZM424.795 112.301H417.594V111.439H424.795V112.301ZM428.908 104.01H429.77V112.301H424.801V111.439H428.908V104.01ZM427.033 109.564V104.01H427.895V110.426H424.801V109.564H427.033ZM435.102 104.01V111.439H439.209V112.301H434.24V104.01H435.102ZM436.977 109.564H439.209V110.426H436.115V104.01H436.977V109.564ZM446.416 110.426H439.215V109.564H446.416V110.426ZM446.416 112.301H439.215V111.439H446.416V112.301ZM453.623 110.426H446.422V109.564H453.623V110.426ZM453.623 112.301H446.422V111.439H453.623V112.301ZM460.83 110.426H453.629V109.564H460.83V110.426ZM460.83 112.301H453.629V111.439H460.83V112.301ZM468.037 110.426H460.836V109.564H468.037V110.426ZM468.037 112.301H460.836V111.439H468.037V112.301ZM475.244 110.426H468.043V109.564H475.244V110.426ZM475.244 112.301H468.043V111.439H475.244V112.301ZM479.357 104.01H480.219V112.301H475.25V111.439H479.357V104.01ZM477.482 109.564V104.01H478.344V110.426H475.25V109.564H477.482ZM492.758 104.01V111.439H496.865V112.301H491.896V104.01H492.758ZM494.633 109.564H496.865V110.426H493.771V104.01H494.633V109.564ZM504.072 110.426H496.871V109.564H504.072V110.426ZM504.072 112.301H496.871V111.439H504.072V112.301ZM508.186 104.01H509.047V112.301H504.078V111.439H508.186V104.01ZM506.311 109.564V104.01H507.172V110.426H504.078V109.564H506.311ZM528.793 104.01V111.439H532.9V112.301H527.932V104.01H528.793ZM530.668 109.564H532.9V110.426H529.807V104.01H530.668V109.564ZM540.107 110.426H532.906V109.564H540.107V110.426ZM540.107 112.301H532.906V111.439H540.107V112.301ZM544.221 104.01H545.082V112.301H540.113V111.439H544.221V104.01ZM542.346 109.564V104.01H543.207V110.426H540.113V109.564H542.346ZM550.414 104.01V111.439H554.521V112.301H549.553V104.01H550.414ZM552.289 109.564H554.521V110.426H551.428V104.01H552.289V109.564ZM561.729 110.426H554.527V109.564H561.729V110.426ZM561.729 112.301H554.527V111.439H561.729V112.301ZM565.842 104.01H566.703V112.301H561.734V111.439H565.842V104.01ZM563.967 109.564V104.01H564.828V110.426H561.734V109.564H563.967ZM586.449 104.01V111.439H590.557V112.301H585.588V104.01H586.449ZM588.324 109.564H590.557V110.426H587.463V104.01H588.324V109.564ZM597.764 110.426H590.562V109.564H597.764V110.426ZM597.764 112.301H590.562V111.439H597.764V112.301ZM604.971 110.426H597.77V109.564H604.971V110.426ZM604.971 112.301H597.77V111.439H604.971V112.301ZM612.178 110.426H604.977V109.564H612.178V110.426ZM612.178 112.301H604.977V111.439H612.178V112.301ZM616.291 104.01H617.152V112.301H612.184V111.439H616.291V104.01ZM614.416 109.564V104.01H615.277V110.426H612.184V109.564H614.416Z" fill="white"/>
</mask>
<g mask="url(#mask0_19_2)">
<rect x="12" y="37" width="66" height="78" fill="white"/>
</g>
<mask id="mask1_19_2" style="mask-type:alpha" maskUnits="userSpaceOnUse" x="-148" y="39" width="604" height="74">
<path d="M-148 52.6035V39.0098H-140.799V52.6035H-148ZM-140.793 52.6035V39.0098H-133.592V52.6035H-140.793ZM-129.479 52.6035V45.4258H-133.586V44.5645H-128.617V52.6035H-129.479ZM-131.354 47.3008H-133.586V46.4395H-130.492V52.6035H-131.354V47.3008ZM-104.758 52.6035V39.0098H-97.5566V52.6035H-104.758ZM-97.5508 52.6035V39.0098H-90.3496V52.6035H-97.5508ZM-86.2363 52.6035V45.4258H-90.3438V44.5645H-85.375V52.6035H-86.2363ZM-88.1113 47.3008H-90.3438V46.4395H-87.25V52.6035H-88.1113V47.3008ZM-83.1367 52.6035V39.0098H-75.9355V52.6035H-83.1367ZM-75.9297 52.6035V39.0098H-68.7285V52.6035H-75.9297ZM-64.6152 52.6035V45.4258H-68.7227V44.5645H-63.7539V52.6035H-64.6152ZM-66.4902 47.3008H-68.7227V46.4395H-65.6289V52.6035H-66.4902V47.3008ZM-61.5156 52.6035V39.0098H-54.3145V52.6035H-61.5156ZM-54.3086 52.6035V39.0098H-47.1074V52.6035H-54.3086ZM-47.1016 52.6035V39.0098H-39.9004V52.6035H-47.1016ZM-39.8945 52.6035V39.0098H-32.6934V52.6035H-39.8945ZM-32.6875 52.6035V39.0098H-25.4863V52.6035H-32.6875ZM-25.4805 52.6035V39.0098H-18.2793V52.6035H-25.4805ZM-14.166 52.6035V45.4258H-18.2734V44.5645H-13.3047V52.6035H-14.166ZM-16.041 47.3008H-18.2734V46.4395H-15.1797V52.6035H-16.041V47.3008ZM-3.85938 52.6035V39.0098H3.3418V52.6035H-3.85938ZM3.34766 52.6035V39.0098H10.5488V52.6035H3.34766ZM10.5547 52.6035V39.0098H17.7559V52.6035H10.5547ZM17.7617 52.6035V39.0098H24.9629V52.6035H17.7617ZM24.9688 52.6035V39.0098H32.1699V52.6035H24.9688ZM32.1758 52.6035V39.0098H39.377V52.6035H32.1758ZM39.3828 52.6035V39.0098H46.584V52.6035H39.3828ZM50.6973 52.6035V45.4258H46.5898V44.5645H51.5586V52.6035H50.6973ZM48.8223 47.3008H46.5898V46.4395H49.6836V52.6035H48.8223V47.3008ZM82.625 52.6035V39.0098H89.8262V52.6035H82.625ZM89.832 52.6035V39.0098H97.0332V52.6035H89.832ZM101.146 52.6035V45.4258H97.0391V44.5645H102.008V52.6035H101.146ZM99.2715 47.3008H97.0391V46.4395H100.133V52.6035H99.2715V47.3008ZM118.66 52.6035V39.0098H125.861V52.6035H118.66ZM125.867 52.6035V39.0098H133.068V52.6035H125.867ZM137.182 52.6035V45.4258H133.074V44.5645H138.043V52.6035H137.182ZM135.307 47.3008H133.074V46.4395H136.168V52.6035H135.307V47.3008ZM147.488 52.6035V39.0098H154.689V52.6035H147.488ZM154.695 52.6035V39.0098H161.896V52.6035H154.695ZM161.902 52.6035V39.0098H169.104V52.6035H161.902ZM169.109 52.6035V39.0098H176.311V52.6035H169.109ZM176.316 52.6035V39.0098H183.518V52.6035H176.316ZM187.631 52.6035V45.4258H183.523V44.5645H188.492V52.6035H187.631ZM185.756 47.3008H183.523V46.4395H186.617V52.6035H185.756V47.3008ZM197.938 52.6035V39.0098H205.139V52.6035H197.938ZM205.145 52.6035V39.0098H212.346V52.6035H205.145ZM212.352 52.6035V39.0098H219.553V52.6035H212.352ZM223.666 52.6035V45.4258H219.559V44.5645H224.527V52.6035H223.666ZM221.791 47.3008H219.559V46.4395H222.652V52.6035H221.791V47.3008ZM248.387 52.6035V39.0098H255.588V52.6035H248.387ZM255.594 52.6035V39.0098H262.795V52.6035H255.594ZM266.908 52.6035V45.4258H262.801V44.5645H267.77V52.6035H266.908ZM265.033 47.3008H262.801V46.4395H265.895V52.6035H265.033V47.3008ZM270.008 52.6035V39.0098H277.209V52.6035H270.008ZM277.215 52.6035V39.0098H284.416V52.6035H277.215ZM284.422 52.6035V39.0098H291.623V52.6035H284.422ZM291.629 52.6035V39.0098H298.83V52.6035H291.629ZM298.836 52.6035V39.0098H306.037V52.6035H298.836ZM306.043 52.6035V39.0098H313.244V52.6035H306.043ZM317.357 52.6035V45.4258H313.25V44.5645H318.219V52.6035H317.357ZM315.482 47.3008H313.25V46.4395H316.344V52.6035H315.482V47.3008ZM334.871 52.6035V39.0098H342.072V52.6035H334.871ZM342.078 52.6035V39.0098H349.279V52.6035H342.078ZM349.285 52.6035V39.0098H356.486V52.6035H349.285ZM356.492 52.6035V39.0098H363.693V52.6035H356.492ZM363.699 52.6035V39.0098H370.9V52.6035H363.699ZM375.014 52.6035V45.4258H370.906V44.5645H375.875V52.6035H375.014ZM373.139 47.3008H370.906V46.4395H374V52.6035H373.139V47.3008ZM385.32 52.6035V39.0098H392.521V52.6035H385.32ZM392.527 52.6035V39.0098H399.729V52.6035H392.527ZM399.734 52.6035V39.0098H406.936V52.6035H399.734ZM411.049 52.6035V45.4258H406.941V44.5645H411.91V52.6035H411.049ZM409.174 47.3008H406.941V46.4395H410.035V52.6035H409.174V47.3008ZM435.77 52.6035V39.0098H442.971V52.6035H435.77ZM442.977 52.6035V39.0098H450.178V52.6035H442.977ZM454.291 52.6035V45.4258H450.184V44.5645H455.152V52.6035H454.291ZM452.416 47.3008H450.184V46.4395H453.277V52.6035H452.416V47.3008ZM-148 65.6035V52.0098H-140.799V65.6035H-148ZM-140.793 65.6035V52.0098H-133.592V65.6035H-140.793ZM-129.479 65.6035V52.0098H-128.617V65.6035H-129.479ZM-131.354 65.6035V52.0098H-130.492V65.6035H-131.354ZM-104.758 65.6035V52.0098H-97.5566V65.6035H-104.758ZM-97.5508 65.6035V52.0098H-90.3496V65.6035H-97.5508ZM-86.2363 65.6035V52.0098H-85.375V65.6035H-86.2363ZM-88.1113 65.6035V52.0098H-87.25V65.6035H-88.1113ZM-83.1367 65.6035V52.0098H-75.9355V65.6035H-83.1367ZM-75.9297 65.6035V52.0098H-68.7285V65.6035H-75.9297ZM-64.6152 65.6035V52.0098H-63.7539V65.6035H-64.6152ZM-66.4902 65.6035V52.0098H-65.6289V65.6035H-66.4902ZM-61.5156 65.6035V52.0098H-54.3145V65.6035H-61.5156ZM-54.3086 65.6035V52.0098H-47.1074V65.6035H-54.3086ZM-44.0078 65.6035H-44.8691V57.5645H-39.9004V58.4258H-44.0078V65.6035ZM-42.1328 60.3008V65.6035H-42.9941V59.4395H-39.9004V60.3008H-42.1328ZM-32.6934 58.4258H-39.8945V57.5645H-32.6934V58.4258ZM-32.6934 60.3008H-39.8945V59.4395H-32.6934V60.3008ZM-25.4863 58.4258H-32.6875V57.5645H-25.4863V58.4258ZM-25.4863 60.3008H-32.6875V59.4395H-25.4863V60.3008ZM-25.4805 65.6035V52.0098H-18.2793V65.6035H-25.4805ZM-18.2734 65.6035V52.0098H-11.0723V65.6035H-18.2734ZM-6.95898 65.6035V58.4258H-11.0664V57.5645H-6.09766V65.6035H-6.95898ZM-8.83398 60.3008H-11.0664V59.4395H-7.97266V65.6035H-8.83398V60.3008ZM-3.85938 65.6035V52.0098H3.3418V65.6035H-3.85938ZM3.34766 65.6035V52.0098H10.5488V65.6035H3.34766ZM13.6484 65.6035H12.7871V57.5645H17.7559V58.4258H13.6484V65.6035ZM15.5234 60.3008V65.6035H14.6621V59.4395H17.7559V60.3008H15.5234ZM24.9629 58.4258H17.7617V57.5645H24.9629V58.4258ZM24.9629 60.3008H17.7617V59.4395H24.9629V60.3008ZM32.1699 58.4258H24.9688V57.5645H32.1699V58.4258ZM32.1699 60.3008H24.9688V59.4395H32.1699V60.3008ZM39.377 58.4258H32.1758V57.5645H39.377V58.4258ZM39.377 60.3008H32.1758V59.4395H39.377V60.3008ZM46.584 58.4258H39.3828V57.5645H46.584V58.4258ZM46.584 60.3008H39.3828V59.4395H46.584V60.3008ZM50.6973 52.0098H51.5586V60.3008H46.5898V59.4395H50.6973V52.0098ZM48.8223 57.5645V52.0098H49.6836V58.4258H46.5898V57.5645H48.8223ZM82.625 65.6035V52.0098H89.8262V65.6035H82.625ZM89.832 65.6035V52.0098H97.0332V65.6035H89.832ZM101.146 65.6035V52.0098H102.008V65.6035H101.146ZM99.2715 65.6035V52.0098H100.133V65.6035H99.2715ZM111.453 65.6035V52.0098H118.654V65.6035H111.453ZM118.66 65.6035V52.0098H125.861V65.6035H118.66ZM128.961 65.6035H128.1V57.5645H133.068V58.4258H128.961V65.6035ZM130.836 60.3008V65.6035H129.975V59.4395H133.068V60.3008H130.836ZM137.182 52.0098H138.043V60.3008H133.074V59.4395H137.182V52.0098ZM135.307 57.5645V52.0098H136.168V58.4258H133.074V57.5645H135.307ZM140.281 65.6035V52.0098H147.482V65.6035H140.281ZM147.488 65.6035V52.0098H154.689V65.6035H147.488ZM157.789 65.6035H156.928V57.5645H161.896V58.4258H157.789V65.6035ZM159.664 60.3008V65.6035H158.803V59.4395H161.896V60.3008H159.664ZM169.104 58.4258H161.902V57.5645H169.104V58.4258ZM169.104 60.3008H161.902V59.4395H169.104V60.3008ZM176.311 58.4258H169.109V57.5645H176.311V58.4258ZM176.311 60.3008H169.109V59.4395H176.311V60.3008ZM176.316 65.6035V52.0098H183.518V65.6035H176.316ZM183.523 65.6035V52.0098H190.725V65.6035H183.523ZM194.838 65.6035V58.4258H190.73V57.5645H195.699V65.6035H194.838ZM192.963 60.3008H190.73V59.4395H193.824V65.6035H192.963V60.3008ZM197.938 65.6035V52.0098H205.139V65.6035H197.938ZM205.145 65.6035V52.0098H212.346V65.6035H205.145ZM212.352 65.6035V52.0098H219.553V65.6035H212.352ZM219.559 65.6035V52.0098H226.76V65.6035H219.559ZM230.873 65.6035V58.4258H226.766V57.5645H231.734V65.6035H230.873ZM228.998 60.3008H226.766V59.4395H229.859V65.6035H228.998V60.3008ZM248.387 65.6035V52.0098H255.588V65.6035H248.387ZM255.594 65.6035V52.0098H262.795V65.6035H255.594ZM266.908 65.6035V52.0098H267.77V65.6035H266.908ZM265.033 65.6035V52.0098H265.895V65.6035H265.033ZM270.008 65.6035V52.0098H277.209V65.6035H270.008ZM277.215 65.6035V52.0098H284.416V65.6035H277.215ZM287.516 65.6035H286.654V57.5645H291.623V58.4258H287.516V65.6035ZM289.391 60.3008V65.6035H288.529V59.4395H291.623V60.3008H289.391ZM298.83 58.4258H291.629V57.5645H298.83V58.4258ZM298.83 60.3008H291.629V59.4395H298.83V60.3008ZM306.037 58.4258H298.836V57.5645H306.037V58.4258ZM306.037 60.3008H298.836V59.4395H306.037V60.3008ZM306.043 65.6035V52.0098H313.244V65.6035H306.043ZM313.25 65.6035V52.0098H320.451V65.6035H313.25ZM324.564 65.6035V58.4258H320.457V57.5645H325.426V65.6035H324.564ZM322.689 60.3008H320.457V59.4395H323.551V65.6035H322.689V60.3008ZM327.664 65.6035V52.0098H334.865V65.6035H327.664ZM334.871 65.6035V52.0098H342.072V65.6035H334.871ZM345.172 65.6035H344.311V57.5645H349.279V58.4258H345.172V65.6035ZM347.047 60.3008V65.6035H346.186V59.4395H349.279V60.3008H347.047ZM356.486 58.4258H349.285V57.5645H356.486V58.4258ZM356.486 60.3008H349.285V59.4395H356.486V60.3008ZM363.693 58.4258H356.492V57.5645H363.693V58.4258ZM363.693 60.3008H356.492V59.4395H363.693V60.3008ZM363.699 65.6035V52.0098H370.9V65.6035H363.699ZM370.906 65.6035V52.0098H378.107V65.6035H370.906ZM382.221 65.6035V58.4258H378.113V57.5645H383.082V65.6035H382.221ZM380.346 60.3008H378.113V59.4395H381.207V65.6035H380.346V60.3008ZM385.32 65.6035V52.0098H392.521V65.6035H385.32ZM392.527 65.6035V52.0098H399.729V65.6035H392.527ZM399.734 65.6035V52.0098H406.936V65.6035H399.734ZM406.941 65.6035V52.0098H414.143V65.6035H406.941ZM418.256 65.6035V58.4258H414.148V57.5645H419.117V65.6035H418.256ZM416.381 60.3008H414.148V59.4395H417.242V65.6035H416.381V60.3008ZM435.77 65.6035V52.0098H442.971V65.6035H435.77ZM442.977 65.6035V52.0098H450.178V65.6035H442.977ZM454.291 65.6035V52.0098H455.152V65.6035H454.291ZM452.416 65.6035V52.0098H453.277V65.6035H452.416ZM-148 78.6035V65.0098H-140.799V78.6035H-148ZM-140.793 78.6035V65.0098H-133.592V78.6035H-140.793ZM-129.479 78.6035V65.0098H-128.617V78.6035H-129.479ZM-131.354 78.6035V65.0098H-130.492V78.6035H-131.354ZM-104.758 78.6035V65.0098H-97.5566V78.6035H-104.758ZM-97.5508 78.6035V65.0098H-90.3496V78.6035H-97.5508ZM-86.2363 78.6035V65.0098H-85.375V78.6035H-86.2363ZM-88.1113 78.6035V65.0098H-87.25V78.6035H-88.1113ZM-83.1367 78.6035V65.0098H-75.9355V78.6035H-83.1367ZM-75.9297 78.6035V65.0098H-68.7285V78.6035H-75.9297ZM-64.6152 78.6035V65.0098H-63.7539V78.6035H-64.6152ZM-66.4902 78.6035V65.0098H-65.6289V78.6035H-66.4902ZM-61.5156 78.6035V65.0098H-54.3145V78.6035H-61.5156ZM-54.3086 78.6035V65.0098H-47.1074V78.6035H-54.3086ZM-47.1016 78.6035V65.0098H-39.9004V78.6035H-47.1016ZM-39.8945 78.6035V65.0098H-32.6934V78.6035H-39.8945ZM-32.6875 78.6035V65.0098H-25.4863V78.6035H-32.6875ZM-25.4805 78.6035V65.0098H-18.2793V78.6035H-25.4805ZM-15.1797 78.6035H-16.041V70.5645H-11.0723V71.4258H-15.1797V78.6035ZM-13.3047 73.3008V78.6035H-14.166V72.4395H-11.0723V73.3008H-13.3047ZM-6.95898 65.0098H-6.09766V73.3008H-11.0664V72.4395H-6.95898V65.0098ZM-8.83398 70.5645V65.0098H-7.97266V71.4258H-11.0664V70.5645H-8.83398ZM-3.85938 78.6035V65.0098H3.3418V78.6035H-3.85938ZM3.34766 78.6035V65.0098H10.5488V78.6035H3.34766ZM10.5547 78.6035V65.0098H17.7559V78.6035H10.5547ZM17.7617 78.6035V65.0098H24.9629V78.6035H17.7617ZM24.9688 78.6035V65.0098H32.1699V78.6035H24.9688ZM36.2832 78.6035V71.4258H32.1758V70.5645H37.1445V78.6035H36.2832ZM34.4082 73.3008H32.1758V72.4395H35.2695V78.6035H34.4082V73.3008ZM39.3828 78.6035V65.0098H46.584V78.6035H39.3828ZM46.5898 78.6035V65.0098H53.791V78.6035H46.5898ZM53.7969 78.6035V65.0098H60.998V78.6035H53.7969ZM61.0039 78.6035V65.0098H68.2051V78.6035H61.0039ZM68.2109 78.6035V65.0098H75.4121V78.6035H68.2109ZM79.5254 78.6035V71.4258H75.418V70.5645H80.3867V78.6035H79.5254ZM77.6504 73.3008H75.418V72.4395H78.5117V78.6035H77.6504V73.3008ZM82.625 78.6035V65.0098H89.8262V78.6035H82.625ZM89.832 78.6035V65.0098H97.0332V78.6035H89.832ZM97.0391 78.6035V65.0098H104.24V78.6035H97.0391ZM104.246 78.6035V65.0098H111.447V78.6035H104.246ZM111.453 78.6035V65.0098H118.654V78.6035H111.453ZM121.754 78.6035H120.893V70.5645H125.861V71.4258H121.754V78.6035ZM123.629 73.3008V78.6035H122.768V72.4395H125.861V73.3008H123.629ZM129.975 65.0098H130.836V73.3008H125.867V72.4395H129.975V65.0098ZM128.1 70.5645V65.0098H128.961V71.4258H125.867V70.5645H128.1ZM140.281 78.6035V65.0098H147.482V78.6035H140.281ZM147.488 78.6035V65.0098H154.689V78.6035H147.488ZM154.695 78.6035V65.0098H161.896V78.6035H154.695ZM161.902 78.6035V65.0098H169.104V78.6035H161.902ZM169.109 78.6035V65.0098H176.311V78.6035H169.109ZM176.316 78.6035V65.0098H183.518V78.6035H176.316ZM183.523 78.6035V65.0098H190.725V78.6035H183.523ZM194.838 78.6035V65.0098H195.699V78.6035H194.838ZM192.963 78.6035V65.0098H193.824V78.6035H192.963ZM197.938 78.6035V65.0098H205.139V78.6035H197.938ZM205.145 78.6035V65.0098H212.346V78.6035H205.145ZM215.445 78.6035H214.584V70.5645H219.553V71.4258H215.445V78.6035ZM217.32 73.3008V78.6035H216.459V72.4395H219.553V73.3008H217.32ZM219.559 78.6035V65.0098H226.76V78.6035H219.559ZM226.766 78.6035V65.0098H233.967V78.6035H226.766ZM238.08 78.6035V71.4258H233.973V70.5645H238.941V78.6035H238.08ZM236.205 73.3008H233.973V72.4395H237.066V78.6035H236.205V73.3008ZM248.387 78.6035V65.0098H255.588V78.6035H248.387ZM255.594 78.6035V65.0098H262.795V78.6035H255.594ZM266.908 78.6035V65.0098H267.77V78.6035H266.908ZM265.033 78.6035V65.0098H265.895V78.6035H265.033ZM270.008 78.6035V65.0098H277.209V78.6035H270.008ZM277.215 78.6035V65.0098H284.416V78.6035H277.215ZM284.422 78.6035V65.0098H291.623V78.6035H284.422ZM291.629 78.6035V65.0098H298.83V78.6035H291.629ZM298.836 78.6035V65.0098H306.037V78.6035H298.836ZM306.043 78.6035V65.0098H313.244V78.6035H306.043ZM316.344 78.6035H315.482V70.5645H320.451V71.4258H316.344V78.6035ZM318.219 73.3008V78.6035H317.357V72.4395H320.451V73.3008H318.219ZM324.564 65.0098H325.426V73.3008H320.457V72.4395H324.564V65.0098ZM322.689 70.5645V65.0098H323.551V71.4258H320.457V70.5645H322.689ZM327.664 78.6035V65.0098H334.865V78.6035H327.664ZM334.871 78.6035V65.0098H342.072V78.6035H334.871ZM342.078 78.6035V65.0098H349.279V78.6035H342.078ZM349.285 78.6035V65.0098H356.486V78.6035H349.285ZM356.492 78.6035V65.0098H363.693V78.6035H356.492ZM363.699 78.6035V65.0098H370.9V78.6035H363.699ZM370.906 78.6035V65.0098H378.107V78.6035H370.906ZM382.221 78.6035V65.0098H383.082V78.6035H382.221ZM380.346 78.6035V65.0098H381.207V78.6035H380.346ZM385.32 78.6035V65.0098H392.521V78.6035H385.32ZM392.527 78.6035V65.0098H399.729V78.6035H392.527ZM402.828 78.6035H401.967V70.5645H406.936V71.4258H402.828V78.6035ZM404.703 73.3008V78.6035H403.842V72.4395H406.936V73.3008H404.703ZM406.941 78.6035V65.0098H414.143V78.6035H406.941ZM414.148 78.6035V65.0098H421.35V78.6035H414.148ZM425.463 78.6035V71.4258H421.355V70.5645H426.324V78.6035H425.463ZM423.588 73.3008H421.355V72.4395H424.449V78.6035H423.588V73.3008ZM435.77 78.6035V65.0098H442.971V78.6035H435.77ZM442.977 78.6035V65.0098H450.178V78.6035H442.977ZM454.291 78.6035V65.0098H455.152V78.6035H454.291ZM452.416 78.6035V65.0098H453.277V78.6035H452.416ZM-144.906 78.0098V85.4395H-140.799V86.3008H-145.768V78.0098H-144.906ZM-143.031 83.5645H-140.799V84.4258H-143.893V78.0098H-143.031V83.5645ZM-140.793 91.6035V78.0098H-133.592V91.6035H-140.793ZM-133.586 91.6035V78.0098H-126.385V91.6035H-133.586ZM-122.271 91.6035V84.4258H-126.379V83.5645H-121.41V91.6035H-122.271ZM-124.146 86.3008H-126.379V85.4395H-123.285V91.6035H-124.146V86.3008ZM-111.965 91.6035V78.0098H-104.764V91.6035H-111.965ZM-104.758 91.6035V78.0098H-97.5566V91.6035H-104.758ZM-94.457 91.6035H-95.3184V83.5645H-90.3496V84.4258H-94.457V91.6035ZM-92.582 86.3008V91.6035H-93.4434V85.4395H-90.3496V86.3008H-92.582ZM-86.2363 78.0098H-85.375V86.3008H-90.3438V85.4395H-86.2363V78.0098ZM-88.1113 83.5645V78.0098H-87.25V84.4258H-90.3438V83.5645H-88.1113ZM-83.1367 91.6035V78.0098H-75.9355V91.6035H-83.1367ZM-75.9297 91.6035V78.0098H-68.7285V91.6035H-75.9297ZM-64.6152 91.6035V78.0098H-63.7539V91.6035H-64.6152ZM-66.4902 91.6035V78.0098H-65.6289V91.6035H-66.4902ZM-61.5156 91.6035V78.0098H-54.3145V91.6035H-61.5156ZM-54.3086 91.6035V78.0098H-47.1074V91.6035H-54.3086ZM-44.0078 91.6035H-44.8691V83.5645H-39.9004V84.4258H-44.0078V91.6035ZM-42.1328 86.3008V91.6035H-42.9941V85.4395H-39.9004V86.3008H-42.1328ZM-32.6934 84.4258H-39.8945V83.5645H-32.6934V84.4258ZM-32.6934 86.3008H-39.8945V85.4395H-32.6934V86.3008ZM-25.4863 84.4258H-32.6875V83.5645H-25.4863V84.4258ZM-25.4863 86.3008H-32.6875V85.4395H-25.4863V86.3008ZM-25.4805 91.6035V78.0098H-18.2793V91.6035H-25.4805ZM-18.2734 91.6035V78.0098H-11.0723V91.6035H-18.2734ZM-6.95898 91.6035V84.4258H-11.0664V83.5645H-6.09766V91.6035H-6.95898ZM-8.83398 86.3008H-11.0664V85.4395H-7.97266V91.6035H-8.83398V86.3008ZM-3.85938 91.6035V78.0098H3.3418V91.6035H-3.85938ZM3.34766 91.6035V78.0098H10.5488V91.6035H3.34766ZM13.6484 91.6035H12.7871V83.5645H17.7559V84.4258H13.6484V91.6035ZM15.5234 86.3008V91.6035H14.6621V85.4395H17.7559V86.3008H15.5234ZM24.9629 84.4258H17.7617V83.5645H24.9629V84.4258ZM24.9629 86.3008H17.7617V85.4395H24.9629V86.3008ZM32.1699 84.4258H24.9688V83.5645H32.1699V84.4258ZM32.1699 86.3008H24.9688V85.4395H32.1699V86.3008ZM36.2832 78.0098H37.1445V86.3008H32.1758V85.4395H36.2832V78.0098ZM34.4082 83.5645V78.0098H35.2695V84.4258H32.1758V83.5645H34.4082ZM42.4766 78.0098V85.4395H46.584V86.3008H41.6152V78.0098H42.4766ZM44.3516 83.5645H46.584V84.4258H43.4902V78.0098H44.3516V83.5645ZM53.791 84.4258H46.5898V83.5645H53.791V84.4258ZM53.791 86.3008H46.5898V85.4395H53.791V86.3008ZM60.998 84.4258H53.7969V83.5645H60.998V84.4258ZM60.998 86.3008H53.7969V85.4395H60.998V86.3008ZM68.2051 84.4258H61.0039V83.5645H68.2051V84.4258ZM68.2051 86.3008H61.0039V85.4395H68.2051V86.3008ZM75.4121 84.4258H68.2109V83.5645H75.4121V84.4258ZM75.4121 86.3008H68.2109V85.4395H75.4121V86.3008ZM79.5254 78.0098H80.3867V86.3008H75.418V85.4395H79.5254V78.0098ZM77.6504 83.5645V78.0098H78.5117V84.4258H75.418V83.5645H77.6504ZM82.625 91.6035V78.0098H89.8262V91.6035H82.625ZM89.832 91.6035V78.0098H97.0332V91.6035H89.832ZM100.133 91.6035H99.2715V83.5645H104.24V84.4258H100.133V91.6035ZM102.008 86.3008V91.6035H101.146V85.4395H104.24V86.3008H102.008ZM111.447 84.4258H104.246V83.5645H111.447V84.4258ZM111.447 86.3008H104.246V85.4395H111.447V86.3008ZM111.453 91.6035V78.0098H118.654V91.6035H111.453ZM118.66 91.6035V78.0098H125.861V91.6035H118.66ZM129.975 91.6035V84.4258H125.867V83.5645H130.836V91.6035H129.975ZM128.1 86.3008H125.867V85.4395H128.961V91.6035H128.1V86.3008ZM140.281 91.6035V78.0098H147.482V91.6035H140.281ZM147.488 91.6035V78.0098H154.689V91.6035H147.488ZM157.789 91.6035H156.928V83.5645H161.896V84.4258H157.789V91.6035ZM159.664 86.3008V91.6035H158.803V85.4395H161.896V86.3008H159.664ZM169.104 84.4258H161.902V83.5645H169.104V84.4258ZM169.104 86.3008H161.902V85.4395H169.104V86.3008ZM176.311 84.4258H169.109V83.5645H176.311V84.4258ZM176.311 86.3008H169.109V85.4395H176.311V86.3008ZM176.316 91.6035V78.0098H183.518V91.6035H176.316ZM183.523 91.6035V78.0098H190.725V91.6035H183.523ZM194.838 91.6035V78.0098H195.699V91.6035H194.838ZM192.963 91.6035V78.0098H193.824V91.6035H192.963ZM197.938 91.6035V78.0098H205.139V91.6035H197.938ZM205.145 91.6035V78.0098H212.346V91.6035H205.145ZM216.459 91.6035V78.0098H217.32V91.6035H216.459ZM214.584 91.6035V78.0098H215.445V91.6035H214.584ZM222.652 78.0098V85.4395H226.76V86.3008H221.791V78.0098H222.652ZM224.527 83.5645H226.76V84.4258H223.666V78.0098H224.527V83.5645ZM226.766 91.6035V78.0098H233.967V91.6035H226.766ZM233.973 91.6035V78.0098H241.174V91.6035H233.973ZM245.287 91.6035V84.4258H241.18V83.5645H246.148V91.6035H245.287ZM243.412 86.3008H241.18V85.4395H244.273V91.6035H243.412V86.3008ZM248.387 91.6035V78.0098H255.588V91.6035H248.387ZM255.594 91.6035V78.0098H262.795V91.6035H255.594ZM266.908 91.6035V78.0098H267.77V91.6035H266.908ZM265.033 91.6035V78.0098H265.895V91.6035H265.033ZM270.008 91.6035V78.0098H277.209V91.6035H270.008ZM277.215 91.6035V78.0098H284.416V91.6035H277.215ZM287.516 91.6035H286.654V83.5645H291.623V84.4258H287.516V91.6035ZM289.391 86.3008V91.6035H288.529V85.4395H291.623V86.3008H289.391ZM298.83 84.4258H291.629V83.5645H298.83V84.4258ZM298.83 86.3008H291.629V85.4395H298.83V86.3008ZM306.037 84.4258H298.836V83.5645H306.037V84.4258ZM306.037 86.3008H298.836V85.4395H306.037V86.3008ZM306.043 91.6035V78.0098H313.244V91.6035H306.043ZM313.25 91.6035V78.0098H320.451V91.6035H313.25ZM324.564 91.6035V84.4258H320.457V83.5645H325.426V91.6035H324.564ZM322.689 86.3008H320.457V85.4395H323.551V91.6035H322.689V86.3008ZM327.664 91.6035V78.0098H334.865V91.6035H327.664ZM334.871 91.6035V78.0098H342.072V91.6035H334.871ZM345.172 91.6035H344.311V83.5645H349.279V84.4258H345.172V91.6035ZM347.047 86.3008V91.6035H346.186V85.4395H349.279V86.3008H347.047ZM356.486 84.4258H349.285V83.5645H356.486V84.4258ZM356.486 86.3008H349.285V85.4395H356.486V86.3008ZM363.693 84.4258H356.492V83.5645H363.693V84.4258ZM363.693 86.3008H356.492V85.4395H363.693V86.3008ZM363.699 91.6035V78.0098H370.9V91.6035H363.699ZM370.906 91.6035V78.0098H378.107V91.6035H370.906ZM382.221 91.6035V78.0098H383.082V91.6035H382.221ZM380.346 91.6035V78.0098H381.207V91.6035H380.346ZM385.32 91.6035V78.0098H392.521V91.6035H385.32ZM392.527 91.6035V78.0098H399.729V91.6035H392.527ZM403.842 91.6035V78.0098H404.703V91.6035H403.842ZM401.967 91.6035V78.0098H402.828V91.6035H401.967ZM410.035 78.0098V85.4395H414.143V86.3008H409.174V78.0098H410.035ZM411.91 83.5645H414.143V84.4258H411.049V78.0098H411.91V83.5645ZM414.148 91.6035V78.0098H421.35V91.6035H414.148ZM421.355 91.6035V78.0098H428.557V91.6035H421.355ZM432.67 91.6035V84.4258H428.562V83.5645H433.531V91.6035H432.67ZM430.795 86.3008H428.562V85.4395H431.656V91.6035H430.795V86.3008ZM435.77 91.6035V78.0098H442.971V91.6035H435.77ZM442.977 91.6035V78.0098H450.178V91.6035H442.977ZM454.291 91.6035V78.0098H455.152V91.6035H454.291ZM452.416 91.6035V78.0098H453.277V91.6035H452.416ZM-137.699 91.0098V98.4395H-133.592V99.3008H-138.561V91.0098H-137.699ZM-135.824 96.5645H-133.592V97.4258H-136.686V91.0098H-135.824V96.5645ZM-133.586 104.604V91.0098H-126.385V104.604H-133.586ZM-126.379 104.604V91.0098H-119.178V104.604H-126.379ZM-119.172 104.604V91.0098H-111.971V104.604H-119.172ZM-111.965 104.604V91.0098H-104.764V104.604H-111.965ZM-101.664 104.604H-102.525V96.5645H-97.5566V97.4258H-101.664V104.604ZM-99.7891 99.3008V104.604H-100.65V98.4395H-97.5566V99.3008H-99.7891ZM-93.4434 91.0098H-92.582V99.3008H-97.5508V98.4395H-93.4434V91.0098ZM-95.3184 96.5645V91.0098H-94.457V97.4258H-97.5508V96.5645H-95.3184ZM-83.1367 104.604V91.0098H-75.9355V104.604H-83.1367ZM-75.9297 104.604V91.0098H-68.7285V104.604H-75.9297ZM-64.6152 104.604V91.0098H-63.7539V104.604H-64.6152ZM-66.4902 104.604V91.0098H-65.6289V104.604H-66.4902ZM-61.5156 104.604V91.0098H-54.3145V104.604H-61.5156ZM-54.3086 104.604V91.0098H-47.1074V104.604H-54.3086ZM-47.1016 104.604V91.0098H-39.9004V104.604H-47.1016ZM-39.8945 104.604V91.0098H-32.6934V104.604H-39.8945ZM-32.6875 104.604V91.0098H-25.4863V104.604H-32.6875ZM-25.4805 104.604V91.0098H-18.2793V104.604H-25.4805ZM-15.1797 104.604H-16.041V96.5645H-11.0723V97.4258H-15.1797V104.604ZM-13.3047 99.3008V104.604H-14.166V98.4395H-11.0723V99.3008H-13.3047ZM-6.95898 91.0098H-6.09766V99.3008H-11.0664V98.4395H-6.95898V91.0098ZM-8.83398 96.5645V91.0098H-7.97266V97.4258H-11.0664V96.5645H-8.83398ZM-3.85938 104.604V91.0098H3.3418V104.604H-3.85938ZM3.34766 104.604V91.0098H10.5488V104.604H3.34766ZM10.5547 104.604V91.0098H17.7559V104.604H10.5547ZM17.7617 104.604V91.0098H24.9629V104.604H17.7617ZM24.9688 104.604V91.0098H32.1699V104.604H24.9688ZM32.1758 104.604V91.0098H39.377V104.604H32.1758ZM39.3828 104.604V91.0098H46.584V104.604H39.3828ZM50.6973 104.604V97.4258H46.5898V96.5645H51.5586V104.604H50.6973ZM48.8223 99.3008H46.5898V98.4395H49.6836V104.604H48.8223V99.3008ZM82.625 104.604V91.0098H89.8262V104.604H82.625ZM89.832 104.604V91.0098H97.0332V104.604H89.832ZM101.146 104.604V91.0098H102.008V104.604H101.146ZM99.2715 104.604V91.0098H100.133V104.604H99.2715ZM118.66 104.604V91.0098H125.861V104.604H118.66ZM125.867 104.604V91.0098H133.068V104.604H125.867ZM137.182 104.604V97.4258H133.074V96.5645H138.043V104.604H137.182ZM135.307 99.3008H133.074V98.4395H136.168V104.604H135.307V99.3008ZM140.281 104.604V91.0098H147.482V104.604H140.281ZM147.488 104.604V91.0098H154.689V104.604H147.488ZM158.803 104.604V91.0098H159.664V104.604H158.803ZM156.928 104.604V91.0098H157.789V104.604H156.928ZM176.316 104.604V91.0098H183.518V104.604H176.316ZM183.523 104.604V91.0098H190.725V104.604H183.523ZM194.838 104.604V91.0098H195.699V104.604H194.838ZM192.963 104.604V91.0098H193.824V104.604H192.963ZM197.938 104.604V91.0098H205.139V104.604H197.938ZM205.145 104.604V91.0098H212.346V104.604H205.145ZM216.459 104.604V91.0098H217.32V104.604H216.459ZM214.584 104.604V91.0098H215.445V104.604H214.584ZM229.859 91.0098V98.4395H233.967V99.3008H228.998V91.0098H229.859ZM231.734 96.5645H233.967V97.4258H230.873V91.0098H231.734V96.5645ZM233.973 104.604V91.0098H241.174V104.604H233.973ZM241.18 104.604V91.0098H248.381V104.604H241.18ZM248.387 104.604V91.0098H255.588V104.604H248.387ZM255.594 104.604V91.0098H262.795V104.604H255.594ZM266.908 104.604V91.0098H267.77V104.604H266.908ZM265.033 104.604V91.0098H265.895V104.604H265.033ZM270.008 104.604V91.0098H277.209V104.604H270.008ZM277.215 104.604V91.0098H284.416V104.604H277.215ZM284.422 104.604V91.0098H291.623V104.604H284.422ZM291.629 104.604V91.0098H298.83V104.604H291.629ZM298.836 104.604V91.0098H306.037V104.604H298.836ZM306.043 104.604V91.0098H313.244V104.604H306.043ZM316.344 104.604H315.482V96.5645H320.451V97.4258H316.344V104.604ZM318.219 99.3008V104.604H317.357V98.4395H320.451V99.3008H318.219ZM324.564 91.0098H325.426V99.3008H320.457V98.4395H324.564V91.0098ZM322.689 96.5645V91.0098H323.551V97.4258H320.457V96.5645H322.689ZM327.664 104.604V91.0098H334.865V104.604H327.664ZM334.871 104.604V91.0098H342.072V104.604H334.871ZM346.186 104.604V91.0098H347.047V104.604H346.186ZM344.311 104.604V91.0098H345.172V104.604H344.311ZM363.699 104.604V91.0098H370.9V104.604H363.699ZM370.906 104.604V91.0098H378.107V104.604H370.906ZM382.221 104.604V91.0098H383.082V104.604H382.221ZM380.346 104.604V91.0098H381.207V104.604H380.346ZM385.32 104.604V91.0098H392.521V104.604H385.32ZM392.527 104.604V91.0098H399.729V104.604H392.527ZM403.842 104.604V91.0098H404.703V104.604H403.842ZM401.967 104.604V91.0098H402.828V104.604H401.967ZM417.242 91.0098V98.4395H421.35V99.3008H416.381V91.0098H417.242ZM419.117 96.5645H421.35V97.4258H418.256V91.0098H419.117V96.5645ZM421.355 104.604V91.0098H428.557V104.604H421.355ZM428.562 104.604V91.0098H435.764V104.604H428.562ZM435.77 104.604V91.0098H442.971V104.604H435.77ZM442.977 104.604V91.0098H450.178V104.604H442.977ZM454.291 104.604V91.0098H455.152V104.604H454.291ZM452.416 104.604V91.0098H453.277V104.604H452.416ZM-130.492 104.01V111.439H-126.385V112.301H-131.354V104.01H-130.492ZM-128.617 109.564H-126.385V110.426H-129.479V104.01H-128.617V109.564ZM-119.178 110.426H-126.379V109.564H-119.178V110.426ZM-119.178 112.301H-126.379V111.439H-119.178V112.301ZM-111.971 110.426H-119.172V109.564H-111.971V110.426ZM-111.971 112.301H-119.172V111.439H-111.971V112.301ZM-104.764 110.426H-111.965V109.564H-104.764V110.426ZM-104.764 112.301H-111.965V111.439H-104.764V112.301ZM-100.65 104.01H-99.7891V112.301H-104.758V111.439H-100.65V104.01ZM-102.525 109.564V104.01H-101.664V110.426H-104.758V109.564H-102.525ZM-80.043 104.01V111.439H-75.9355V112.301H-80.9043V104.01H-80.043ZM-78.168 109.564H-75.9355V110.426H-79.0293V104.01H-78.168V109.564ZM-68.7285 110.426H-75.9297V109.564H-68.7285V110.426ZM-68.7285 112.301H-75.9297V111.439H-68.7285V112.301ZM-64.6152 104.01H-63.7539V112.301H-68.7227V111.439H-64.6152V104.01ZM-66.4902 109.564V104.01H-65.6289V110.426H-68.7227V109.564H-66.4902ZM-58.4219 104.01V111.439H-54.3145V112.301H-59.2832V104.01H-58.4219ZM-56.5469 109.564H-54.3145V110.426H-57.4082V104.01H-56.5469V109.564ZM-47.1074 110.426H-54.3086V109.564H-47.1074V110.426ZM-47.1074 112.301H-54.3086V111.439H-47.1074V112.301ZM-39.9004 110.426H-47.1016V109.564H-39.9004V110.426ZM-39.9004 112.301H-47.1016V111.439H-39.9004V112.301ZM-32.6934 110.426H-39.8945V109.564H-32.6934V110.426ZM-32.6934 112.301H-39.8945V111.439H-32.6934V112.301ZM-25.4863 110.426H-32.6875V109.564H-25.4863V110.426ZM-25.4863 112.301H-32.6875V111.439H-25.4863V112.301ZM-18.2793 110.426H-25.4805V109.564H-18.2793V110.426ZM-18.2793 112.301H-25.4805V111.439H-18.2793V112.301ZM-14.166 104.01H-13.3047V112.301H-18.2734V111.439H-14.166V104.01ZM-16.041 109.564V104.01H-15.1797V110.426H-18.2734V109.564H-16.041ZM-0.765625 104.01V111.439H3.3418V112.301H-1.62695V104.01H-0.765625ZM1.10938 109.564H3.3418V110.426H0.248047V104.01H1.10938V109.564ZM10.5488 110.426H3.34766V109.564H10.5488V110.426ZM10.5488 112.301H3.34766V111.439H10.5488V112.301ZM17.7559 110.426H10.5547V109.564H17.7559V110.426ZM17.7559 112.301H10.5547V111.439H17.7559V112.301ZM24.9629 110.426H17.7617V109.564H24.9629V110.426ZM24.9629 112.301H17.7617V111.439H24.9629V112.301ZM32.1699 110.426H24.9688V109.564H32.1699V110.426ZM32.1699 112.301H24.9688V111.439H32.1699V112.301ZM39.377 110.426H32.1758V109.564H39.377V110.426ZM39.377 112.301H32.1758V111.439H39.377V112.301ZM46.584 110.426H39.3828V109.564H46.584V110.426ZM46.584 112.301H39.3828V111.439H46.584V112.301ZM50.6973 104.01H51.5586V112.301H46.5898V111.439H50.6973V104.01ZM48.8223 109.564V104.01H49.6836V110.426H46.5898V109.564H48.8223ZM85.7188 104.01V111.439H89.8262V112.301H84.8574V104.01H85.7188ZM87.5938 109.564H89.8262V110.426H86.7324V104.01H87.5938V109.564ZM97.0332 110.426H89.832V109.564H97.0332V110.426ZM97.0332 112.301H89.832V111.439H97.0332V112.301ZM101.146 104.01H102.008V112.301H97.0391V111.439H101.146V104.01ZM99.2715 109.564V104.01H100.133V110.426H97.0391V109.564H99.2715ZM121.754 104.01V111.439H125.861V112.301H120.893V104.01H121.754ZM123.629 109.564H125.861V110.426H122.768V104.01H123.629V109.564ZM133.068 110.426H125.867V109.564H133.068V110.426ZM133.068 112.301H125.867V111.439H133.068V112.301ZM137.182 104.01H138.043V112.301H133.074V111.439H137.182V104.01ZM135.307 109.564V104.01H136.168V110.426H133.074V109.564H135.307ZM143.375 104.01V111.439H147.482V112.301H142.514V104.01H143.375ZM145.25 109.564H147.482V110.426H144.389V104.01H145.25V109.564ZM154.689 110.426H147.488V109.564H154.689V110.426ZM154.689 112.301H147.488V111.439H154.689V112.301ZM158.803 104.01H159.664V112.301H154.695V111.439H158.803V104.01ZM156.928 109.564V104.01H157.789V110.426H154.695V109.564H156.928ZM179.41 104.01V111.439H183.518V112.301H178.549V104.01H179.41ZM181.285 109.564H183.518V110.426H180.424V104.01H181.285V109.564ZM190.725 110.426H183.523V109.564H190.725V110.426ZM190.725 112.301H183.523V111.439H190.725V112.301ZM194.838 104.01H195.699V112.301H190.73V111.439H194.838V104.01ZM192.963 109.564V104.01H193.824V110.426H190.73V109.564H192.963ZM201.031 104.01V111.439H205.139V112.301H200.17V104.01H201.031ZM202.906 109.564H205.139V110.426H202.045V104.01H202.906V109.564ZM212.346 110.426H205.145V109.564H212.346V110.426ZM212.346 112.301H205.145V111.439H212.346V112.301ZM216.459 104.01H217.32V112.301H212.352V111.439H216.459V104.01ZM214.584 109.564V104.01H215.445V110.426H212.352V109.564H214.584ZM237.066 104.01V111.439H241.174V112.301H236.205V104.01H237.066ZM238.941 109.564H241.174V110.426H238.08V104.01H238.941V109.564ZM248.381 110.426H241.18V109.564H248.381V110.426ZM248.381 112.301H241.18V111.439H248.381V112.301ZM255.588 110.426H248.387V109.564H255.588V110.426ZM255.588 112.301H248.387V111.439H255.588V112.301ZM262.795 110.426H255.594V109.564H262.795V110.426ZM262.795 112.301H255.594V111.439H262.795V112.301ZM266.908 104.01H267.77V112.301H262.801V111.439H266.908V104.01ZM265.033 109.564V104.01H265.895V110.426H262.801V109.564H265.033ZM273.102 104.01V111.439H277.209V112.301H272.24V104.01H273.102ZM274.977 109.564H277.209V110.426H274.115V104.01H274.977V109.564ZM284.416 110.426H277.215V109.564H284.416V110.426ZM284.416 112.301H277.215V111.439H284.416V112.301ZM291.623 110.426H284.422V109.564H291.623V110.426ZM291.623 112.301H284.422V111.439H291.623V112.301ZM298.83 110.426H291.629V109.564H298.83V110.426ZM298.83 112.301H291.629V111.439H298.83V112.301ZM306.037 110.426H298.836V109.564H306.037V110.426ZM306.037 112.301H298.836V111.439H306.037V112.301ZM313.244 110.426H306.043V109.564H313.244V110.426ZM313.244 112.301H306.043V111.439H313.244V112.301ZM317.357 104.01H318.219V112.301H313.25V111.439H317.357V104.01ZM315.482 109.564V104.01H316.344V110.426H313.25V109.564H315.482ZM330.758 104.01V111.439H334.865V112.301H329.896V104.01H330.758ZM332.633 109.564H334.865V110.426H331.771V104.01H332.633V109.564ZM342.072 110.426H334.871V109.564H342.072V110.426ZM342.072 112.301H334.871V111.439H342.072V112.301ZM346.186 104.01H347.047V112.301H342.078V111.439H346.186V104.01ZM344.311 109.564V104.01H345.172V110.426H342.078V109.564H344.311ZM366.793 104.01V111.439H370.9V112.301H365.932V104.01H366.793ZM368.668 109.564H370.9V110.426H367.807V104.01H368.668V109.564ZM378.107 110.426H370.906V109.564H378.107V110.426ZM378.107 112.301H370.906V111.439H378.107V112.301ZM382.221 104.01H383.082V112.301H378.113V111.439H382.221V104.01ZM380.346 109.564V104.01H381.207V110.426H378.113V109.564H380.346ZM388.414 104.01V111.439H392.521V112.301H387.553V104.01H388.414ZM390.289 109.564H392.521V110.426H389.428V104.01H390.289V109.564ZM399.729 110.426H392.527V109.564H399.729V110.426ZM399.729 112.301H392.527V111.439H399.729V112.301ZM403.842 104.01H404.703V112.301H399.734V111.439H403.842V104.01ZM401.967 109.564V104.01H402.828V110.426H399.734V109.564H401.967ZM424.449 104.01V111.439H428.557V112.301H423.588V104.01H424.449ZM426.324 109.564H428.557V110.426H425.463V104.01H426.324V109.564ZM435.764 110.426H428.562V109.564H435.764V110.426ZM435.764 112.301H428.562V111.439H435.764V112.301ZM442.971 110.426H435.77V109.564H442.971V110.426ZM442.971 112.301H435.77V111.439H442.971V112.301ZM450.178 110.426H442.977V109.564H450.178V110.426ZM450.178 112.301H442.977V111.439H450.178V112.301ZM454.291 104.01H455.152V112.301H450.184V111.439H454.291V104.01ZM452.416 109.564V104.01H453.277V110.426H450.184V109.564H452.416Z" fill="white"/>
</mask>
<g mask="url(#mask1_19_2)">
<rect x="81" y="37" width="58" height="78" fill="white"/>
</g>
</g>
<defs>
<clipPath id="clip0_19_2">
<rect width="150" height="150" fill="white"/>
</clipPath>
</defs>
</svg>
